<svg xmlns="http://www.w3.org/2000/svg" width="720" height="10620" viewBox="0 0 720 10620">
  <title>프롤로그 대사 강화 웹툰 SVG</title>
  <desc>프롤로그 최종 웹툰 SVG에 대사와 효과음을 더 명확하게 얹은 버전.</desc>
  <rect width="720" height="10620" fill="#f3f4f6"/>
  <g id="panel_01"><svg x="0" y="0" width="720" height="760" viewBox="0 0 864 455" preserveAspectRatio="xMidYMid slice">
    <image href="assets/prologue_ai_generated_sheet.png" x="0" y="0" width="864" height="1821"/>
  </svg><rect x="0" y="0" width="720" height="760" fill="none" stroke="#111" stroke-width="4"/><rect x="24" y="24" width="250" height="42" rx="21" fill="rgba(255,255,255,.88)"/><text x="44" y="52" font-size="17" fill="#111" font-family="Arial, 'Malgun Gothic', sans-serif" font-weight="800">01 평일 오전, 출근길</text><text x="690" y="58" font-size="25" text-anchor="end" fill="#111" font-family="Arial, 'Malgun Gothic', sans-serif" font-weight="900">삑. 삑. 삑.</text><rect x="34" y="684" width="652" height="48" rx="14" fill="rgba(255,255,255,.84)"/><text x="360" y="715" font-size="19" fill="#111" text-anchor="middle" font-family="Arial, 'Malgun Gothic', sans-serif" font-weight="700">도시는 너무 정상적으로 움직이고 있었다.</text></g>
<g id="panel_02"><svg x="0" y="760" width="720" height="720" viewBox="0 455 864 455" preserveAspectRatio="xMidYMid slice">
    <image href="assets/prologue_ai_generated_sheet.png" x="0" y="0" width="864" height="1821"/>
  </svg><rect x="0" y="760" width="720" height="720" fill="none" stroke="#111" stroke-width="4"/><g>
    <rect x="356" y="1260" width="320" height="114" rx="18" fill="#fff" stroke="#111" stroke-width="3"/>
    <text x="516" y="1290" font-size="20" text-anchor="middle" fill="#111" font-family="Arial, 'Malgun Gothic', sans-serif" font-weight="800">서윤 씨,</text><text x="516" y="1318" font-size="20" text-anchor="middle" fill="#111" font-family="Arial, 'Malgun Gothic', sans-serif" font-weight="800">회의 9시 반으로</text><text x="516" y="1346" font-size="20" text-anchor="middle" fill="#111" font-family="Arial, 'Malgun Gothic', sans-serif" font-weight="800">당겨졌어요.</text>
  </g><g>
    <rect x="74" y="1350" width="250" height="86" rx="18" fill="#fff" stroke="#111" stroke-width="3"/>
    <text x="199" y="1380" font-size="20" text-anchor="middle" fill="#111" font-family="Arial, 'Malgun Gothic', sans-serif" font-weight="800">알아요.</text><text x="199" y="1408" font-size="20" text-anchor="middle" fill="#111" font-family="Arial, 'Malgun Gothic', sans-serif" font-weight="800">가는 중이에요.</text>
  </g><rect x="24" y="784" width="250" height="42" rx="21" fill="rgba(255,255,255,.88)"/><text x="44" y="812" font-size="17" fill="#111" font-family="Arial, 'Malgun Gothic', sans-serif" font-weight="800">02 한서윤</text><rect x="34" y="1404" width="652" height="48" rx="14" fill="rgba(255,255,255,.84)"/><text x="360" y="1435" font-size="19" fill="#111" text-anchor="middle" font-family="Arial, 'Malgun Gothic', sans-serif" font-weight="700">08:42</text></g>
<g id="panel_03"><rect x="0" y="1480" width="720" height="620" fill="#fff9ec"/>
      <rect x="242" y="1664" width="236" height="168" rx="14" fill="#20242b"/>
      <circle cx="360" cy="1718" r="24" fill="#39d978"/>
      <text x="360" y="1810" font-size="78" text-anchor="middle" fill="#83ff95" font-family="Arial, 'Malgun Gothic', sans-serif" font-weight="900">17</text>
      <text x="250" y="1908" font-size="34" text-anchor="middle" fill="#8aa391" font-family="Arial, 'Malgun Gothic', sans-serif" font-weight="800">16</text>
      <text x="470" y="1908" font-size="34" text-anchor="middle" fill="#8aa391" font-family="Arial, 'Malgun Gothic', sans-serif" font-weight="800">15</text><rect x="0" y="1480" width="720" height="620" fill="none" stroke="#111" stroke-width="4"/><rect x="24" y="1504" width="250" height="42" rx="21" fill="rgba(255,255,255,.88)"/><text x="44" y="1532" font-size="17" fill="#111" font-family="Arial, 'Malgun Gothic', sans-serif" font-weight="800">03 신호등</text><text x="690" y="1538" font-size="25" text-anchor="end" fill="#111" font-family="Arial, 'Malgun Gothic', sans-serif" font-weight="900">삑. 삑. 삑.</text><rect x="34" y="2024" width="652" height="48" rx="14" fill="rgba(255,255,255,.84)"/><text x="360" y="2055" font-size="19" fill="#111" text-anchor="middle" font-family="Arial, 'Malgun Gothic', sans-serif" font-weight="700">17, 16, 15. 정상적인 숫자.</text></g>
<g id="panel_04"><svg x="0" y="2100" width="720" height="620" viewBox="0 0 864 455" preserveAspectRatio="xMidYMid slice">
    <image href="assets/prologue_ai_generated_sheet.png" x="0" y="0" width="864" height="1821"/>
  </svg><rect x="0" y="2100" width="720" height="620" fill="none" stroke="#111" stroke-width="4"/><rect x="24" y="2124" width="250" height="42" rx="21" fill="rgba(255,255,255,.88)"/><text x="44" y="2152" font-size="17" fill="#111" font-family="Arial, 'Malgun Gothic', sans-serif" font-weight="800">04 횡단보도</text><rect x="34" y="2644" width="652" height="48" rx="14" fill="rgba(255,255,255,.84)"/><text x="360" y="2675" font-size="19" fill="#111" text-anchor="middle" font-family="Arial, 'Malgun Gothic', sans-serif" font-weight="700">사람들은 같은 박자로 움직였다.</text></g>
<g id="panel_05"><rect x="0" y="2720" width="720" height="360" fill="#fbf4e8"/>
      <ellipse cx="360" cy="2900" rx="264" ry="92" fill="#efd0b8" stroke="#111" stroke-width="4"/>
      <ellipse cx="360" cy="2900" rx="76" ry="76" fill="#42322c"/>
      <circle cx="384" cy="2876" r="18" fill="#fff"/>
      <path d="M128 2924 C260 2864 458 2864 592 2924" stroke="#fff" stroke-width="10" opacity=".58" fill="none"/><rect x="0" y="2720" width="720" height="360" fill="none" stroke="#111" stroke-width="4"/><rect x="24" y="2744" width="250" height="42" rx="21" fill="rgba(255,255,255,.88)"/><text x="44" y="2772" font-size="17" fill="#111" font-family="Arial, 'Malgun Gothic', sans-serif" font-weight="800">05 감각</text><text x="690" y="2778" font-size="25" text-anchor="end" fill="#111" font-family="Arial, 'Malgun Gothic', sans-serif" font-weight="900">삑.</text><rect x="34" y="3004" width="652" height="48" rx="14" fill="rgba(255,255,255,.84)"/><text x="360" y="3035" font-size="19" fill="#111" text-anchor="middle" font-family="Arial, 'Malgun Gothic', sans-serif" font-weight="700">그런데, 하나가 늦었다.</text></g>
<g id="panel_06"><svg x="0" y="3080" width="720" height="980" viewBox="0 910 864 455" preserveAspectRatio="xMidYMid slice">
    <image href="assets/prologue_ai_generated_sheet.png" x="0" y="0" width="864" height="1821"/>
  </svg><rect x="0" y="3080" width="720" height="980" fill="none" stroke="#111" stroke-width="4"/><rect x="30" y="3114" width="4" height="4" fill="#dff6ff" opacity="0.30000000000000004"/><rect x="109" y="3245" width="7" height="7" fill="#dff6ff" opacity="0.39"/><rect x="188" y="3376" width="10" height="10" fill="#dff6ff" opacity="0.48"/><rect x="267" y="3507" width="13" height="13" fill="#dff6ff" opacity="0.5700000000000001"/><rect x="346" y="3638" width="16" height="16" fill="#dff6ff" opacity="0.66"/><rect x="425" y="3769" width="4" height="4" fill="#dff6ff" opacity="0.30000000000000004"/><rect x="504" y="3900" width="7" height="7" fill="#dff6ff" opacity="0.39"/><rect x="583" y="3123" width="10" height="10" fill="#dff6ff" opacity="0.48"/><rect x="662" y="3254" width="13" height="13" fill="#dff6ff" opacity="0.5700000000000001"/><rect x="81" y="3385" width="16" height="16" fill="#dff6ff" opacity="0.66"/><rect x="160" y="3516" width="4" height="4" fill="#dff6ff" opacity="0.30000000000000004"/><rect x="239" y="3647" width="7" height="7" fill="#dff6ff" opacity="0.39"/><rect x="318" y="3778" width="10" height="10" fill="#dff6ff" opacity="0.48"/><rect x="397" y="3909" width="13" height="13" fill="#dff6ff" opacity="0.5700000000000001"/><rect x="476" y="3132" width="16" height="16" fill="#dff6ff" opacity="0.66"/><rect x="555" y="3263" width="4" height="4" fill="#dff6ff" opacity="0.30000000000000004"/><rect x="634" y="3394" width="7" height="7" fill="#dff6ff" opacity="0.39"/><rect x="53" y="3525" width="10" height="10" fill="#dff6ff" opacity="0.48"/><rect x="132" y="3656" width="13" height="13" fill="#dff6ff" opacity="0.5700000000000001"/><rect x="211" y="3787" width="16" height="16" fill="#dff6ff" opacity="0.66"/><rect x="290" y="3918" width="4" height="4" fill="#dff6ff" opacity="0.30000000000000004"/><rect x="369" y="3141" width="7" height="7" fill="#dff6ff" opacity="0.39"/><rect x="448" y="3272" width="10" height="10" fill="#dff6ff" opacity="0.48"/><rect x="527" y="3403" width="13" height="13" fill="#dff6ff" opacity="0.5700000000000001"/><rect x="606" y="3534" width="16" height="16" fill="#dff6ff" opacity="0.66"/><rect x="685" y="3665" width="4" height="4" fill="#dff6ff" opacity="0.30000000000000004"/><rect x="104" y="3796" width="7" height="7" fill="#dff6ff" opacity="0.39"/><rect x="183" y="3927" width="10" height="10" fill="#dff6ff" opacity="0.48"/><rect x="262" y="3150" width="13" height="13" fill="#dff6ff" opacity="0.5700000000000001"/><rect x="341" y="3281" width="16" height="16" fill="#dff6ff" opacity="0.66"/><rect x="420" y="3412" width="4" height="4" fill="#dff6ff" opacity="0.30000000000000004"/><rect x="499" y="3543" width="7" height="7" fill="#dff6ff" opacity="0.39"/><rect x="578" y="3674" width="10" height="10" fill="#dff6ff" opacity="0.48"/><rect x="657" y="3805" width="13" height="13" fill="#dff6ff" opacity="0.5700000000000001"/><rect x="76" y="3936" width="16" height="16" fill="#dff6ff" opacity="0.66"/><rect x="155" y="3159" width="4" height="4" fill="#dff6ff" opacity="0.30000000000000004"/><rect x="234" y="3290" width="7" height="7" fill="#dff6ff" opacity="0.39"/><rect x="313" y="3421" width="10" height="10" fill="#dff6ff" opacity="0.48"/><rect x="392" y="3552" width="13" height="13" fill="#dff6ff" opacity="0.5700000000000001"/><rect x="471" y="3683" width="16" height="16" fill="#dff6ff" opacity="0.66"/><rect x="550" y="3814" width="4" height="4" fill="#dff6ff" opacity="0.30000000000000004"/><rect x="629" y="3945" width="7" height="7" fill="#dff6ff" opacity="0.39"/><rect x="48" y="3168" width="10" height="10" fill="#dff6ff" opacity="0.48"/><rect x="127" y="3299" width="13" height="13" fill="#dff6ff" opacity="0.5700000000000001"/><rect x="206" y="3430" width="16" height="16" fill="#dff6ff" opacity="0.66"/><rect x="285" y="3561" width="4" height="4" fill="#dff6ff" opacity="0.30000000000000004"/><rect x="364" y="3692" width="7" height="7" fill="#dff6ff" opacity="0.39"/><rect x="443" y="3823" width="10" height="10" fill="#dff6ff" opacity="0.48"/><rect x="522" y="3954" width="13" height="13" fill="#dff6ff" opacity="0.5700000000000001"/><rect x="601" y="3177" width="16" height="16" fill="#dff6ff" opacity="0.66"/><rect x="680" y="3308" width="4" height="4" fill="#dff6ff" opacity="0.30000000000000004"/><rect x="99" y="3439" width="7" height="7" fill="#dff6ff" opacity="0.39"/><rect x="178" y="3570" width="10" height="10" fill="#dff6ff" opacity="0.48"/><rect x="257" y="3701" width="13" height="13" fill="#dff6ff" opacity="0.5700000000000001"/><rect x="336" y="3832" width="16" height="16" fill="#dff6ff" opacity="0.66"/><rect x="415" y="3963" width="4" height="4" fill="#dff6ff" opacity="0.30000000000000004"/><rect x="494" y="3186" width="7" height="7" fill="#dff6ff" opacity="0.39"/><rect x="573" y="3317" width="10" height="10" fill="#dff6ff" opacity="0.48"/><rect x="652" y="3448" width="13" height="13" fill="#dff6ff" opacity="0.5700000000000001"/><rect x="71" y="3579" width="16" height="16" fill="#dff6ff" opacity="0.66"/><g>
    <rect x="76" y="3886" width="300" height="58" rx="18" fill="#fff" stroke="#111" stroke-width="3"/>
    <text x="226" y="3916" font-size="20" text-anchor="middle" fill="#111" font-family="Arial, 'Malgun Gothic', sans-serif" font-weight="800">아니.</text>
  </g><rect x="24" y="3104" width="250" height="42" rx="21" fill="rgba(255,255,255,.88)"/><text x="44" y="3132" font-size="17" fill="#111" font-family="Arial, 'Malgun Gothic', sans-serif" font-weight="800">06 한 박자 늦는 남자</text><rect x="34" y="3984" width="652" height="48" rx="14" fill="rgba(255,255,255,.84)"/><text x="360" y="4015" font-size="19" fill="#111" text-anchor="middle" font-family="Arial, 'Malgun Gothic', sans-serif" font-weight="700">몸은 여기 있는데, 윤곽은 한 프레임 전이었다.</text></g>
<g id="panel_07"><rect x="0" y="4060" width="720" height="260" fill="#fff"/>
      <rect x="30" y="4094" width="4" height="4" fill="#dff6ff" opacity="0.2"/><rect x="109" y="4225" width="7" height="7" fill="#dff6ff" opacity="0.26"/><rect x="188" y="4168" width="10" height="10" fill="#dff6ff" opacity="0.32"/><rect x="267" y="4111" width="13" height="13" fill="#dff6ff" opacity="0.38"/><rect x="346" y="4242" width="16" height="16" fill="#dff6ff" opacity="0.44"/><rect x="425" y="4185" width="4" height="4" fill="#dff6ff" opacity="0.2"/><rect x="504" y="4128" width="7" height="7" fill="#dff6ff" opacity="0.26"/><rect x="583" y="4259" width="10" height="10" fill="#dff6ff" opacity="0.32"/><rect x="662" y="4202" width="13" height="13" fill="#dff6ff" opacity="0.38"/><rect x="81" y="4145" width="16" height="16" fill="#dff6ff" opacity="0.44"/><rect x="160" y="4276" width="4" height="4" fill="#dff6ff" opacity="0.2"/><rect x="239" y="4219" width="7" height="7" fill="#dff6ff" opacity="0.26"/><rect x="318" y="4162" width="10" height="10" fill="#dff6ff" opacity="0.32"/><rect x="397" y="4105" width="13" height="13" fill="#dff6ff" opacity="0.38"/><rect x="476" y="4236" width="16" height="16" fill="#dff6ff" opacity="0.44"/><rect x="555" y="4179" width="4" height="4" fill="#dff6ff" opacity="0.2"/><rect x="634" y="4122" width="7" height="7" fill="#dff6ff" opacity="0.26"/><rect x="53" y="4253" width="10" height="10" fill="#dff6ff" opacity="0.32"/><rect x="132" y="4196" width="13" height="13" fill="#dff6ff" opacity="0.38"/><rect x="211" y="4139" width="16" height="16" fill="#dff6ff" opacity="0.44"/><rect x="290" y="4270" width="4" height="4" fill="#dff6ff" opacity="0.2"/><rect x="369" y="4213" width="7" height="7" fill="#dff6ff" opacity="0.26"/><rect x="448" y="4156" width="10" height="10" fill="#dff6ff" opacity="0.32"/><rect x="527" y="4099" width="13" height="13" fill="#dff6ff" opacity="0.38"/><rect x="606" y="4230" width="16" height="16" fill="#dff6ff" opacity="0.44"/><rect x="685" y="4173" width="4" height="4" fill="#dff6ff" opacity="0.2"/><rect x="104" y="4116" width="7" height="7" fill="#dff6ff" opacity="0.26"/><rect x="183" y="4247" width="10" height="10" fill="#dff6ff" opacity="0.32"/><rect x="262" y="4190" width="13" height="13" fill="#dff6ff" opacity="0.38"/><rect x="341" y="4133" width="16" height="16" fill="#dff6ff" opacity="0.44"/><rect x="420" y="4264" width="4" height="4" fill="#dff6ff" opacity="0.2"/><rect x="499" y="4207" width="7" height="7" fill="#dff6ff" opacity="0.26"/><rect x="578" y="4150" width="10" height="10" fill="#dff6ff" opacity="0.32"/><rect x="657" y="4281" width="13" height="13" fill="#dff6ff" opacity="0.38"/>
      <text x="360" y="4224" font-size="86" text-anchor="middle" fill="#111" font-family="Arial, 'Malgun Gothic', sans-serif" font-weight="900">02:17</text><rect x="0" y="4060" width="720" height="260" fill="none" stroke="#111" stroke-width="4"/><rect x="24" y="4084" width="250" height="42" rx="21" fill="rgba(255,255,255,.88)"/><text x="44" y="4112" font-size="17" fill="#111" font-family="Arial, 'Malgun Gothic', sans-serif" font-weight="800">07 오류</text><text x="690" y="4118" font-size="25" text-anchor="end" fill="#111" font-family="Arial, 'Malgun Gothic', sans-serif" font-weight="900">무음</text><rect x="34" y="4244" width="652" height="48" rx="14" fill="rgba(255,255,255,.84)"/><text x="360" y="4275" font-size="19" fill="#111" text-anchor="middle" font-family="Arial, 'Malgun Gothic', sans-serif" font-weight="700">02:17</text></g>
<g id="panel_white_01"><rect x="0" y="4320" width="720" height="780" fill="#fffdf4"/>
      <rect x="30" y="4354" width="4" height="4" fill="#f9d67b" opacity="0.15200000000000002"/><rect x="109" y="4485" width="7" height="7" fill="#f9d67b" opacity="0.1976"/><rect x="188" y="4616" width="10" height="10" fill="#f9d67b" opacity="0.2432"/><rect x="267" y="4747" width="13" height="13" fill="#f9d67b" opacity="0.2888"/><rect x="346" y="4878" width="16" height="16" fill="#f9d67b" opacity="0.33440000000000003"/><rect x="425" y="5009" width="4" height="4" fill="#f9d67b" opacity="0.15200000000000002"/><rect x="504" y="4432" width="7" height="7" fill="#f9d67b" opacity="0.1976"/><rect x="583" y="4563" width="10" height="10" fill="#f9d67b" opacity="0.2432"/><rect x="662" y="4694" width="13" height="13" fill="#f9d67b" opacity="0.2888"/><rect x="81" y="4825" width="16" height="16" fill="#f9d67b" opacity="0.33440000000000003"/><rect x="160" y="4956" width="4" height="4" fill="#f9d67b" opacity="0.15200000000000002"/><rect x="239" y="4379" width="7" height="7" fill="#f9d67b" opacity="0.1976"/><rect x="318" y="4510" width="10" height="10" fill="#f9d67b" opacity="0.2432"/><rect x="397" y="4641" width="13" height="13" fill="#f9d67b" opacity="0.2888"/><rect x="476" y="4772" width="16" height="16" fill="#f9d67b" opacity="0.33440000000000003"/><rect x="555" y="4903" width="4" height="4" fill="#f9d67b" opacity="0.15200000000000002"/><rect x="634" y="5034" width="7" height="7" fill="#f9d67b" opacity="0.1976"/><rect x="53" y="4457" width="10" height="10" fill="#f9d67b" opacity="0.2432"/><rect x="132" y="4588" width="13" height="13" fill="#f9d67b" opacity="0.2888"/><rect x="211" y="4719" width="16" height="16" fill="#f9d67b" opacity="0.33440000000000003"/><rect x="290" y="4850" width="4" height="4" fill="#f9d67b" opacity="0.15200000000000002"/><rect x="369" y="4981" width="7" height="7" fill="#f9d67b" opacity="0.1976"/><rect x="448" y="4404" width="10" height="10" fill="#f9d67b" opacity="0.2432"/><rect x="527" y="4535" width="13" height="13" fill="#f9d67b" opacity="0.2888"/><rect x="606" y="4666" width="16" height="16" fill="#f9d67b" opacity="0.33440000000000003"/><rect x="685" y="4797" width="4" height="4" fill="#f9d67b" opacity="0.15200000000000002"/><rect x="104" y="4928" width="7" height="7" fill="#f9d67b" opacity="0.1976"/><rect x="183" y="5059" width="10" height="10" fill="#f9d67b" opacity="0.2432"/><rect x="262" y="4482" width="13" height="13" fill="#f9d67b" opacity="0.2888"/><rect x="341" y="4613" width="16" height="16" fill="#f9d67b" opacity="0.33440000000000003"/><rect x="420" y="4744" width="4" height="4" fill="#f9d67b" opacity="0.15200000000000002"/><rect x="499" y="4875" width="7" height="7" fill="#f9d67b" opacity="0.1976"/><rect x="578" y="5006" width="10" height="10" fill="#f9d67b" opacity="0.2432"/><rect x="657" y="4429" width="13" height="13" fill="#f9d67b" opacity="0.2888"/><rect x="76" y="4560" width="16" height="16" fill="#f9d67b" opacity="0.33440000000000003"/><rect x="155" y="4691" width="4" height="4" fill="#f9d67b" opacity="0.15200000000000002"/><rect x="234" y="4822" width="7" height="7" fill="#f9d67b" opacity="0.1976"/><rect x="313" y="4953" width="10" height="10" fill="#f9d67b" opacity="0.2432"/><rect x="392" y="4376" width="13" height="13" fill="#f9d67b" opacity="0.2888"/><rect x="471" y="4507" width="16" height="16" fill="#f9d67b" opacity="0.33440000000000003"/><rect x="550" y="4638" width="4" height="4" fill="#f9d67b" opacity="0.15200000000000002"/><rect x="629" y="4769" width="7" height="7" fill="#f9d67b" opacity="0.1976"/><rect x="48" y="4900" width="10" height="10" fill="#f9d67b" opacity="0.2432"/><rect x="127" y="5031" width="13" height="13" fill="#f9d67b" opacity="0.2888"/><rect x="206" y="4454" width="16" height="16" fill="#f9d67b" opacity="0.33440000000000003"/><rect x="285" y="4585" width="4" height="4" fill="#f9d67b" opacity="0.15200000000000002"/><rect x="364" y="4716" width="7" height="7" fill="#f9d67b" opacity="0.1976"/><rect x="443" y="4847" width="10" height="10" fill="#f9d67b" opacity="0.2432"/><rect x="522" y="4978" width="13" height="13" fill="#f9d67b" opacity="0.2888"/><rect x="601" y="4401" width="16" height="16" fill="#f9d67b" opacity="0.33440000000000003"/><rect x="680" y="4532" width="4" height="4" fill="#f9d67b" opacity="0.15200000000000002"/><rect x="99" y="4663" width="7" height="7" fill="#f9d67b" opacity="0.1976"/><rect x="178" y="4794" width="10" height="10" fill="#f9d67b" opacity="0.2432"/><rect x="257" y="4925" width="13" height="13" fill="#f9d67b" opacity="0.2888"/><rect x="336" y="5056" width="16" height="16" fill="#f9d67b" opacity="0.33440000000000003"/><rect x="415" y="4479" width="4" height="4" fill="#f9d67b" opacity="0.15200000000000002"/><rect x="494" y="4610" width="7" height="7" fill="#f9d67b" opacity="0.1976"/><rect x="573" y="4741" width="10" height="10" fill="#f9d67b" opacity="0.2432"/><rect x="652" y="4872" width="13" height="13" fill="#f9d67b" opacity="0.2888"/><rect x="71" y="5003" width="16" height="16" fill="#f9d67b" opacity="0.33440000000000003"/><rect x="150" y="4426" width="4" height="4" fill="#f9d67b" opacity="0.15200000000000002"/><rect x="229" y="4557" width="7" height="7" fill="#f9d67b" opacity="0.1976"/><rect x="308" y="4688" width="10" height="10" fill="#f9d67b" opacity="0.2432"/><rect x="387" y="4819" width="13" height="13" fill="#f9d67b" opacity="0.2888"/><rect x="466" y="4950" width="16" height="16" fill="#f9d67b" opacity="0.33440000000000003"/><rect x="545" y="4373" width="4" height="4" fill="#f9d67b" opacity="0.15200000000000002"/><rect x="624" y="4504" width="7" height="7" fill="#f9d67b" opacity="0.1976"/><rect x="43" y="4635" width="10" height="10" fill="#f9d67b" opacity="0.2432"/><rect x="122" y="4766" width="13" height="13" fill="#f9d67b" opacity="0.2888"/><rect x="201" y="4897" width="16" height="16" fill="#f9d67b" opacity="0.33440000000000003"/><rect x="0" y="4320" width="720" height="780" fill="none" stroke="#111" stroke-width="4"/></g>
<g id="panel_08"><svg x="0" y="5100" width="720" height="680" viewBox="0 0 864 455" preserveAspectRatio="xMidYMid slice">
    <image href="assets/prologue_ai_generated_sheet.png" x="0" y="0" width="864" height="1821"/>
  </svg><rect x="0" y="5100" width="720" height="680" fill="none" stroke="#111" stroke-width="4"/><g>
    <rect x="420" y="5220" width="190" height="58" rx="18" fill="#fff" stroke="#111" stroke-width="3"/>
    <text x="515" y="5250" font-size="20" text-anchor="middle" fill="#111" font-family="Arial, 'Malgun Gothic', sans-serif" font-weight="800">저기요.</text>
  </g><g>
    <rect x="80" y="5530" width="180" height="58" rx="18" fill="#fff" stroke="#111" stroke-width="3"/>
    <text x="170" y="5560" font-size="20" text-anchor="middle" fill="#111" font-family="Arial, 'Malgun Gothic', sans-serif" font-weight="800">방금...</text>
  </g><rect x="24" y="5124" width="250" height="42" rx="21" fill="rgba(255,255,255,.88)"/><text x="44" y="5152" font-size="17" fill="#111" font-family="Arial, 'Malgun Gothic', sans-serif" font-weight="800">08 정상 복귀</text><rect x="34" y="5704" width="652" height="48" rx="14" fill="rgba(255,255,255,.84)"/><text x="360" y="5735" font-size="19" fill="#111" text-anchor="middle" font-family="Arial, 'Malgun Gothic', sans-serif" font-weight="700">아무도 멈추지 않았다.</text></g>
<g id="panel_09"><svg x="0" y="5780" width="720" height="1180" viewBox="0 1365 864 456" preserveAspectRatio="xMidYMid slice">
    <image href="assets/prologue_ai_generated_sheet.png" x="0" y="0" width="864" height="1821"/>
  </svg><rect x="0" y="5780" width="720" height="1180" fill="none" stroke="#111" stroke-width="4"/><rect x="30" y="5814" width="4" height="4" fill="#e0f2fe" opacity="0.31200000000000006"/><rect x="109" y="5945" width="7" height="7" fill="#e0f2fe" opacity="0.4056"/><rect x="188" y="6076" width="10" height="10" fill="#e0f2fe" opacity="0.49920000000000003"/><rect x="267" y="6207" width="13" height="13" fill="#e0f2fe" opacity="0.5928"/><rect x="346" y="6338" width="16" height="16" fill="#e0f2fe" opacity="0.6864"/><rect x="425" y="6469" width="4" height="4" fill="#e0f2fe" opacity="0.31200000000000006"/><rect x="504" y="6600" width="7" height="7" fill="#e0f2fe" opacity="0.4056"/><rect x="583" y="6731" width="10" height="10" fill="#e0f2fe" opacity="0.49920000000000003"/><rect x="662" y="6862" width="13" height="13" fill="#e0f2fe" opacity="0.5928"/><rect x="81" y="5885" width="16" height="16" fill="#e0f2fe" opacity="0.6864"/><rect x="160" y="6016" width="4" height="4" fill="#e0f2fe" opacity="0.31200000000000006"/><rect x="239" y="6147" width="7" height="7" fill="#e0f2fe" opacity="0.4056"/><rect x="318" y="6278" width="10" height="10" fill="#e0f2fe" opacity="0.49920000000000003"/><rect x="397" y="6409" width="13" height="13" fill="#e0f2fe" opacity="0.5928"/><rect x="476" y="6540" width="16" height="16" fill="#e0f2fe" opacity="0.6864"/><rect x="555" y="6671" width="4" height="4" fill="#e0f2fe" opacity="0.31200000000000006"/><rect x="634" y="6802" width="7" height="7" fill="#e0f2fe" opacity="0.4056"/><rect x="53" y="5825" width="10" height="10" fill="#e0f2fe" opacity="0.49920000000000003"/><rect x="132" y="5956" width="13" height="13" fill="#e0f2fe" opacity="0.5928"/><rect x="211" y="6087" width="16" height="16" fill="#e0f2fe" opacity="0.6864"/><rect x="290" y="6218" width="4" height="4" fill="#e0f2fe" opacity="0.31200000000000006"/><rect x="369" y="6349" width="7" height="7" fill="#e0f2fe" opacity="0.4056"/><rect x="448" y="6480" width="10" height="10" fill="#e0f2fe" opacity="0.49920000000000003"/><rect x="527" y="6611" width="13" height="13" fill="#e0f2fe" opacity="0.5928"/><rect x="606" y="6742" width="16" height="16" fill="#e0f2fe" opacity="0.6864"/><rect x="685" y="6873" width="4" height="4" fill="#e0f2fe" opacity="0.31200000000000006"/><rect x="104" y="5896" width="7" height="7" fill="#e0f2fe" opacity="0.4056"/><rect x="183" y="6027" width="10" height="10" fill="#e0f2fe" opacity="0.49920000000000003"/><rect x="262" y="6158" width="13" height="13" fill="#e0f2fe" opacity="0.5928"/><rect x="341" y="6289" width="16" height="16" fill="#e0f2fe" opacity="0.6864"/><rect x="420" y="6420" width="4" height="4" fill="#e0f2fe" opacity="0.31200000000000006"/><rect x="499" y="6551" width="7" height="7" fill="#e0f2fe" opacity="0.4056"/><rect x="578" y="6682" width="10" height="10" fill="#e0f2fe" opacity="0.49920000000000003"/><rect x="657" y="6813" width="13" height="13" fill="#e0f2fe" opacity="0.5928"/><rect x="76" y="5836" width="16" height="16" fill="#e0f2fe" opacity="0.6864"/><rect x="155" y="5967" width="4" height="4" fill="#e0f2fe" opacity="0.31200000000000006"/><rect x="234" y="6098" width="7" height="7" fill="#e0f2fe" opacity="0.4056"/><rect x="313" y="6229" width="10" height="10" fill="#e0f2fe" opacity="0.49920000000000003"/><rect x="392" y="6360" width="13" height="13" fill="#e0f2fe" opacity="0.5928"/><rect x="471" y="6491" width="16" height="16" fill="#e0f2fe" opacity="0.6864"/><rect x="550" y="6622" width="4" height="4" fill="#e0f2fe" opacity="0.31200000000000006"/><rect x="629" y="6753" width="7" height="7" fill="#e0f2fe" opacity="0.4056"/><rect x="48" y="6884" width="10" height="10" fill="#e0f2fe" opacity="0.49920000000000003"/><rect x="127" y="5907" width="13" height="13" fill="#e0f2fe" opacity="0.5928"/><rect x="206" y="6038" width="16" height="16" fill="#e0f2fe" opacity="0.6864"/><rect x="285" y="6169" width="4" height="4" fill="#e0f2fe" opacity="0.31200000000000006"/><rect x="364" y="6300" width="7" height="7" fill="#e0f2fe" opacity="0.4056"/><rect x="443" y="6431" width="10" height="10" fill="#e0f2fe" opacity="0.49920000000000003"/><rect x="522" y="6562" width="13" height="13" fill="#e0f2fe" opacity="0.5928"/><rect x="601" y="6693" width="16" height="16" fill="#e0f2fe" opacity="0.6864"/><rect x="680" y="6824" width="4" height="4" fill="#e0f2fe" opacity="0.31200000000000006"/><rect x="99" y="5847" width="7" height="7" fill="#e0f2fe" opacity="0.4056"/><rect x="178" y="5978" width="10" height="10" fill="#e0f2fe" opacity="0.49920000000000003"/><rect x="257" y="6109" width="13" height="13" fill="#e0f2fe" opacity="0.5928"/><rect x="336" y="6240" width="16" height="16" fill="#e0f2fe" opacity="0.6864"/><rect x="415" y="6371" width="4" height="4" fill="#e0f2fe" opacity="0.31200000000000006"/><rect x="494" y="6502" width="7" height="7" fill="#e0f2fe" opacity="0.4056"/><rect x="573" y="6633" width="10" height="10" fill="#e0f2fe" opacity="0.49920000000000003"/><rect x="652" y="6764" width="13" height="13" fill="#e0f2fe" opacity="0.5928"/><rect x="71" y="6895" width="16" height="16" fill="#e0f2fe" opacity="0.6864"/><rect x="150" y="5918" width="4" height="4" fill="#e0f2fe" opacity="0.31200000000000006"/><rect x="229" y="6049" width="7" height="7" fill="#e0f2fe" opacity="0.4056"/><rect x="308" y="6180" width="10" height="10" fill="#e0f2fe" opacity="0.49920000000000003"/><rect x="387" y="6311" width="13" height="13" fill="#e0f2fe" opacity="0.5928"/><rect x="466" y="6442" width="16" height="16" fill="#e0f2fe" opacity="0.6864"/><rect x="545" y="6573" width="4" height="4" fill="#e0f2fe" opacity="0.31200000000000006"/><rect x="624" y="6704" width="7" height="7" fill="#e0f2fe" opacity="0.4056"/><rect x="43" y="6835" width="10" height="10" fill="#e0f2fe" opacity="0.49920000000000003"/><rect x="122" y="5858" width="13" height="13" fill="#e0f2fe" opacity="0.5928"/><rect x="201" y="5989" width="16" height="16" fill="#e0f2fe" opacity="0.6864"/><rect x="280" y="6120" width="4" height="4" fill="#e0f2fe" opacity="0.31200000000000006"/><rect x="359" y="6251" width="7" height="7" fill="#e0f2fe" opacity="0.4056"/><rect x="438" y="6382" width="10" height="10" fill="#e0f2fe" opacity="0.49920000000000003"/><rect x="517" y="6513" width="13" height="13" fill="#e0f2fe" opacity="0.5928"/><rect x="596" y="6644" width="16" height="16" fill="#e0f2fe" opacity="0.6864"/><rect x="675" y="6775" width="4" height="4" fill="#e0f2fe" opacity="0.31200000000000006"/><rect x="94" y="6906" width="7" height="7" fill="#e0f2fe" opacity="0.4056"/><rect x="173" y="5929" width="10" height="10" fill="#e0f2fe" opacity="0.49920000000000003"/><rect x="252" y="6060" width="13" height="13" fill="#e0f2fe" opacity="0.5928"/><rect x="331" y="6191" width="16" height="16" fill="#e0f2fe" opacity="0.6864"/><rect x="410" y="6322" width="4" height="4" fill="#e0f2fe" opacity="0.31200000000000006"/><rect x="489" y="6453" width="7" height="7" fill="#e0f2fe" opacity="0.4056"/><rect x="568" y="6584" width="10" height="10" fill="#e0f2fe" opacity="0.49920000000000003"/><rect x="647" y="6715" width="13" height="13" fill="#e0f2fe" opacity="0.5928"/><rect x="66" y="6846" width="16" height="16" fill="#e0f2fe" opacity="0.6864"/><rect x="145" y="5869" width="4" height="4" fill="#e0f2fe" opacity="0.31200000000000006"/><rect x="224" y="6000" width="7" height="7" fill="#e0f2fe" opacity="0.4056"/><rect x="303" y="6131" width="10" height="10" fill="#e0f2fe" opacity="0.49920000000000003"/><rect x="382" y="6262" width="13" height="13" fill="#e0f2fe" opacity="0.5928"/><rect x="461" y="6393" width="16" height="16" fill="#e0f2fe" opacity="0.6864"/><g>
    <rect x="76" y="6786" width="300" height="86" rx="18" fill="#fff" stroke="#111" stroke-width="3"/>
    <text x="226" y="6816" font-size="20" text-anchor="middle" fill="#111" font-family="Arial, 'Malgun Gothic', sans-serif" font-weight="800">오늘은</text><text x="226" y="6844" font-size="20" text-anchor="middle" fill="#111" font-family="Arial, 'Malgun Gothic', sans-serif" font-weight="800">아니라고 했잖아.</text>
  </g><rect x="24" y="5804" width="250" height="42" rx="21" fill="rgba(255,255,255,.88)"/><text x="44" y="5832" font-size="17" fill="#111" font-family="Arial, 'Malgun Gothic', sans-serif" font-weight="800">09 햇빛 속 픽셀 먼지</text><rect x="34" y="6884" width="652" height="48" rx="14" fill="rgba(255,255,255,.84)"/><text x="360" y="6915" font-size="19" fill="#111" text-anchor="middle" font-family="Arial, 'Malgun Gothic', sans-serif" font-weight="700">밝은 데서도 새고 있었다.</text></g>
<g id="panel_10"><rect x="0" y="6960" width="720" height="540" fill="#faf2e6"/>
      <rect x="180" y="7172" width="360" height="116" rx="58" fill="#d7aa85" stroke="#111" stroke-width="4"/>
      <rect x="330" y="7205" width="32" height="26" fill="#7dd3fc"/>
      <rect x="370" y="7200" width="22" height="22" fill="#facc15"/>
      <rect x="400" y="7214" width="46" height="10" fill="#7dd3fc"/>
      <text x="360" y="7348" font-size="28" text-anchor="middle" fill="#e11d48" font-family="Arial, 'Malgun Gothic', sans-serif" font-weight="900">PIXEL</text><rect x="0" y="6960" width="720" height="540" fill="none" stroke="#111" stroke-width="4"/><rect x="24" y="6984" width="250" height="42" rx="21" fill="rgba(255,255,255,.88)"/><text x="44" y="7012" font-size="17" fill="#111" font-family="Arial, 'Malgun Gothic', sans-serif" font-weight="800">10 손목</text><text x="690" y="7018" font-size="25" text-anchor="end" fill="#111" font-family="Arial, 'Malgun Gothic', sans-serif" font-weight="900">삐----</text><rect x="34" y="7424" width="652" height="48" rx="14" fill="rgba(255,255,255,.84)"/><text x="360" y="7455" font-size="19" fill="#111" text-anchor="middle" font-family="Arial, 'Malgun Gothic', sans-serif" font-weight="700">피부 밑에 오래된 픽셀 무늬가 떠올랐다.</text></g>
<g id="panel_11"><rect x="0" y="7500" width="720" height="680" fill="#f4f7fb"/>
      <rect x="218" y="7590" width="284" height="500" rx="36" fill="#111"/>
      <rect x="242" y="7634" width="236" height="412" rx="12" fill="#fff"/>
      <rect x="264" y="7672" width="192" height="128" fill="#e9eef4"/>
      <text x="360" y="7758" font-size="24" text-anchor="middle" fill="#111" font-family="Arial, 'Malgun Gothic', sans-serif" font-weight="900">NO RECORD</text>
      <text x="360" y="7918" font-size="44" text-anchor="middle" fill="#9ca3af" font-family="Arial, 'Malgun Gothic', sans-serif" font-weight="900">REC X</text><rect x="0" y="7500" width="720" height="680" fill="none" stroke="#111" stroke-width="4"/><g>
    <rect x="76" y="8006" width="300" height="58" rx="18" fill="#fff" stroke="#111" stroke-width="3"/>
    <text x="226" y="8036" font-size="20" text-anchor="middle" fill="#111" font-family="Arial, 'Malgun Gothic', sans-serif" font-weight="800">또 안 찍혔네.</text>
  </g><rect x="24" y="7524" width="250" height="42" rx="21" fill="rgba(255,255,255,.88)"/><text x="44" y="7552" font-size="17" fill="#111" font-family="Arial, 'Malgun Gothic', sans-serif" font-weight="800">11 기록 실패</text><rect x="34" y="8104" width="652" height="48" rx="14" fill="rgba(255,255,255,.84)"/><text x="360" y="8135" font-size="19" fill="#111" text-anchor="middle" font-family="Arial, 'Malgun Gothic', sans-serif" font-weight="700">저장된 항목 없음</text></g>
<g id="panel_12"><rect x="0" y="8180" width="720" height="720" fill="#f4f7fb"/>
      <rect x="218" y="8290" width="284" height="500" rx="36" fill="#111"/>
      <rect x="242" y="8334" width="236" height="412" rx="12" fill="#fff"/>
      <rect x="264" y="8372" width="192" height="128" fill="#e9eef4"/>
      <text x="360" y="8458" font-size="24" text-anchor="middle" fill="#111" font-family="Arial, 'Malgun Gothic', sans-serif" font-weight="900">FILE RECEIVED</text>
      <text x="360" y="8618" font-size="58" text-anchor="middle" fill="#e11d48" font-family="Arial, 'Malgun Gothic', sans-serif" font-weight="900">02:17</text><rect x="0" y="8180" width="720" height="720" fill="none" stroke="#111" stroke-width="4"/><g>
    <rect x="96" y="8680" width="528" height="58" rx="18" fill="#fff" stroke="#111" stroke-width="3"/>
    <text x="360" y="8710" font-size="20" text-anchor="middle" fill="#111" font-family="Arial, 'Malgun Gothic', sans-serif" font-weight="800">폐역_제보영상_1999.mp4</text>
  </g><rect x="24" y="8204" width="250" height="42" rx="21" fill="rgba(255,255,255,.88)"/><text x="44" y="8232" font-size="17" fill="#111" font-family="Arial, 'Malgun Gothic', sans-serif" font-weight="800">12 파일 도착</text><rect x="34" y="8824" width="652" height="48" rx="14" fill="rgba(255,255,255,.84)"/><text x="360" y="8855" font-size="19" fill="#111" text-anchor="middle" font-family="Arial, 'Malgun Gothic', sans-serif" font-weight="700">썸네일 안에서 02:17이 한 번 깜빡였다.</text></g>
<g id="panel_13"><svg x="0" y="8900" width="720" height="840" viewBox="0 1365 864 456" preserveAspectRatio="xMidYMid slice">
    <image href="assets/prologue_ai_generated_sheet.png" x="0" y="0" width="864" height="1821"/>
  </svg><rect x="0" y="8900" width="720" height="840" fill="none" stroke="#111" stroke-width="4"/><g>
    <rect x="76" y="9566" width="300" height="58" rx="18" fill="#fff" stroke="#111" stroke-width="3"/>
    <text x="226" y="9596" font-size="20" text-anchor="middle" fill="#111" font-family="Arial, 'Malgun Gothic', sans-serif" font-weight="800">샜어.</text>
  </g><rect x="24" y="8924" width="250" height="42" rx="21" fill="rgba(255,255,255,.88)"/><text x="44" y="8952" font-size="17" fill="#111" font-family="Arial, 'Malgun Gothic', sans-serif" font-weight="800">13 정상적인 도시</text><rect x="34" y="9664" width="652" height="48" rx="14" fill="rgba(255,255,255,.84)"/><text x="360" y="9695" font-size="19" fill="#111" text-anchor="middle" font-family="Arial, 'Malgun Gothic', sans-serif" font-weight="700">사거리는 아무 일도 없었다는 듯 빛났다.</text></g>
<g id="panel_14"><rect x="0" y="9740" width="720" height="520" fill="#f8f8f4"/>
      <rect x="0" y="9962" width="720" height="78" fill="#fff"/>
      <path d="M70 10120 C210 10020 440 10040 650 9904" stroke="#d5d9df" stroke-width="66" opacity=".75"/>
      <text x="360" y="10018" font-size="66" text-anchor="middle" fill="#4b5563" font-family="Arial, 'Malgun Gothic', sans-serif" font-weight="900">...역</text><rect x="0" y="9740" width="720" height="520" fill="none" stroke="#111" stroke-width="4"/><g>
    <rect x="76" y="10086" width="300" height="58" rx="18" fill="#fff" stroke="#111" stroke-width="3"/>
    <text x="226" y="10116" font-size="20" text-anchor="middle" fill="#111" font-family="Arial, 'Malgun Gothic', sans-serif" font-weight="800">...역</text>
  </g><rect x="24" y="9764" width="250" height="42" rx="21" fill="rgba(255,255,255,.88)"/><text x="44" y="9792" font-size="17" fill="#111" font-family="Arial, 'Malgun Gothic', sans-serif" font-weight="800">14 잔상</text><rect x="34" y="10184" width="652" height="48" rx="14" fill="rgba(255,255,255,.84)"/><text x="360" y="10215" font-size="19" fill="#111" text-anchor="middle" font-family="Arial, 'Malgun Gothic', sans-serif" font-weight="700">횡단보도 아래에서 역명판 조각이 겹쳐 보였다.</text></g>
<g id="panel_15"><rect x="0" y="10260" width="720" height="360" fill="#fff"/>
      <text x="360" y="10414" font-size="88" text-anchor="middle" fill="#111" font-family="Arial, 'Malgun Gothic', sans-serif" font-weight="900">0</text>
      <text x="360" y="10506" font-size="34" text-anchor="middle" fill="#111" font-family="Arial, 'Malgun Gothic', sans-serif" font-weight="900">프롤로그 끝</text><rect x="0" y="10260" width="720" height="360" fill="none" stroke="#111" stroke-width="4"/><rect x="24" y="10284" width="250" height="42" rx="21" fill="rgba(255,255,255,.88)"/><text x="44" y="10312" font-size="17" fill="#111" font-family="Arial, 'Malgun Gothic', sans-serif" font-weight="800">15 프롤로그 끝</text><rect x="34" y="10544" width="652" height="48" rx="14" fill="rgba(255,255,255,.84)"/><text x="360" y="10575" font-size="19" fill="#111" text-anchor="middle" font-family="Arial, 'Malgun Gothic', sans-serif" font-weight="700">다음 파일을 열면, 사건이 시작된다.</text></g>
</svg>
