<svg xmlns="http://www.w3.org/2000/svg" width="720" height="10620" viewBox="0 0 720 10620">
  <title>프롤로그 최종 웹툰 SVG - 횡단보도 UI 누출</title>
  <desc>이미지 생성 모델로 만든 웹툰 시트를 기반으로 구성한 프롤로그 세로 스크롤 SVG.</desc>
  <rect width="720" height="10620" fill="#f3f4f6"/>
  <g id="panel_01"><svg x="0" y="0" width="720" height="760" viewBox="0 0 864 455" preserveAspectRatio="xMidYMid slice">
    <image href="assets/prologue_ai_generated_sheet.png" x="0" y="0" width="864" height="1821"/>
  </svg><rect x="0" y="0" width="720" height="760" fill="none" stroke="#111" stroke-width="4"/><rect x="26" y="26" width="236" height="42" rx="21" fill="rgba(255,255,255,.82)"/><text x="46" y="54" font-size="17" fill="#111" font-family="Arial, 'Malgun Gothic', sans-serif" font-weight="700">01 평일 오전, 사거리</text><text x="686" y="58" font-size="26" text-anchor="end" fill="#111" font-family="Arial, 'Malgun Gothic', sans-serif" font-weight="700">삑. 삑. 삑.</text></g>
<g id="panel_02"><svg x="0" y="760" width="720" height="720" viewBox="0 455 864 455" preserveAspectRatio="xMidYMid slice">
    <image href="assets/prologue_ai_generated_sheet.png" x="0" y="0" width="864" height="1821"/>
  </svg><rect x="0" y="760" width="720" height="720" fill="none" stroke="#111" stroke-width="4"/><rect x="26" y="786" width="236" height="42" rx="21" fill="rgba(255,255,255,.82)"/><text x="46" y="814" font-size="17" fill="#111" font-family="Arial, 'Malgun Gothic', sans-serif" font-weight="700">02 인파 속 한서윤</text><g>
    <rect x="350" y="1280" width="330" height="90" rx="18" fill="#fff" stroke="#111" stroke-width="3"/>
    <text x="515" y="1312" font-size="20" text-anchor="middle" fill="#111" font-family="Arial, 'Malgun Gothic', sans-serif" font-weight="700">서윤 씨, 회의 9시 반으로</text><text x="515" y="1337" font-size="20" text-anchor="middle" fill="#111" font-family="Arial, 'Malgun Gothic', sans-serif" font-weight="700">당겨졌어요.</text>
  </g><g>
    <rect x="74" y="1360" width="260" height="62" rx="18" fill="#fff" stroke="#111" stroke-width="3"/>
    <text x="204" y="1392" font-size="20" text-anchor="middle" fill="#111" font-family="Arial, 'Malgun Gothic', sans-serif" font-weight="700">알아요. 가는 중이에요.</text>
  </g></g>
<g id="panel_03"><rect x="0" y="1480" width="720" height="620" fill="#fffaf1"/><rect x="245" y="1666" width="230" height="164" rx="14" fill="#20242b"/>
      <circle cx="360" cy="1720" r="24" fill="#37d86f"/>
      <text x="360" y="1810" font-size="76" text-anchor="middle" fill="#7cff90" font-family="Arial, 'Malgun Gothic', sans-serif" font-weight="800">17</text>
      <text x="250" y="1908" font-size="34" text-anchor="middle" fill="#8aa391" font-family="Arial, 'Malgun Gothic', sans-serif" font-weight="700">16</text>
      <text x="470" y="1908" font-size="34" text-anchor="middle" fill="#8aa391" font-family="Arial, 'Malgun Gothic', sans-serif" font-weight="700">15</text><rect x="26" y="1506" width="236" height="42" rx="21" fill="rgba(255,255,255,.82)"/><text x="46" y="1534" font-size="17" fill="#111" font-family="Arial, 'Malgun Gothic', sans-serif" font-weight="700">03 정상 카운트다운</text><text x="686" y="1538" font-size="26" text-anchor="end" fill="#111" font-family="Arial, 'Malgun Gothic', sans-serif" font-weight="700">삑. 삑. 삑.</text></g>
<g id="panel_04"><svg x="0" y="2100" width="720" height="620" viewBox="0 0 864 455" preserveAspectRatio="xMidYMid slice">
    <image href="assets/prologue_ai_generated_sheet.png" x="0" y="0" width="864" height="1821"/>
  </svg><rect x="0" y="2100" width="720" height="620" fill="none" stroke="#111" stroke-width="4"/><rect x="26" y="2126" width="236" height="42" rx="21" fill="rgba(255,255,255,.82)"/><text x="46" y="2154" font-size="17" fill="#111" font-family="Arial, 'Malgun Gothic', sans-serif" font-weight="700">04 모두 같은 박자로 걷는다</text></g>
<g id="panel_05"><rect x="0" y="2720" width="720" height="360" fill="#fbf7ef"/><ellipse cx="360" cy="2900" rx="260" ry="90" fill="#f1d4bf" stroke="#111" stroke-width="4"/>
      <ellipse cx="360" cy="2900" rx="76" ry="76" fill="#46352d"/>
      <circle cx="382" cy="2876" r="18" fill="#fff"/>
      <path d="M138 2920 C260 2872 456 2872 584 2920" stroke="#fff" stroke-width="10" opacity=".55" fill="none"/><rect x="26" y="2746" width="236" height="42" rx="21" fill="rgba(255,255,255,.82)"/><text x="46" y="2774" font-size="17" fill="#111" font-family="Arial, 'Malgun Gothic', sans-serif" font-weight="700">05 눈이 먼저 반응한다</text><text x="686" y="2778" font-size="26" text-anchor="end" fill="#111" font-family="Arial, 'Malgun Gothic', sans-serif" font-weight="700">삑.</text></g>
<g id="panel_06"><svg x="0" y="3080" width="720" height="980" viewBox="0 910 864 455" preserveAspectRatio="xMidYMid slice">
    <image href="assets/prologue_ai_generated_sheet.png" x="0" y="0" width="864" height="1821"/>
  </svg><rect x="0" y="3080" width="720" height="980" fill="none" stroke="#111" stroke-width="4"/><rect x="38" y="3122" width="4" height="4" fill="#bdefff" opacity="0.296"/><rect x="121" y="3259" width="7" height="7" fill="#bdefff" opacity="0.41440000000000005"/><rect x="204" y="3396" width="10" height="10" fill="#bdefff" opacity="0.5327999999999999"/><rect x="287" y="3533" width="13" height="13" fill="#bdefff" opacity="0.6512"/><rect x="370" y="3670" width="16" height="16" fill="#bdefff" opacity="0.296"/><rect x="453" y="3807" width="4" height="4" fill="#bdefff" opacity="0.41440000000000005"/><rect x="536" y="3944" width="7" height="7" fill="#bdefff" opacity="0.5327999999999999"/><rect x="619" y="3181" width="10" height="10" fill="#bdefff" opacity="0.6512"/><rect x="52" y="3318" width="13" height="13" fill="#bdefff" opacity="0.296"/><rect x="135" y="3455" width="16" height="16" fill="#bdefff" opacity="0.41440000000000005"/><rect x="218" y="3592" width="4" height="4" fill="#bdefff" opacity="0.5327999999999999"/><rect x="301" y="3729" width="7" height="7" fill="#bdefff" opacity="0.6512"/><rect x="384" y="3866" width="10" height="10" fill="#bdefff" opacity="0.296"/><rect x="467" y="4003" width="13" height="13" fill="#bdefff" opacity="0.41440000000000005"/><rect x="550" y="3240" width="16" height="16" fill="#bdefff" opacity="0.5327999999999999"/><rect x="633" y="3377" width="4" height="4" fill="#bdefff" opacity="0.6512"/><rect x="66" y="3514" width="7" height="7" fill="#bdefff" opacity="0.296"/><rect x="149" y="3651" width="10" height="10" fill="#bdefff" opacity="0.41440000000000005"/><rect x="232" y="3788" width="13" height="13" fill="#bdefff" opacity="0.5327999999999999"/><rect x="315" y="3925" width="16" height="16" fill="#bdefff" opacity="0.6512"/><rect x="398" y="3162" width="4" height="4" fill="#bdefff" opacity="0.296"/><rect x="481" y="3299" width="7" height="7" fill="#bdefff" opacity="0.41440000000000005"/><rect x="564" y="3436" width="10" height="10" fill="#bdefff" opacity="0.5327999999999999"/><rect x="647" y="3573" width="13" height="13" fill="#bdefff" opacity="0.6512"/><rect x="80" y="3710" width="16" height="16" fill="#bdefff" opacity="0.296"/><rect x="163" y="3847" width="4" height="4" fill="#bdefff" opacity="0.41440000000000005"/><rect x="246" y="3984" width="7" height="7" fill="#bdefff" opacity="0.5327999999999999"/><rect x="329" y="3221" width="10" height="10" fill="#bdefff" opacity="0.6512"/><rect x="412" y="3358" width="13" height="13" fill="#bdefff" opacity="0.296"/><rect x="495" y="3495" width="16" height="16" fill="#bdefff" opacity="0.41440000000000005"/><rect x="578" y="3632" width="4" height="4" fill="#bdefff" opacity="0.5327999999999999"/><rect x="661" y="3769" width="7" height="7" fill="#bdefff" opacity="0.6512"/><rect x="94" y="3906" width="10" height="10" fill="#bdefff" opacity="0.296"/><rect x="177" y="3143" width="13" height="13" fill="#bdefff" opacity="0.41440000000000005"/><rect x="260" y="3280" width="16" height="16" fill="#bdefff" opacity="0.5327999999999999"/><rect x="343" y="3417" width="4" height="4" fill="#bdefff" opacity="0.6512"/><rect x="426" y="3554" width="7" height="7" fill="#bdefff" opacity="0.296"/><rect x="509" y="3691" width="10" height="10" fill="#bdefff" opacity="0.41440000000000005"/><rect x="592" y="3828" width="13" height="13" fill="#bdefff" opacity="0.5327999999999999"/><rect x="675" y="3965" width="16" height="16" fill="#bdefff" opacity="0.6512"/><rect x="108" y="3202" width="4" height="4" fill="#bdefff" opacity="0.296"/><rect x="191" y="3339" width="7" height="7" fill="#bdefff" opacity="0.41440000000000005"/><rect x="274" y="3476" width="10" height="10" fill="#bdefff" opacity="0.5327999999999999"/><rect x="357" y="3613" width="13" height="13" fill="#bdefff" opacity="0.6512"/><path d="M420 3200 l84 30 l-64 32 l96 22 l-110 40 l78 28" fill="none" stroke="#ffffff" stroke-width="6" opacity=".75"/><path d="M426 3208 l84 30 l-64 32 l96 22 l-110 40 l78 28" fill="none" stroke="#48b7ff" stroke-width="3" opacity=".55"/><rect x="26" y="3106" width="236" height="42" rx="21" fill="rgba(255,255,255,.82)"/><text x="46" y="3134" font-size="17" fill="#111" font-family="Arial, 'Malgun Gothic', sans-serif" font-weight="700">06 한 박자 늦는 남자</text><g>
    <rect x="68" y="3900" width="340" height="62" rx="18" fill="#fff" stroke="#111" stroke-width="3"/>
    <text x="238" y="3932" font-size="20" text-anchor="middle" fill="#111" font-family="Arial, 'Malgun Gothic', sans-serif" font-weight="700">아니.</text>
  </g></g>
<g id="panel_07"><rect x="0" y="4060" width="720" height="260" fill="#ffffff"/><rect x="0" y="4060" width="720" height="260" fill="#fff" opacity=".94"/>
      <rect x="38" y="4102" width="4" height="4" fill="#aeeaff" opacity="0.22000000000000003"/><rect x="121" y="4239" width="7" height="7" fill="#aeeaff" opacity="0.30800000000000005"/><rect x="204" y="4196" width="10" height="10" fill="#aeeaff" opacity="0.396"/><rect x="287" y="4153" width="13" height="13" fill="#aeeaff" opacity="0.48400000000000004"/><rect x="370" y="4110" width="16" height="16" fill="#aeeaff" opacity="0.22000000000000003"/><rect x="453" y="4247" width="4" height="4" fill="#aeeaff" opacity="0.30800000000000005"/><rect x="536" y="4204" width="7" height="7" fill="#aeeaff" opacity="0.396"/><rect x="619" y="4161" width="10" height="10" fill="#aeeaff" opacity="0.48400000000000004"/><rect x="52" y="4118" width="13" height="13" fill="#aeeaff" opacity="0.22000000000000003"/><rect x="135" y="4255" width="16" height="16" fill="#aeeaff" opacity="0.30800000000000005"/><rect x="218" y="4212" width="4" height="4" fill="#aeeaff" opacity="0.396"/><rect x="301" y="4169" width="7" height="7" fill="#aeeaff" opacity="0.48400000000000004"/><rect x="384" y="4126" width="10" height="10" fill="#aeeaff" opacity="0.22000000000000003"/><rect x="467" y="4263" width="13" height="13" fill="#aeeaff" opacity="0.30800000000000005"/><rect x="550" y="4220" width="16" height="16" fill="#aeeaff" opacity="0.396"/><rect x="633" y="4177" width="4" height="4" fill="#aeeaff" opacity="0.48400000000000004"/><rect x="66" y="4134" width="7" height="7" fill="#aeeaff" opacity="0.22000000000000003"/><rect x="149" y="4271" width="10" height="10" fill="#aeeaff" opacity="0.30800000000000005"/><rect x="232" y="4228" width="13" height="13" fill="#aeeaff" opacity="0.396"/><rect x="315" y="4185" width="16" height="16" fill="#aeeaff" opacity="0.48400000000000004"/><rect x="398" y="4142" width="4" height="4" fill="#aeeaff" opacity="0.22000000000000003"/><rect x="481" y="4279" width="7" height="7" fill="#aeeaff" opacity="0.30800000000000005"/><rect x="564" y="4236" width="10" height="10" fill="#aeeaff" opacity="0.396"/><rect x="647" y="4193" width="13" height="13" fill="#aeeaff" opacity="0.48400000000000004"/><rect x="80" y="4150" width="16" height="16" fill="#aeeaff" opacity="0.22000000000000003"/><rect x="163" y="4107" width="4" height="4" fill="#aeeaff" opacity="0.30800000000000005"/>
      <text x="360" y="4222" font-size="82" text-anchor="middle" fill="#111" font-family="Arial, 'Malgun Gothic', sans-serif" font-weight="900">02:17</text><rect x="26" y="4086" width="236" height="42" rx="21" fill="rgba(255,255,255,.82)"/><text x="46" y="4114" font-size="17" fill="#111" font-family="Arial, 'Malgun Gothic', sans-serif" font-weight="700">07 02:17</text><text x="686" y="4118" font-size="26" text-anchor="end" fill="#111" font-family="Arial, 'Malgun Gothic', sans-serif" font-weight="700">무음</text></g>
<g id="panel_white_01"><rect x="0" y="4320" width="720" height="780" fill="#fffdf4"/><radialGradient id="whiteGlow" cx="50%" cy="40%" r="60%"><stop offset="0%" stop-color="#fff"/><stop offset="100%" stop-color="#fff6d8"/></radialGradient><rect x="0" y="4320" width="720" height="780" fill="url(#whiteGlow)"/><rect x="38" y="4362" width="4" height="4" fill="#f8d77a" opacity="0.144"/><rect x="121" y="4499" width="7" height="7" fill="#f8d77a" opacity="0.2016"/><rect x="204" y="4636" width="10" height="10" fill="#f8d77a" opacity="0.2592"/><rect x="287" y="4773" width="13" height="13" fill="#f8d77a" opacity="0.31679999999999997"/><rect x="370" y="4910" width="16" height="16" fill="#f8d77a" opacity="0.144"/><rect x="453" y="5047" width="4" height="4" fill="#f8d77a" opacity="0.2016"/><rect x="536" y="4484" width="7" height="7" fill="#f8d77a" opacity="0.2592"/><rect x="619" y="4621" width="10" height="10" fill="#f8d77a" opacity="0.31679999999999997"/><rect x="52" y="4758" width="13" height="13" fill="#f8d77a" opacity="0.144"/><rect x="135" y="4895" width="16" height="16" fill="#f8d77a" opacity="0.2016"/><rect x="218" y="5032" width="4" height="4" fill="#f8d77a" opacity="0.2592"/><rect x="301" y="4469" width="7" height="7" fill="#f8d77a" opacity="0.31679999999999997"/><rect x="384" y="4606" width="10" height="10" fill="#f8d77a" opacity="0.144"/><rect x="467" y="4743" width="13" height="13" fill="#f8d77a" opacity="0.2016"/><rect x="550" y="4880" width="16" height="16" fill="#f8d77a" opacity="0.2592"/><rect x="633" y="5017" width="4" height="4" fill="#f8d77a" opacity="0.31679999999999997"/><rect x="66" y="4454" width="7" height="7" fill="#f8d77a" opacity="0.144"/><rect x="149" y="4591" width="10" height="10" fill="#f8d77a" opacity="0.2016"/><rect x="232" y="4728" width="13" height="13" fill="#f8d77a" opacity="0.2592"/><rect x="315" y="4865" width="16" height="16" fill="#f8d77a" opacity="0.31679999999999997"/><rect x="398" y="5002" width="4" height="4" fill="#f8d77a" opacity="0.144"/><rect x="481" y="4439" width="7" height="7" fill="#f8d77a" opacity="0.2016"/><rect x="564" y="4576" width="10" height="10" fill="#f8d77a" opacity="0.2592"/><rect x="647" y="4713" width="13" height="13" fill="#f8d77a" opacity="0.31679999999999997"/><rect x="80" y="4850" width="16" height="16" fill="#f8d77a" opacity="0.144"/><rect x="163" y="4987" width="4" height="4" fill="#f8d77a" opacity="0.2016"/><rect x="246" y="4424" width="7" height="7" fill="#f8d77a" opacity="0.2592"/><rect x="329" y="4561" width="10" height="10" fill="#f8d77a" opacity="0.31679999999999997"/><rect x="412" y="4698" width="13" height="13" fill="#f8d77a" opacity="0.144"/><rect x="495" y="4835" width="16" height="16" fill="#f8d77a" opacity="0.2016"/><rect x="578" y="4972" width="4" height="4" fill="#f8d77a" opacity="0.2592"/><rect x="661" y="4409" width="7" height="7" fill="#f8d77a" opacity="0.31679999999999997"/><rect x="94" y="4546" width="10" height="10" fill="#f8d77a" opacity="0.144"/><rect x="177" y="4683" width="13" height="13" fill="#f8d77a" opacity="0.2016"/><rect x="260" y="4820" width="16" height="16" fill="#f8d77a" opacity="0.2592"/><rect x="343" y="4957" width="4" height="4" fill="#f8d77a" opacity="0.31679999999999997"/><rect x="426" y="4394" width="7" height="7" fill="#f8d77a" opacity="0.144"/><rect x="509" y="4531" width="10" height="10" fill="#f8d77a" opacity="0.2016"/><rect x="592" y="4668" width="13" height="13" fill="#f8d77a" opacity="0.2592"/><rect x="675" y="4805" width="16" height="16" fill="#f8d77a" opacity="0.31679999999999997"/><rect x="108" y="4942" width="4" height="4" fill="#f8d77a" opacity="0.144"/><rect x="191" y="4379" width="7" height="7" fill="#f8d77a" opacity="0.2016"/><rect x="274" y="4516" width="10" height="10" fill="#f8d77a" opacity="0.2592"/><rect x="357" y="4653" width="13" height="13" fill="#f8d77a" opacity="0.31679999999999997"/><rect x="440" y="4790" width="16" height="16" fill="#f8d77a" opacity="0.144"/><rect x="523" y="4927" width="4" height="4" fill="#f8d77a" opacity="0.2016"/><rect x="606" y="4364" width="7" height="7" fill="#f8d77a" opacity="0.2592"/><rect x="39" y="4501" width="10" height="10" fill="#f8d77a" opacity="0.31679999999999997"/><rect x="122" y="4638" width="13" height="13" fill="#f8d77a" opacity="0.144"/><rect x="205" y="4775" width="16" height="16" fill="#f8d77a" opacity="0.2016"/><rect x="288" y="4912" width="4" height="4" fill="#f8d77a" opacity="0.2592"/><rect x="371" y="5049" width="7" height="7" fill="#f8d77a" opacity="0.31679999999999997"/><rect x="454" y="4486" width="10" height="10" fill="#f8d77a" opacity="0.144"/><rect x="537" y="4623" width="13" height="13" fill="#f8d77a" opacity="0.2016"/><rect x="620" y="4760" width="16" height="16" fill="#f8d77a" opacity="0.2592"/><rect x="53" y="4897" width="4" height="4" fill="#f8d77a" opacity="0.31679999999999997"/><rect x="136" y="5034" width="7" height="7" fill="#f8d77a" opacity="0.144"/><rect x="219" y="4471" width="10" height="10" fill="#f8d77a" opacity="0.2016"/><rect x="302" y="4608" width="13" height="13" fill="#f8d77a" opacity="0.2592"/><rect x="385" y="4745" width="16" height="16" fill="#f8d77a" opacity="0.31679999999999997"/></g>
<g id="panel_08"><svg x="0" y="5100" width="720" height="680" viewBox="0 0 864 455" preserveAspectRatio="xMidYMid slice">
    <image href="assets/prologue_ai_generated_sheet.png" x="0" y="0" width="864" height="1821"/>
  </svg><rect x="0" y="5100" width="720" height="680" fill="none" stroke="#111" stroke-width="4"/><rect x="26" y="5126" width="236" height="42" rx="21" fill="rgba(255,255,255,.82)"/><text x="46" y="5154" font-size="17" fill="#111" font-family="Arial, 'Malgun Gothic', sans-serif" font-weight="700">08 아무도 못 봤다</text><g>
    <rect x="400" y="5230" width="190" height="62" rx="18" fill="#fff" stroke="#111" stroke-width="3"/>
    <text x="495" y="5262" font-size="20" text-anchor="middle" fill="#111" font-family="Arial, 'Malgun Gothic', sans-serif" font-weight="700">저기요.</text>
  </g><g>
    <rect x="84" y="5558" width="190" height="62" rx="18" fill="#fff" stroke="#111" stroke-width="3"/>
    <text x="179" y="5590" font-size="20" text-anchor="middle" fill="#111" font-family="Arial, 'Malgun Gothic', sans-serif" font-weight="700">방금...</text>
  </g></g>
<g id="panel_09"><svg x="0" y="5780" width="720" height="1180" viewBox="0 1365 864 456" preserveAspectRatio="xMidYMid slice">
    <image href="assets/prologue_ai_generated_sheet.png" x="0" y="0" width="864" height="1821"/>
  </svg><rect x="0" y="5780" width="720" height="1180" fill="none" stroke="#111" stroke-width="4"/><rect x="0" y="5780" width="720" height="1180" fill="#fff7d6" opacity=".18"/><rect x="38" y="5822" width="4" height="4" fill="#e6f7ff" opacity="0.328"/><rect x="121" y="5959" width="7" height="7" fill="#e6f7ff" opacity="0.4592"/><rect x="204" y="6096" width="10" height="10" fill="#e6f7ff" opacity="0.5903999999999999"/><rect x="287" y="6233" width="13" height="13" fill="#e6f7ff" opacity="0.7215999999999999"/><rect x="370" y="6370" width="16" height="16" fill="#e6f7ff" opacity="0.328"/><rect x="453" y="6507" width="4" height="4" fill="#e6f7ff" opacity="0.4592"/><rect x="536" y="6644" width="7" height="7" fill="#e6f7ff" opacity="0.5903999999999999"/><rect x="619" y="6781" width="10" height="10" fill="#e6f7ff" opacity="0.7215999999999999"/><rect x="52" y="6918" width="13" height="13" fill="#e6f7ff" opacity="0.328"/><rect x="135" y="5955" width="16" height="16" fill="#e6f7ff" opacity="0.4592"/><rect x="218" y="6092" width="4" height="4" fill="#e6f7ff" opacity="0.5903999999999999"/><rect x="301" y="6229" width="7" height="7" fill="#e6f7ff" opacity="0.7215999999999999"/><rect x="384" y="6366" width="10" height="10" fill="#e6f7ff" opacity="0.328"/><rect x="467" y="6503" width="13" height="13" fill="#e6f7ff" opacity="0.4592"/><rect x="550" y="6640" width="16" height="16" fill="#e6f7ff" opacity="0.5903999999999999"/><rect x="633" y="6777" width="4" height="4" fill="#e6f7ff" opacity="0.7215999999999999"/><rect x="66" y="6914" width="7" height="7" fill="#e6f7ff" opacity="0.328"/><rect x="149" y="5951" width="10" height="10" fill="#e6f7ff" opacity="0.4592"/><rect x="232" y="6088" width="13" height="13" fill="#e6f7ff" opacity="0.5903999999999999"/><rect x="315" y="6225" width="16" height="16" fill="#e6f7ff" opacity="0.7215999999999999"/><rect x="398" y="6362" width="4" height="4" fill="#e6f7ff" opacity="0.328"/><rect x="481" y="6499" width="7" height="7" fill="#e6f7ff" opacity="0.4592"/><rect x="564" y="6636" width="10" height="10" fill="#e6f7ff" opacity="0.5903999999999999"/><rect x="647" y="6773" width="13" height="13" fill="#e6f7ff" opacity="0.7215999999999999"/><rect x="80" y="6910" width="16" height="16" fill="#e6f7ff" opacity="0.328"/><rect x="163" y="5947" width="4" height="4" fill="#e6f7ff" opacity="0.4592"/><rect x="246" y="6084" width="7" height="7" fill="#e6f7ff" opacity="0.5903999999999999"/><rect x="329" y="6221" width="10" height="10" fill="#e6f7ff" opacity="0.7215999999999999"/><rect x="412" y="6358" width="13" height="13" fill="#e6f7ff" opacity="0.328"/><rect x="495" y="6495" width="16" height="16" fill="#e6f7ff" opacity="0.4592"/><rect x="578" y="6632" width="4" height="4" fill="#e6f7ff" opacity="0.5903999999999999"/><rect x="661" y="6769" width="7" height="7" fill="#e6f7ff" opacity="0.7215999999999999"/><rect x="94" y="6906" width="10" height="10" fill="#e6f7ff" opacity="0.328"/><rect x="177" y="5943" width="13" height="13" fill="#e6f7ff" opacity="0.4592"/><rect x="260" y="6080" width="16" height="16" fill="#e6f7ff" opacity="0.5903999999999999"/><rect x="343" y="6217" width="4" height="4" fill="#e6f7ff" opacity="0.7215999999999999"/><rect x="426" y="6354" width="7" height="7" fill="#e6f7ff" opacity="0.328"/><rect x="509" y="6491" width="10" height="10" fill="#e6f7ff" opacity="0.4592"/><rect x="592" y="6628" width="13" height="13" fill="#e6f7ff" opacity="0.5903999999999999"/><rect x="675" y="6765" width="16" height="16" fill="#e6f7ff" opacity="0.7215999999999999"/><rect x="108" y="6902" width="4" height="4" fill="#e6f7ff" opacity="0.328"/><rect x="191" y="5939" width="7" height="7" fill="#e6f7ff" opacity="0.4592"/><rect x="274" y="6076" width="10" height="10" fill="#e6f7ff" opacity="0.5903999999999999"/><rect x="357" y="6213" width="13" height="13" fill="#e6f7ff" opacity="0.7215999999999999"/><rect x="440" y="6350" width="16" height="16" fill="#e6f7ff" opacity="0.328"/><rect x="523" y="6487" width="4" height="4" fill="#e6f7ff" opacity="0.4592"/><rect x="606" y="6624" width="7" height="7" fill="#e6f7ff" opacity="0.5903999999999999"/><rect x="39" y="6761" width="10" height="10" fill="#e6f7ff" opacity="0.7215999999999999"/><rect x="122" y="6898" width="13" height="13" fill="#e6f7ff" opacity="0.328"/><rect x="205" y="5935" width="16" height="16" fill="#e6f7ff" opacity="0.4592"/><rect x="288" y="6072" width="4" height="4" fill="#e6f7ff" opacity="0.5903999999999999"/><rect x="371" y="6209" width="7" height="7" fill="#e6f7ff" opacity="0.7215999999999999"/><rect x="454" y="6346" width="10" height="10" fill="#e6f7ff" opacity="0.328"/><rect x="537" y="6483" width="13" height="13" fill="#e6f7ff" opacity="0.4592"/><rect x="620" y="6620" width="16" height="16" fill="#e6f7ff" opacity="0.5903999999999999"/><rect x="53" y="6757" width="4" height="4" fill="#e6f7ff" opacity="0.7215999999999999"/><rect x="136" y="6894" width="7" height="7" fill="#e6f7ff" opacity="0.328"/><rect x="219" y="5931" width="10" height="10" fill="#e6f7ff" opacity="0.4592"/><rect x="302" y="6068" width="13" height="13" fill="#e6f7ff" opacity="0.5903999999999999"/><rect x="385" y="6205" width="16" height="16" fill="#e6f7ff" opacity="0.7215999999999999"/><rect x="468" y="6342" width="4" height="4" fill="#e6f7ff" opacity="0.328"/><rect x="551" y="6479" width="7" height="7" fill="#e6f7ff" opacity="0.4592"/><rect x="634" y="6616" width="10" height="10" fill="#e6f7ff" opacity="0.5903999999999999"/><rect x="67" y="6753" width="13" height="13" fill="#e6f7ff" opacity="0.7215999999999999"/><rect x="150" y="6890" width="16" height="16" fill="#e6f7ff" opacity="0.328"/><rect x="233" y="5927" width="4" height="4" fill="#e6f7ff" opacity="0.4592"/><rect x="316" y="6064" width="7" height="7" fill="#e6f7ff" opacity="0.5903999999999999"/><rect x="399" y="6201" width="10" height="10" fill="#e6f7ff" opacity="0.7215999999999999"/><rect x="482" y="6338" width="13" height="13" fill="#e6f7ff" opacity="0.328"/><rect x="565" y="6475" width="16" height="16" fill="#e6f7ff" opacity="0.4592"/><rect x="648" y="6612" width="4" height="4" fill="#e6f7ff" opacity="0.5903999999999999"/><rect x="81" y="6749" width="7" height="7" fill="#e6f7ff" opacity="0.7215999999999999"/><rect x="164" y="6886" width="10" height="10" fill="#e6f7ff" opacity="0.328"/><rect x="247" y="5923" width="13" height="13" fill="#e6f7ff" opacity="0.4592"/><rect x="330" y="6060" width="16" height="16" fill="#e6f7ff" opacity="0.5903999999999999"/><rect x="413" y="6197" width="4" height="4" fill="#e6f7ff" opacity="0.7215999999999999"/><rect x="496" y="6334" width="7" height="7" fill="#e6f7ff" opacity="0.328"/><rect x="579" y="6471" width="10" height="10" fill="#e6f7ff" opacity="0.4592"/><rect x="662" y="6608" width="13" height="13" fill="#e6f7ff" opacity="0.5903999999999999"/><rect x="95" y="6745" width="16" height="16" fill="#e6f7ff" opacity="0.7215999999999999"/><rect x="26" y="5806" width="236" height="42" rx="21" fill="rgba(255,255,255,.82)"/><text x="46" y="5834" font-size="17" fill="#111" font-family="Arial, 'Malgun Gothic', sans-serif" font-weight="700">09 햇빛 속 픽셀 먼지</text><g>
    <rect x="68" y="6800" width="340" height="62" rx="18" fill="#fff" stroke="#111" stroke-width="3"/>
    <text x="238" y="6832" font-size="20" text-anchor="middle" fill="#111" font-family="Arial, 'Malgun Gothic', sans-serif" font-weight="700">오늘은 아니라고 했잖아.</text>
  </g></g>
<g id="panel_10"><rect x="0" y="6960" width="720" height="540" fill="#faf3e7"/><rect x="205" y="7178" width="310" height="104" rx="52" fill="#d8ad88" stroke="#111" stroke-width="4"/>
      <rect x="334" y="7204" width="26" height="26" fill="#95d9ff"/>
      <rect x="366" y="7208" width="18" height="18" fill="#ffd166"/>
      <rect x="390" y="7200" width="34" height="10" fill="#95d9ff"/>
      <text x="360" y="7338" font-size="26" text-anchor="middle" fill="#e63946" font-family="Arial, 'Malgun Gothic', sans-serif" font-weight="800">PIXEL</text><rect x="26" y="6986" width="236" height="42" rx="21" fill="rgba(255,255,255,.82)"/><text x="46" y="7014" font-size="17" fill="#111" font-family="Arial, 'Malgun Gothic', sans-serif" font-weight="700">10 손목의 픽셀 무늬</text><text x="686" y="7018" font-size="26" text-anchor="end" fill="#111" font-family="Arial, 'Malgun Gothic', sans-serif" font-weight="700">삐----</text></g>
<g id="panel_11"><rect x="0" y="7500" width="720" height="680" fill="#f5f7fb"/><rect x="218" y="7590" width="284" height="500" rx="36" fill="#111"/>
      <rect x="242" y="7634" width="236" height="412" rx="12" fill="#fff"/>
      <rect x="264" y="7672" width="192" height="128" fill="#e9eef4"/>
      <text x="360" y="7762" font-size="20" text-anchor="middle" fill="#111" font-family="Arial, 'Malgun Gothic', sans-serif" font-weight="700">저장된 항목 없음</text>
      
      <text x="360" y="7914" font-size="42" text-anchor="middle" fill="#9ca3af" font-family="Arial, 'Malgun Gothic', sans-serif" font-weight="900">REC X</text><rect x="26" y="7526" width="236" height="42" rx="21" fill="rgba(255,255,255,.82)"/><text x="46" y="7554" font-size="17" fill="#111" font-family="Arial, 'Malgun Gothic', sans-serif" font-weight="700">11 카메라에는 없다</text><g>
    <rect x="68" y="8020" width="340" height="62" rx="18" fill="#fff" stroke="#111" stroke-width="3"/>
    <text x="238" y="8052" font-size="20" text-anchor="middle" fill="#111" font-family="Arial, 'Malgun Gothic', sans-serif" font-weight="700">또 안 찍혔네.</text>
  </g></g>
<g id="panel_12"><rect x="0" y="8180" width="720" height="720" fill="#f5f7fb"/><rect x="218" y="8290" width="284" height="500" rx="36" fill="#111"/>
      <rect x="242" y="8334" width="236" height="412" rx="12" fill="#fff"/>
      <rect x="264" y="8372" width="192" height="128" fill="#e9eef4"/>
      <text x="360" y="8462" font-size="20" text-anchor="middle" fill="#111" font-family="Arial, 'Malgun Gothic', sans-serif" font-weight="700">폐역_제보영상_1999.mp4</text>
      <text x="360" y="8614" font-size="56" text-anchor="middle" fill="#e63946" font-family="Arial, 'Malgun Gothic', sans-serif" font-weight="900">02:17</text>
      <rect x="26" y="8206" width="236" height="42" rx="21" fill="rgba(255,255,255,.82)"/><text x="46" y="8234" font-size="17" fill="#111" font-family="Arial, 'Malgun Gothic', sans-serif" font-weight="700">12 폐역 제보 영상</text><g>
    <rect x="112" y="8700" width="500" height="62" rx="18" fill="#fff" stroke="#111" stroke-width="3"/>
    <text x="362" y="8732" font-size="20" text-anchor="middle" fill="#111" font-family="Arial, 'Malgun Gothic', sans-serif" font-weight="700">폐역_제보영상_1999.mp4</text>
  </g></g>
<g id="panel_13"><svg x="0" y="8900" width="720" height="840" viewBox="0 1365 864 456" preserveAspectRatio="xMidYMid slice">
    <image href="assets/prologue_ai_generated_sheet.png" x="0" y="0" width="864" height="1821"/>
  </svg><rect x="0" y="8900" width="720" height="840" fill="none" stroke="#111" stroke-width="4"/><rect x="26" y="8926" width="236" height="42" rx="21" fill="rgba(255,255,255,.82)"/><text x="46" y="8954" font-size="17" fill="#111" font-family="Arial, 'Malgun Gothic', sans-serif" font-weight="700">13 도시는 정상이다</text><g>
    <rect x="68" y="9580" width="340" height="62" rx="18" fill="#fff" stroke="#111" stroke-width="3"/>
    <text x="238" y="9612" font-size="20" text-anchor="middle" fill="#111" font-family="Arial, 'Malgun Gothic', sans-serif" font-weight="700">샜어.</text>
  </g></g>
<g id="panel_14"><rect x="0" y="9740" width="720" height="520" fill="#f8f8f4"/><rect x="0" y="9962" width="720" height="78" fill="#ffffff"/>
      <path d="M70 10120 C210 10020 440 10040 650 9904" stroke="#d5d9df" stroke-width="66" opacity=".75"/>
      <text x="360" y="10016" font-size="64" text-anchor="middle" fill="#49515c" font-family="Arial, 'Malgun Gothic', sans-serif" font-weight="900">...역</text><rect x="26" y="9766" width="236" height="42" rx="21" fill="rgba(255,255,255,.82)"/><text x="46" y="9794" font-size="17" fill="#111" font-family="Arial, 'Malgun Gothic', sans-serif" font-weight="700">14 역명 잔상</text><g>
    <rect x="68" y="10100" width="340" height="62" rx="18" fill="#fff" stroke="#111" stroke-width="3"/>
    <text x="238" y="10132" font-size="20" text-anchor="middle" fill="#111" font-family="Arial, 'Malgun Gothic', sans-serif" font-weight="700">...역</text>
  </g></g>
<g id="panel_15"><rect x="0" y="10260" width="720" height="360" fill="#fff"/><text x="360" y="10422" font-size="88" text-anchor="middle" fill="#111" font-family="Arial, 'Malgun Gothic', sans-serif" font-weight="900">0</text><text x="360" y="10512" font-size="30" text-anchor="middle" fill="#111" font-family="Arial, 'Malgun Gothic', sans-serif" font-weight="800">프롤로그 끝</text><rect x="26" y="10286" width="236" height="42" rx="21" fill="rgba(255,255,255,.82)"/><text x="46" y="10314" font-size="17" fill="#111" font-family="Arial, 'Malgun Gothic', sans-serif" font-weight="700">15 프롤로그 끝</text></g>
</svg>
