<?xml version="1.0" encoding="UTF-8"?>
<svg xmlns="http://www.w3.org/2000/svg" width="720" height="500" viewBox="0 0 720 500">
  <title>EP01 07 서윤 눈 클로즈업</title>
  <rect width="720" height="500" fill="#fff"/><rect x="10" y="10" width="700" height="480" fill="none" stroke="#111" stroke-width="4"/>
  <g opacity="0.92">
    <rect x="18" y="18" width="260" height="64" fill="#fff" stroke="#111" stroke-width="2"/>
    <text x="34" y="44" font-size="20" font-weight="700" font-family="Arial, 'Malgun Gothic', sans-serif">CUT 07</text>
    <text x="34" y="68" font-size="15" font-family="Arial, 'Malgun Gothic', sans-serif">폴리리듬 / 500px</text>
  </g><ellipse cx="360" cy="250" rx="260" ry="120" fill="#fff" stroke="#111" stroke-width="6"/><circle cx="360" cy="250" r="74" fill="#fff" stroke="#111" stroke-width="5"/><circle cx="360" cy="250" r="28" fill="#111"/>
<line x1="272" y1="190" x2="292" y2="310" stroke="#111" stroke-width="2" opacity="0.65"/>
<line x1="289" y1="190" x2="305" y2="310" stroke="#111" stroke-width="3" opacity="0.65"/>
<line x1="306" y1="190" x2="318" y2="310" stroke="#111" stroke-width="4" opacity="0.65"/>
<line x1="323" y1="190" x2="331" y2="310" stroke="#111" stroke-width="2" opacity="0.65"/>
<line x1="340" y1="190" x2="344" y2="310" stroke="#111" stroke-width="3" opacity="0.65"/>
<line x1="357" y1="190" x2="357" y2="310" stroke="#111" stroke-width="4" opacity="0.65"/>
<line x1="374" y1="190" x2="370" y2="310" stroke="#111" stroke-width="2" opacity="0.65"/>
<line x1="391" y1="190" x2="383" y2="310" stroke="#111" stroke-width="3" opacity="0.65"/>
<line x1="408" y1="190" x2="396" y2="310" stroke="#111" stroke-width="4" opacity="0.65"/>
<line x1="425" y1="190" x2="409" y2="310" stroke="#111" stroke-width="2" opacity="0.65"/>
<line x1="442" y1="190" x2="422" y2="310" stroke="#111" stroke-width="3" opacity="0.65"/><text x="360" y="458" font-size="20" text-anchor="middle" fill="#111" font-family="Arial, 'Malgun Gothic', sans-serif">서윤</text>
<text x="360" y="486" font-size="20" text-anchor="middle" fill="#111" font-family="Arial, 'Malgun Gothic', sans-serif">눈</text>
<text x="360" y="514" font-size="20" text-anchor="middle" fill="#111" font-family="Arial, 'Malgun Gothic', sans-serif">클로즈업</text>
</svg>
