<?xml version="1.0" encoding="UTF-8"?>
<svg xmlns="http://www.w3.org/2000/svg" width="720" height="800" viewBox="0 0 720 800">
  <title>EP01 01 늦은 밤 지하철, 서윤 전신</title>
  <rect width="720" height="800" fill="#fff"/><rect x="10" y="10" width="700" height="780" fill="none" stroke="#111" stroke-width="4"/>
  <g opacity="0.92">
    <rect x="18" y="18" width="260" height="64" fill="#fff" stroke="#111" stroke-width="2"/>
    <text x="34" y="44" font-size="20" font-weight="700" font-family="Arial, 'Malgun Gothic', sans-serif">CUT 01</text>
    <text x="34" y="68" font-size="15" font-family="Arial, 'Malgun Gothic', sans-serif">정박 / 800px</text>
  </g>
  <rect x="42" y="120" width="636" height="590" fill="#f8f8f8" stroke="#111" stroke-width="4"/>
  <line x1="42" y1="210" x2="678" y2="210" stroke="#111" stroke-width="3"/>
  <line x1="42" y1="630" x2="678" y2="630" stroke="#111" stroke-width="3"/>
  <rect x="116" y="250" width="120" height="64" fill="#e9e9e9" stroke="#111" stroke-width="3"/>
  <rect x="246" y="250" width="120" height="64" fill="#e9e9e9" stroke="#111" stroke-width="3"/>
  <rect x="376" y="250" width="120" height="64" fill="#e9e9e9" stroke="#111" stroke-width="3"/>
  <rect x="506" y="250" width="120" height="64" fill="#e9e9e9" stroke="#111" stroke-width="3"/>
  <line x1="360" y1="120" x2="360" y2="630" stroke="#111" stroke-width="2" opacity="0.4"/>

  <g transform="translate(210 470) scale(1.15)" stroke="#111" stroke-width="4" fill="none">
    <circle cx="0" cy="-90" r="36" fill="#fff"/>
    <path d="M-22 -125 Q0 -155 25 -122" />
    <line x1="0" y1="-54" x2="-10" y2="70"/>
    <line x1="-10" y1="-10" x2="-62" y2="34"/>
    <line x1="-6" y1="-2" x2="42" y2="30"/>
    <line x1="-10" y1="70" x2="-48" y2="160"/>
    <line x1="-10" y1="70" x2="28" y2="160"/>
    <rect x="46" y="4" width="52" height="72" fill="#fff"/>
  </g>
<path d="M205 170 L205 315" stroke="#111" stroke-width="5"/><circle cx="205" cy="340" r="18" fill="#fff" stroke="#111" stroke-width="4"/>
<text x="580" y="118" font-size="28" font-weight="700" font-family="Arial, 'Malgun Gothic', sans-serif">덜컹... 덜컹...</text><text x="360" y="758" font-size="20" text-anchor="middle" fill="#111" font-family="Arial, 'Malgun Gothic', sans-serif">늦은</text>
<text x="360" y="786" font-size="20" text-anchor="middle" fill="#111" font-family="Arial, 'Malgun Gothic', sans-serif">밤</text>
<text x="360" y="814" font-size="20" text-anchor="middle" fill="#111" font-family="Arial, 'Malgun Gothic', sans-serif">지하철,</text>
<text x="360" y="842" font-size="20" text-anchor="middle" fill="#111" font-family="Arial, 'Malgun Gothic', sans-serif">서윤</text>
<text x="360" y="870" font-size="20" text-anchor="middle" fill="#111" font-family="Arial, 'Malgun Gothic', sans-serif">전신</text>
</svg>
