<?xml version="1.0" encoding="UTF-8"?>
<svg xmlns="http://www.w3.org/2000/svg" width="720" height="2500" viewBox="0 0 720 2500">
  <title>EP01 06 노이즈 승객 거대 컷</title>
  <rect width="720" height="2500" fill="#fff"/><rect x="10" y="10" width="700" height="2480" fill="none" stroke="#111" stroke-width="4"/>
  <g opacity="0.92">
    <rect x="18" y="18" width="260" height="64" fill="#fff" stroke="#111" stroke-width="2"/>
    <text x="34" y="44" font-size="20" font-weight="700" font-family="Arial, 'Malgun Gothic', sans-serif">CUT 06</text>
    <text x="34" y="68" font-size="15" font-family="Arial, 'Malgun Gothic', sans-serif">누출 / 2500px</text>
  </g>
  <rect x="42" y="120" width="636" height="2290" fill="#f8f8f8" stroke="#111" stroke-width="4"/>
  <line x1="42" y1="210" x2="678" y2="210" stroke="#111" stroke-width="3"/>
  <line x1="42" y1="2330" x2="678" y2="2330" stroke="#111" stroke-width="3"/>
  <rect x="116" y="250" width="120" height="64" fill="#e9e9e9" stroke="#111" stroke-width="3"/>
  <rect x="246" y="250" width="120" height="64" fill="#e9e9e9" stroke="#111" stroke-width="3"/>
  <rect x="376" y="250" width="120" height="64" fill="#e9e9e9" stroke="#111" stroke-width="3"/>
  <rect x="506" y="250" width="120" height="64" fill="#e9e9e9" stroke="#111" stroke-width="3"/>
  <line x1="360" y1="120" x2="360" y2="2330" stroke="#111" stroke-width="2" opacity="0.4"/>

  <g>
    <path d="M360 1980 C290 1680, 300 580, 360 360" fill="none" stroke="#111" stroke-width="6" stroke-dasharray="20 12"/>
    <rect x="264" y="360" width="37" height="22" fill="#111" stroke="#111" stroke-width="3"/>
<rect x="318" y="360" width="50" height="22" fill="#fff" stroke="#111" stroke-width="3"/>
<rect x="426" y="360" width="24" height="22" fill="#fff" stroke="#111" stroke-width="3"/>
<rect x="480" y="360" width="37" height="22" fill="#111" stroke="#111" stroke-width="3"/>
<rect x="210" y="414" width="37" height="22" fill="#111" stroke="#111" stroke-width="3"/>
<rect x="264" y="414" width="50" height="32" fill="#fff" stroke="#111" stroke-width="3"/>
<rect x="372" y="414" width="24" height="52" fill="#fff" stroke="#111" stroke-width="3"/>
<rect x="426" y="414" width="37" height="62" fill="#111" stroke="#111" stroke-width="3"/>
<rect x="210" y="468" width="50" height="22" fill="#fff" stroke="#111" stroke-width="3"/>
<rect x="318" y="468" width="24" height="62" fill="#fff" stroke="#111" stroke-width="3"/>
<rect x="372" y="468" width="37" height="32" fill="#111" stroke="#111" stroke-width="3"/>
<rect x="480" y="468" width="63" height="22" fill="#111" stroke="#111" stroke-width="3"/>
<rect x="264" y="522" width="24" height="52" fill="#fff" stroke="#111" stroke-width="3"/>
<rect x="318" y="522" width="37" height="32" fill="#111" stroke="#111" stroke-width="3"/>
<rect x="426" y="522" width="63" height="42" fill="#111" stroke="#111" stroke-width="3"/>
<rect x="480" y="522" width="24" height="22" fill="#fff" stroke="#111" stroke-width="3"/>
<rect x="210" y="576" width="24" height="22" fill="#fff" stroke="#111" stroke-width="3"/>
<rect x="264" y="576" width="37" height="62" fill="#111" stroke="#111" stroke-width="3"/>
<rect x="372" y="576" width="63" height="42" fill="#111" stroke="#111" stroke-width="3"/>
<rect x="426" y="576" width="24" height="32" fill="#fff" stroke="#111" stroke-width="3"/>
<rect x="210" y="630" width="37" height="22" fill="#111" stroke="#111" stroke-width="3"/>
<rect x="318" y="630" width="63" height="22" fill="#111" stroke="#111" stroke-width="3"/>
<rect x="372" y="630" width="24" height="22" fill="#fff" stroke="#111" stroke-width="3"/>
<rect x="480" y="630" width="50" height="22" fill="#fff" stroke="#111" stroke-width="3"/>
<rect x="264" y="684" width="63" height="32" fill="#111" stroke="#111" stroke-width="3"/>
<rect x="318" y="684" width="24" height="42" fill="#fff" stroke="#111" stroke-width="3"/>
<rect x="426" y="684" width="50" height="62" fill="#fff" stroke="#111" stroke-width="3"/>
<rect x="480" y="684" width="63" height="22" fill="#111" stroke="#111" stroke-width="3"/>
<rect x="210" y="738" width="63" height="22" fill="#111" stroke="#111" stroke-width="3"/>
<rect x="264" y="738" width="24" height="42" fill="#fff" stroke="#111" stroke-width="3"/>
<rect x="372" y="738" width="50" height="32" fill="#fff" stroke="#111" stroke-width="3"/>
<rect x="426" y="738" width="63" height="52" fill="#111" stroke="#111" stroke-width="3"/>
<rect x="210" y="792" width="24" height="22" fill="#fff" stroke="#111" stroke-width="3"/>
<rect x="318" y="792" width="50" height="32" fill="#fff" stroke="#111" stroke-width="3"/>
<rect x="372" y="792" width="63" height="62" fill="#111" stroke="#111" stroke-width="3"/>
<rect x="480" y="792" width="37" height="22" fill="#111" stroke="#111" stroke-width="3"/>
<rect x="264" y="846" width="50" height="62" fill="#fff" stroke="#111" stroke-width="3"/>
<rect x="318" y="846" width="63" height="52" fill="#111" stroke="#111" stroke-width="3"/>
<rect x="426" y="846" width="37" height="32" fill="#111" stroke="#111" stroke-width="3"/>
<rect x="480" y="846" width="50" height="22" fill="#fff" stroke="#111" stroke-width="3"/>
<rect x="210" y="900" width="50" height="22" fill="#fff" stroke="#111" stroke-width="3"/>
<rect x="264" y="900" width="63" height="22" fill="#111" stroke="#111" stroke-width="3"/>
<rect x="372" y="900" width="37" height="22" fill="#111" stroke="#111" stroke-width="3"/>
<rect x="426" y="900" width="50" height="22" fill="#fff" stroke="#111" stroke-width="3"/>
<rect x="210" y="954" width="63" height="22" fill="#111" stroke="#111" stroke-width="3"/>
<rect x="318" y="954" width="37" height="42" fill="#111" stroke="#111" stroke-width="3"/>
<rect x="372" y="954" width="50" height="52" fill="#fff" stroke="#111" stroke-width="3"/>
<rect x="480" y="954" width="24" height="22" fill="#fff" stroke="#111" stroke-width="3"/>
    <line x1="230" y1="440" x2="230" y2="780" stroke="#111" stroke-width="7"/>
<line x1="250" y1="440" x2="250" y2="780" stroke="#111" stroke-width="2"/>
<line x1="270" y1="440" x2="270" y2="780" stroke="#111" stroke-width="2"/>
<line x1="290" y1="440" x2="290" y2="780" stroke="#111" stroke-width="2"/>
<line x1="310" y1="440" x2="310" y2="780" stroke="#111" stroke-width="7"/>
<line x1="330" y1="440" x2="330" y2="780" stroke="#111" stroke-width="2"/>
<line x1="350" y1="440" x2="350" y2="780" stroke="#111" stroke-width="2"/>
<line x1="370" y1="440" x2="370" y2="780" stroke="#111" stroke-width="2"/>
<line x1="390" y1="440" x2="390" y2="780" stroke="#111" stroke-width="7"/>
<line x1="410" y1="440" x2="410" y2="780" stroke="#111" stroke-width="2"/>
<line x1="430" y1="440" x2="430" y2="780" stroke="#111" stroke-width="2"/>
<line x1="450" y1="440" x2="450" y2="780" stroke="#111" stroke-width="2"/>
<line x1="470" y1="440" x2="470" y2="780" stroke="#111" stroke-width="7"/>
<line x1="490" y1="440" x2="490" y2="780" stroke="#111" stroke-width="2"/>
<line x1="510" y1="440" x2="510" y2="780" stroke="#111" stroke-width="2"/>
<line x1="530" y1="440" x2="530" y2="780" stroke="#111" stroke-width="2"/>
  </g>
<text x="675" y="620" font-size="64" font-family="Arial, sans-serif" transform="rotate(90 675 620)">삐----</text>
<text x="55" y="1520" font-size="18" font-family="Arial, sans-serif" transform="rotate(-90 55 1520)">CCTV BLOCK / BARCODE / LOW RESOLUTION LEAK</text><text x="360" y="2458" font-size="20" text-anchor="middle" fill="#111" font-family="Arial, 'Malgun Gothic', sans-serif">노이즈</text>
<text x="360" y="2486" font-size="20" text-anchor="middle" fill="#111" font-family="Arial, 'Malgun Gothic', sans-serif">승객</text>
<text x="360" y="2514" font-size="20" text-anchor="middle" fill="#111" font-family="Arial, 'Malgun Gothic', sans-serif">거대</text>
<text x="360" y="2542" font-size="20" text-anchor="middle" fill="#111" font-family="Arial, 'Malgun Gothic', sans-serif">컷</text>
</svg>
