<svg xmlns="http://www.w3.org/2000/svg" width="720" height="1300" viewBox="0 0 720 1300">
  <title>06 회색 재킷 남자 프레임 지연</title>
  <rect x="0" y="0" width="720" height="1300" fill="#fbfbf7"/><rect x="18" y="18" width="684" height="1264" fill="none" stroke="#ec6f35" stroke-width="4"/><text x="34" y="56" font-size="19" font-weight="700" fill="#111" font-family="Arial, 'Malgun Gothic', sans-serif">06 / 엇박 / 1300px</text><text x="360" y="1208" font-size="22" text-anchor="middle" fill="#1f2933" font-family="Arial, 'Malgun Gothic', sans-serif" font-weight="700">회색 재킷 남자 프레임 지연</text><text x="360" y="1256" font-size="16" text-anchor="middle" fill="#667085" font-family="Arial, 'Malgun Gothic', sans-serif">인파 대각선</text><text x="686" y="58" font-size="22" text-anchor="end" font-weight="700" fill="#111" font-family="Arial, 'Malgun Gothic', sans-serif">아니.</text><text x="36" y="1256" font-size="14" text-anchor="start" fill="#6b7280" font-family="Arial, 'Malgun Gothic', sans-serif">귀신화 금지, 레이어 밀림</text>
  <circle cx="610" cy="110" r="46" fill="#ffd166" opacity=".65"/><path d="M80 160 C260 80 470 80 680 150" stroke="#ffd166" stroke-width="18" opacity=".25" fill="none"/><ellipse cx="360" cy="595" rx="74" ry="90" fill="#d1d5db"/><rect x="290" y="670" width="140" height="220" rx="42" fill="#cbd5e1"/><rect x="270" y="470" width="8" height="8" fill="#fbbf24" opacity=".55"/><rect x="307" y="523" width="13" height="8" fill="#38bdf8" opacity=".55"/><rect x="344" y="576" width="18" height="8" fill="#38bdf8" opacity=".55"/><rect x="381" y="629" width="23" height="8" fill="#fbbf24" opacity=".55"/><rect x="418" y="682" width="8" height="8" fill="#38bdf8" opacity=".55"/><rect x="455" y="735" width="13" height="8" fill="#38bdf8" opacity=".55"/><rect x="302" y="788" width="18" height="8" fill="#fbbf24" opacity=".55"/><rect x="339" y="521" width="23" height="8" fill="#38bdf8" opacity=".55"/><rect x="376" y="574" width="8" height="8" fill="#38bdf8" opacity=".55"/><rect x="413" y="627" width="13" height="8" fill="#fbbf24" opacity=".55"/><rect x="450" y="680" width="18" height="8" fill="#38bdf8" opacity=".55"/><rect x="297" y="733" width="23" height="8" fill="#38bdf8" opacity=".55"/><rect x="334" y="786" width="8" height="8" fill="#fbbf24" opacity=".55"/><rect x="371" y="519" width="13" height="8" fill="#38bdf8" opacity=".55"/><rect x="408" y="572" width="18" height="8" fill="#38bdf8" opacity=".55"/><rect x="445" y="625" width="23" height="8" fill="#fbbf24" opacity=".55"/><rect x="292" y="678" width="8" height="8" fill="#38bdf8" opacity=".55"/><rect x="329" y="731" width="13" height="8" fill="#38bdf8" opacity=".55"/><rect x="366" y="784" width="18" height="8" fill="#fbbf24" opacity=".55"/><rect x="403" y="517" width="23" height="8" fill="#38bdf8" opacity=".55"/><rect x="440" y="570" width="8" height="8" fill="#38bdf8" opacity=".55"/><rect x="287" y="623" width="13" height="8" fill="#fbbf24" opacity=".55"/><rect x="324" y="676" width="18" height="8" fill="#38bdf8" opacity=".55"/><rect x="361" y="729" width="23" height="8" fill="#38bdf8" opacity=".55"/><rect x="398" y="782" width="8" height="8" fill="#fbbf24" opacity=".55"/><rect x="435" y="515" width="13" height="8" fill="#38bdf8" opacity=".55"/><rect x="282" y="568" width="18" height="8" fill="#38bdf8" opacity=".55"/><rect x="319" y="621" width="23" height="8" fill="#fbbf24" opacity=".55"/><rect x="356" y="674" width="8" height="8" fill="#38bdf8" opacity=".55"/><rect x="393" y="727" width="13" height="8" fill="#38bdf8" opacity=".55"/><rect x="430" y="780" width="18" height="8" fill="#fbbf24" opacity=".55"/><rect x="277" y="513" width="23" height="8" fill="#38bdf8" opacity=".55"/><rect x="314" y="566" width="8" height="8" fill="#38bdf8" opacity=".55"/><rect x="351" y="619" width="13" height="8" fill="#fbbf24" opacity=".55"/><path d="M250 470 C380 570 470 780 610 840" stroke="#fff" stroke-width="22" opacity=".65" fill="none"/>
</svg>
