<svg xmlns="http://www.w3.org/2000/svg" width="720" height="1600" viewBox="0 0 720 1600">
  <title>09 햇빛 속 픽셀 먼지</title>
  <rect x="0" y="0" width="720" height="1600" fill="#fbfbf7"/><rect x="18" y="18" width="684" height="1564" fill="none" stroke="#222" stroke-width="4"/><text x="34" y="56" font-size="19" font-weight="700" fill="#111" font-family="Arial, 'Malgun Gothic', sans-serif">09 / 느린 확대 / 1600px</text><text x="360" y="1508" font-size="22" text-anchor="middle" fill="#1f2933" font-family="Arial, 'Malgun Gothic', sans-serif" font-weight="700">햇빛 속 픽셀 먼지</text><text x="360" y="1556" font-size="16" text-anchor="middle" fill="#667085" font-family="Arial, 'Malgun Gothic', sans-serif">서윤 시점</text><text x="686" y="58" font-size="22" text-anchor="end" font-weight="700" fill="#111" font-family="Arial, 'Malgun Gothic', sans-serif">오늘은 아니라고 했잖아.</text><text x="36" y="1556" font-size="14" text-anchor="start" fill="#6b7280" font-family="Arial, 'Malgun Gothic', sans-serif">밝은 데이터 누출</text>
  <circle cx="610" cy="110" r="46" fill="#ffd166" opacity=".65"/><path d="M80 160 C260 80 470 80 680 150" stroke="#ffd166" stroke-width="18" opacity=".25" fill="none"/><ellipse cx="360" cy="745" rx="74" ry="90" fill="#d1d5db"/><rect x="290" y="820" width="140" height="220" rx="42" fill="#cbd5e1"/><rect x="270" y="620" width="8" height="8" fill="#fbbf24" opacity=".55"/><rect x="307" y="673" width="13" height="8" fill="#38bdf8" opacity=".55"/><rect x="344" y="726" width="18" height="8" fill="#38bdf8" opacity=".55"/><rect x="381" y="779" width="23" height="8" fill="#fbbf24" opacity=".55"/><rect x="418" y="832" width="8" height="8" fill="#38bdf8" opacity=".55"/><rect x="455" y="885" width="13" height="8" fill="#38bdf8" opacity=".55"/><rect x="302" y="938" width="18" height="8" fill="#fbbf24" opacity=".55"/><rect x="339" y="671" width="23" height="8" fill="#38bdf8" opacity=".55"/><rect x="376" y="724" width="8" height="8" fill="#38bdf8" opacity=".55"/><rect x="413" y="777" width="13" height="8" fill="#fbbf24" opacity=".55"/><rect x="450" y="830" width="18" height="8" fill="#38bdf8" opacity=".55"/><rect x="297" y="883" width="23" height="8" fill="#38bdf8" opacity=".55"/><rect x="334" y="936" width="8" height="8" fill="#fbbf24" opacity=".55"/><rect x="371" y="669" width="13" height="8" fill="#38bdf8" opacity=".55"/><rect x="408" y="722" width="18" height="8" fill="#38bdf8" opacity=".55"/><rect x="445" y="775" width="23" height="8" fill="#fbbf24" opacity=".55"/><rect x="292" y="828" width="8" height="8" fill="#38bdf8" opacity=".55"/><rect x="329" y="881" width="13" height="8" fill="#38bdf8" opacity=".55"/><rect x="366" y="934" width="18" height="8" fill="#fbbf24" opacity=".55"/><rect x="403" y="667" width="23" height="8" fill="#38bdf8" opacity=".55"/><rect x="440" y="720" width="8" height="8" fill="#38bdf8" opacity=".55"/><rect x="287" y="773" width="13" height="8" fill="#fbbf24" opacity=".55"/><rect x="324" y="826" width="18" height="8" fill="#38bdf8" opacity=".55"/><rect x="361" y="879" width="23" height="8" fill="#38bdf8" opacity=".55"/><rect x="398" y="932" width="8" height="8" fill="#fbbf24" opacity=".55"/><rect x="435" y="665" width="13" height="8" fill="#38bdf8" opacity=".55"/><rect x="282" y="718" width="18" height="8" fill="#38bdf8" opacity=".55"/><rect x="319" y="771" width="23" height="8" fill="#fbbf24" opacity=".55"/><rect x="356" y="824" width="8" height="8" fill="#38bdf8" opacity=".55"/><rect x="393" y="877" width="13" height="8" fill="#38bdf8" opacity=".55"/><rect x="430" y="930" width="18" height="8" fill="#fbbf24" opacity=".55"/><rect x="277" y="663" width="23" height="8" fill="#38bdf8" opacity=".55"/><rect x="314" y="716" width="8" height="8" fill="#38bdf8" opacity=".55"/><rect x="351" y="769" width="13" height="8" fill="#fbbf24" opacity=".55"/><path d="M250 620 C380 720 470 930 610 990" stroke="#fff" stroke-width="22" opacity=".65" fill="none"/>
</svg>
