<svg xmlns="http://www.w3.org/2000/svg" width="720" height="900" viewBox="0 0 720 900">
  <title>white_01 화이트아웃</title>
  <rect x="0" y="0" width="720" height="900" fill="#fffdf5"/><rect x="18" y="18" width="684" height="864" fill="none" stroke="#222" stroke-width="4"/><text x="34" y="56" font-size="19" font-weight="700" fill="#111" font-family="Arial, 'Malgun Gothic', sans-serif">white_01 / 침묵 / 900px</text><text x="360" y="808" font-size="22" text-anchor="middle" fill="#1f2933" font-family="Arial, 'Malgun Gothic', sans-serif" font-weight="700">화이트아웃</text><text x="360" y="856" font-size="16" text-anchor="middle" fill="#667085" font-family="Arial, 'Malgun Gothic', sans-serif">흰 공백</text><text x="36" y="856" font-size="14" text-anchor="start" fill="#6b7280" font-family="Arial, 'Malgun Gothic', sans-serif">밝은 불안</text>
  <rect x="0" y="0" width="720" height="900" fill="#fffdf3"/><rect x="70" y="100" width="5" height="5" fill="#f2c94c" opacity=".35"/><rect x="167" y="249" width="5" height="5" fill="#f2c94c" opacity=".35"/><rect x="264" y="398" width="5" height="5" fill="#f2c94c" opacity=".35"/><rect x="361" y="547" width="5" height="5" fill="#f2c94c" opacity=".35"/><rect x="458" y="696" width="5" height="5" fill="#f2c94c" opacity=".35"/><rect x="555" y="125" width="5" height="5" fill="#f2c94c" opacity=".35"/><rect x="82" y="274" width="5" height="5" fill="#f2c94c" opacity=".35"/><rect x="179" y="423" width="5" height="5" fill="#f2c94c" opacity=".35"/><rect x="276" y="572" width="5" height="5" fill="#f2c94c" opacity=".35"/><rect x="373" y="721" width="5" height="5" fill="#f2c94c" opacity=".35"/><rect x="470" y="150" width="5" height="5" fill="#f2c94c" opacity=".35"/><rect x="567" y="299" width="5" height="5" fill="#f2c94c" opacity=".35"/><rect x="94" y="448" width="5" height="5" fill="#f2c94c" opacity=".35"/><rect x="191" y="597" width="5" height="5" fill="#f2c94c" opacity=".35"/><rect x="288" y="746" width="5" height="5" fill="#f2c94c" opacity=".35"/><rect x="385" y="175" width="5" height="5" fill="#f2c94c" opacity=".35"/><rect x="482" y="324" width="5" height="5" fill="#f2c94c" opacity=".35"/><rect x="579" y="473" width="5" height="5" fill="#f2c94c" opacity=".35"/><rect x="106" y="622" width="5" height="5" fill="#f2c94c" opacity=".35"/><rect x="203" y="771" width="5" height="5" fill="#f2c94c" opacity=".35"/><rect x="300" y="200" width="5" height="5" fill="#f2c94c" opacity=".35"/><rect x="397" y="349" width="5" height="5" fill="#f2c94c" opacity=".35"/><text x="360" y="450" font-size="32" text-anchor="middle" fill="#1f2933" font-family="Arial, 'Malgun Gothic', sans-serif" font-weight="700">화이트아웃</text>
</svg>
