<svg xmlns="http://www.w3.org/2000/svg" width="720" height="13450" viewBox="0 0 720 13450">
  <title>프롤로그 구성도 초안: 횡단보도 UI 누출</title>
  <g transform="translate(0 0)">
  <title>01 밝은 출근길 도시 UI</title>
  <rect x="0" y="0" width="720" height="1000" fill="#fbfbf7"/><rect x="18" y="18" width="684" height="964" fill="none" stroke="#222" stroke-width="4"/><text x="34" y="56" font-size="19" font-weight="700" fill="#111" font-family="Arial, 'Malgun Gothic', sans-serif">01 / 정박 / 1000px</text><text x="360" y="908" font-size="22" text-anchor="middle" fill="#1f2933" font-family="Arial, 'Malgun Gothic', sans-serif" font-weight="700">밝은 출근길 도시 UI</text><text x="360" y="956" font-size="16" text-anchor="middle" fill="#667085" font-family="Arial, 'Malgun Gothic', sans-serif">사거리 와이드</text><text x="686" y="58" font-size="22" text-anchor="end" font-weight="700" fill="#111" font-family="Arial, 'Malgun Gothic', sans-serif">삑. 삑. 삑.</text><text x="36" y="956" font-size="14" text-anchor="start" fill="#6b7280" font-family="Arial, 'Malgun Gothic', sans-serif">햇빛, 유리 반사, 카페, 버스</text>
  <circle cx="610" cy="110" r="46" fill="#ffd166" opacity=".65"/><path d="M80 160 C260 80 470 80 680 150" stroke="#ffd166" stroke-width="18" opacity=".25" fill="none"/><rect x="90" y="350" width="540" height="260" rx="14" fill="#f3f4f6" stroke="#cbd5e1"/><text x="360" y="500" font-size="28" text-anchor="middle" fill="#111" font-family="Arial, 'Malgun Gothic', sans-serif">밝은 출근길 도시 UI</text>
</g>
<g transform="translate(0 1000)">
  <title>02 인파 속 출근 중인 서윤</title>
  <rect x="0" y="0" width="720" height="800" fill="#fbfbf7"/><rect x="18" y="18" width="684" height="764" fill="none" stroke="#222" stroke-width="4"/><text x="34" y="56" font-size="19" font-weight="700" fill="#111" font-family="Arial, 'Malgun Gothic', sans-serif">02 / 정박 / 800px</text><text x="360" y="708" font-size="22" text-anchor="middle" fill="#1f2933" font-family="Arial, 'Malgun Gothic', sans-serif" font-weight="700">인파 속 출근 중인 서윤</text><text x="360" y="756" font-size="16" text-anchor="middle" fill="#667085" font-family="Arial, 'Malgun Gothic', sans-serif">서윤 미디엄</text><text x="686" y="58" font-size="22" text-anchor="end" font-weight="700" fill="#111" font-family="Arial, 'Malgun Gothic', sans-serif">알아요. 가는 중이에요.</text><text x="36" y="756" font-size="14" text-anchor="start" fill="#6b7280" font-family="Arial, 'Malgun Gothic', sans-serif">08:42, 방송국 출입증</text>
  <circle cx="610" cy="110" r="46" fill="#ffd166" opacity=".65"/><path d="M80 160 C260 80 470 80 680 150" stroke="#ffd166" stroke-width="18" opacity=".25" fill="none"/><circle cx="360" cy="300" r="76" fill="#d6b28d"/><rect x="300" y="380" width="120" height="230" rx="38" fill="#374151"/><rect x="430" y="430" width="120" height="36" rx="18" fill="#d6b28d"/><text x="492" y="458" font-size="16" text-anchor="middle" fill="#ef4444" font-family="Arial, sans-serif">PIXEL</text>
</g>
<g transform="translate(0 1800)">
  <title>03 정상 카운트다운</title>
  <rect x="0" y="0" width="720" height="750" fill="#fbfbf7"/><rect x="18" y="18" width="684" height="714" fill="none" stroke="#222" stroke-width="4"/><text x="34" y="56" font-size="19" font-weight="700" fill="#111" font-family="Arial, 'Malgun Gothic', sans-serif">03 / 정박 / 750px</text><text x="360" y="658" font-size="22" text-anchor="middle" fill="#1f2933" font-family="Arial, 'Malgun Gothic', sans-serif" font-weight="700">정상 카운트다운</text><text x="360" y="706" font-size="16" text-anchor="middle" fill="#667085" font-family="Arial, 'Malgun Gothic', sans-serif">신호등 클로즈업</text><text x="686" y="58" font-size="22" text-anchor="end" font-weight="700" fill="#111" font-family="Arial, 'Malgun Gothic', sans-serif">17, 16, 15</text><text x="36" y="706" font-size="14" text-anchor="start" fill="#6b7280" font-family="Arial, 'Malgun Gothic', sans-serif">노이즈 금지</text>
  <circle cx="610" cy="110" r="46" fill="#ffd166" opacity=".65"/><path d="M80 160 C260 80 470 80 680 150" stroke="#ffd166" stroke-width="18" opacity=".25" fill="none"/><rect x="230" y="255" width="260" height="160" rx="12" fill="#222"/><text x="360" y="357" font-size="42" text-anchor="middle" fill="#7cff88" font-family="Arial, sans-serif" font-weight="700">17  16  15</text>
</g>
<g transform="translate(0 2550)">
  <title>04 모두 같은 박자로 걷기</title>
  <rect x="0" y="0" width="720" height="850" fill="#fbfbf7"/><rect x="18" y="18" width="684" height="814" fill="none" stroke="#222" stroke-width="4"/><text x="34" y="56" font-size="19" font-weight="700" fill="#111" font-family="Arial, 'Malgun Gothic', sans-serif">04 / 정박 / 850px</text><text x="360" y="758" font-size="22" text-anchor="middle" fill="#1f2933" font-family="Arial, 'Malgun Gothic', sans-serif" font-weight="700">모두 같은 박자로 걷기</text><text x="360" y="806" font-size="16" text-anchor="middle" fill="#667085" font-family="Arial, 'Malgun Gothic', sans-serif">횡단보도 측면</text><text x="36" y="806" font-size="14" text-anchor="start" fill="#6b7280" font-family="Arial, 'Malgun Gothic', sans-serif">질서와 반복 강조</text>
  <circle cx="610" cy="110" r="46" fill="#ffd166" opacity=".65"/><path d="M80 160 C260 80 470 80 680 150" stroke="#ffd166" stroke-width="18" opacity=".25" fill="none"/><rect x="90" y="275" width="540" height="260" rx="14" fill="#f3f4f6" stroke="#cbd5e1"/><text x="360" y="425" font-size="28" text-anchor="middle" fill="#111" font-family="Arial, 'Malgun Gothic', sans-serif">모두 같은 박자로 걷기</text>
</g>
<g transform="translate(0 3400)">
  <title>05 서윤의 감각 반응</title>
  <rect x="0" y="0" width="720" height="300" fill="#fbfbf7"/><rect x="18" y="18" width="684" height="264" fill="none" stroke="#ec6f35" stroke-width="4"/><text x="34" y="56" font-size="19" font-weight="700" fill="#111" font-family="Arial, 'Malgun Gothic', sans-serif">05 / 엇박 / 300px</text><text x="360" y="208" font-size="22" text-anchor="middle" fill="#1f2933" font-family="Arial, 'Malgun Gothic', sans-serif" font-weight="700">서윤의 감각 반응</text><text x="360" y="256" font-size="16" text-anchor="middle" fill="#667085" font-family="Arial, 'Malgun Gothic', sans-serif">눈 극단 클로즈업</text><text x="686" y="58" font-size="22" text-anchor="end" font-weight="700" fill="#111" font-family="Arial, 'Malgun Gothic', sans-serif">삑.</text><text x="36" y="256" font-size="14" text-anchor="start" fill="#6b7280" font-family="Arial, 'Malgun Gothic', sans-serif">리듬 절단</text>
  <circle cx="610" cy="110" r="46" fill="#ffd166" opacity=".65"/><path d="M80 160 C260 80 470 80 680 150" stroke="#ffd166" stroke-width="18" opacity=".25" fill="none"/><circle cx="360" cy="50" r="76" fill="#d6b28d"/><rect x="300" y="130" width="120" height="230" rx="38" fill="#374151"/><rect x="430" y="180" width="120" height="36" rx="18" fill="#d6b28d"/><text x="492" y="208" font-size="16" text-anchor="middle" fill="#ef4444" font-family="Arial, sans-serif">PIXEL</text>
</g>
<g transform="translate(0 3700)">
  <title>06 회색 재킷 남자 프레임 지연</title>
  <rect x="0" y="0" width="720" height="1300" fill="#fbfbf7"/><rect x="18" y="18" width="684" height="1264" fill="none" stroke="#ec6f35" stroke-width="4"/><text x="34" y="56" font-size="19" font-weight="700" fill="#111" font-family="Arial, 'Malgun Gothic', sans-serif">06 / 엇박 / 1300px</text><text x="360" y="1208" font-size="22" text-anchor="middle" fill="#1f2933" font-family="Arial, 'Malgun Gothic', sans-serif" font-weight="700">회색 재킷 남자 프레임 지연</text><text x="360" y="1256" font-size="16" text-anchor="middle" fill="#667085" font-family="Arial, 'Malgun Gothic', sans-serif">인파 대각선</text><text x="686" y="58" font-size="22" text-anchor="end" font-weight="700" fill="#111" font-family="Arial, 'Malgun Gothic', sans-serif">아니.</text><text x="36" y="1256" font-size="14" text-anchor="start" fill="#6b7280" font-family="Arial, 'Malgun Gothic', sans-serif">귀신화 금지, 레이어 밀림</text>
  <circle cx="610" cy="110" r="46" fill="#ffd166" opacity=".65"/><path d="M80 160 C260 80 470 80 680 150" stroke="#ffd166" stroke-width="18" opacity=".25" fill="none"/><ellipse cx="360" cy="595" rx="74" ry="90" fill="#d1d5db"/><rect x="290" y="670" width="140" height="220" rx="42" fill="#cbd5e1"/><rect x="270" y="470" width="8" height="8" fill="#fbbf24" opacity=".55"/><rect x="307" y="523" width="13" height="8" fill="#38bdf8" opacity=".55"/><rect x="344" y="576" width="18" height="8" fill="#38bdf8" opacity=".55"/><rect x="381" y="629" width="23" height="8" fill="#fbbf24" opacity=".55"/><rect x="418" y="682" width="8" height="8" fill="#38bdf8" opacity=".55"/><rect x="455" y="735" width="13" height="8" fill="#38bdf8" opacity=".55"/><rect x="302" y="788" width="18" height="8" fill="#fbbf24" opacity=".55"/><rect x="339" y="521" width="23" height="8" fill="#38bdf8" opacity=".55"/><rect x="376" y="574" width="8" height="8" fill="#38bdf8" opacity=".55"/><rect x="413" y="627" width="13" height="8" fill="#fbbf24" opacity=".55"/><rect x="450" y="680" width="18" height="8" fill="#38bdf8" opacity=".55"/><rect x="297" y="733" width="23" height="8" fill="#38bdf8" opacity=".55"/><rect x="334" y="786" width="8" height="8" fill="#fbbf24" opacity=".55"/><rect x="371" y="519" width="13" height="8" fill="#38bdf8" opacity=".55"/><rect x="408" y="572" width="18" height="8" fill="#38bdf8" opacity=".55"/><rect x="445" y="625" width="23" height="8" fill="#fbbf24" opacity=".55"/><rect x="292" y="678" width="8" height="8" fill="#38bdf8" opacity=".55"/><rect x="329" y="731" width="13" height="8" fill="#38bdf8" opacity=".55"/><rect x="366" y="784" width="18" height="8" fill="#fbbf24" opacity=".55"/><rect x="403" y="517" width="23" height="8" fill="#38bdf8" opacity=".55"/><rect x="440" y="570" width="8" height="8" fill="#38bdf8" opacity=".55"/><rect x="287" y="623" width="13" height="8" fill="#fbbf24" opacity=".55"/><rect x="324" y="676" width="18" height="8" fill="#38bdf8" opacity=".55"/><rect x="361" y="729" width="23" height="8" fill="#38bdf8" opacity=".55"/><rect x="398" y="782" width="8" height="8" fill="#fbbf24" opacity=".55"/><rect x="435" y="515" width="13" height="8" fill="#38bdf8" opacity=".55"/><rect x="282" y="568" width="18" height="8" fill="#38bdf8" opacity=".55"/><rect x="319" y="621" width="23" height="8" fill="#fbbf24" opacity=".55"/><rect x="356" y="674" width="8" height="8" fill="#38bdf8" opacity=".55"/><rect x="393" y="727" width="13" height="8" fill="#38bdf8" opacity=".55"/><rect x="430" y="780" width="18" height="8" fill="#fbbf24" opacity=".55"/><rect x="277" y="513" width="23" height="8" fill="#38bdf8" opacity=".55"/><rect x="314" y="566" width="8" height="8" fill="#38bdf8" opacity=".55"/><rect x="351" y="619" width="13" height="8" fill="#fbbf24" opacity=".55"/><path d="M250 470 C380 570 470 780 610 840" stroke="#fff" stroke-width="22" opacity=".65" fill="none"/>
</g>
<g transform="translate(0 5000)">
  <title>07 신호등 02:17</title>
  <rect x="0" y="0" width="720" height="200" fill="#fbfbf7"/><rect x="18" y="18" width="684" height="164" fill="none" stroke="#ec6f35" stroke-width="4"/><text x="34" y="56" font-size="19" font-weight="700" fill="#111" font-family="Arial, 'Malgun Gothic', sans-serif">07 / 강한 엇박 / 200px</text><text x="360" y="108" font-size="22" text-anchor="middle" fill="#1f2933" font-family="Arial, 'Malgun Gothic', sans-serif" font-weight="700">신호등 02:17</text><text x="360" y="156" font-size="16" text-anchor="middle" fill="#667085" font-family="Arial, 'Malgun Gothic', sans-serif">숫자 클로즈업</text><text x="686" y="58" font-size="22" text-anchor="end" font-weight="700" fill="#111" font-family="Arial, 'Malgun Gothic', sans-serif">무음</text><text x="36" y="156" font-size="14" text-anchor="start" fill="#6b7280" font-family="Arial, 'Malgun Gothic', sans-serif">짧고 날카롭게</text>
  <circle cx="610" cy="110" r="46" fill="#ffd166" opacity=".65"/><path d="M80 160 C260 80 470 80 680 150" stroke="#ffd166" stroke-width="18" opacity=".25" fill="none"/><rect x="230" y="-20" width="260" height="160" rx="12" fill="#222"/><text x="360" y="82" font-size="60" text-anchor="middle" fill="#7cff88" font-family="Arial, sans-serif" font-weight="700">02:17</text>
</g>
<g transform="translate(0 5200)">
  <title>white_01 화이트아웃</title>
  <rect x="0" y="0" width="720" height="900" fill="#fffdf5"/><rect x="18" y="18" width="684" height="864" fill="none" stroke="#222" stroke-width="4"/><text x="34" y="56" font-size="19" font-weight="700" fill="#111" font-family="Arial, 'Malgun Gothic', sans-serif">white_01 / 침묵 / 900px</text><text x="360" y="808" font-size="22" text-anchor="middle" fill="#1f2933" font-family="Arial, 'Malgun Gothic', sans-serif" font-weight="700">화이트아웃</text><text x="360" y="856" font-size="16" text-anchor="middle" fill="#667085" font-family="Arial, 'Malgun Gothic', sans-serif">흰 공백</text><text x="36" y="856" font-size="14" text-anchor="start" fill="#6b7280" font-family="Arial, 'Malgun Gothic', sans-serif">밝은 불안</text>
  <rect x="0" y="0" width="720" height="900" fill="#fffdf3"/><rect x="70" y="100" width="5" height="5" fill="#f2c94c" opacity=".35"/><rect x="167" y="249" width="5" height="5" fill="#f2c94c" opacity=".35"/><rect x="264" y="398" width="5" height="5" fill="#f2c94c" opacity=".35"/><rect x="361" y="547" width="5" height="5" fill="#f2c94c" opacity=".35"/><rect x="458" y="696" width="5" height="5" fill="#f2c94c" opacity=".35"/><rect x="555" y="125" width="5" height="5" fill="#f2c94c" opacity=".35"/><rect x="82" y="274" width="5" height="5" fill="#f2c94c" opacity=".35"/><rect x="179" y="423" width="5" height="5" fill="#f2c94c" opacity=".35"/><rect x="276" y="572" width="5" height="5" fill="#f2c94c" opacity=".35"/><rect x="373" y="721" width="5" height="5" fill="#f2c94c" opacity=".35"/><rect x="470" y="150" width="5" height="5" fill="#f2c94c" opacity=".35"/><rect x="567" y="299" width="5" height="5" fill="#f2c94c" opacity=".35"/><rect x="94" y="448" width="5" height="5" fill="#f2c94c" opacity=".35"/><rect x="191" y="597" width="5" height="5" fill="#f2c94c" opacity=".35"/><rect x="288" y="746" width="5" height="5" fill="#f2c94c" opacity=".35"/><rect x="385" y="175" width="5" height="5" fill="#f2c94c" opacity=".35"/><rect x="482" y="324" width="5" height="5" fill="#f2c94c" opacity=".35"/><rect x="579" y="473" width="5" height="5" fill="#f2c94c" opacity=".35"/><rect x="106" y="622" width="5" height="5" fill="#f2c94c" opacity=".35"/><rect x="203" y="771" width="5" height="5" fill="#f2c94c" opacity=".35"/><rect x="300" y="200" width="5" height="5" fill="#f2c94c" opacity=".35"/><rect x="397" y="349" width="5" height="5" fill="#f2c94c" opacity=".35"/><text x="360" y="450" font-size="32" text-anchor="middle" fill="#1f2933" font-family="Arial, 'Malgun Gothic', sans-serif" font-weight="700">화이트아웃</text>
</g>
<g transform="translate(0 6100)">
  <title>08 정상 복귀, 서윤만 정지</title>
  <rect x="0" y="0" width="720" height="900" fill="#fbfbf7"/><rect x="18" y="18" width="684" height="864" fill="none" stroke="#222" stroke-width="4"/><text x="34" y="56" font-size="19" font-weight="700" fill="#111" font-family="Arial, 'Malgun Gothic', sans-serif">08 / 정박 복귀 / 900px</text><text x="360" y="808" font-size="22" text-anchor="middle" fill="#1f2933" font-family="Arial, 'Malgun Gothic', sans-serif" font-weight="700">정상 복귀, 서윤만 정지</text><text x="360" y="856" font-size="16" text-anchor="middle" fill="#667085" font-family="Arial, 'Malgun Gothic', sans-serif">횡단보도 중간</text><text x="686" y="58" font-size="22" text-anchor="end" font-weight="700" fill="#111" font-family="Arial, 'Malgun Gothic', sans-serif">방금...</text><text x="36" y="856" font-size="14" text-anchor="start" fill="#6b7280" font-family="Arial, 'Malgun Gothic', sans-serif">행인이 어깨 스침</text>
  <circle cx="610" cy="110" r="46" fill="#ffd166" opacity=".65"/><path d="M80 160 C260 80 470 80 680 150" stroke="#ffd166" stroke-width="18" opacity=".25" fill="none"/><rect x="90" y="300" width="540" height="260" rx="14" fill="#f3f4f6" stroke="#cbd5e1"/><text x="360" y="450" font-size="28" text-anchor="middle" fill="#111" font-family="Arial, 'Malgun Gothic', sans-serif">정상 복귀, 서윤만 정지</text>
</g>
<g transform="translate(0 7000)">
  <title>09 햇빛 속 픽셀 먼지</title>
  <rect x="0" y="0" width="720" height="1600" fill="#fbfbf7"/><rect x="18" y="18" width="684" height="1564" fill="none" stroke="#222" stroke-width="4"/><text x="34" y="56" font-size="19" font-weight="700" fill="#111" font-family="Arial, 'Malgun Gothic', sans-serif">09 / 느린 확대 / 1600px</text><text x="360" y="1508" font-size="22" text-anchor="middle" fill="#1f2933" font-family="Arial, 'Malgun Gothic', sans-serif" font-weight="700">햇빛 속 픽셀 먼지</text><text x="360" y="1556" font-size="16" text-anchor="middle" fill="#667085" font-family="Arial, 'Malgun Gothic', sans-serif">서윤 시점</text><text x="686" y="58" font-size="22" text-anchor="end" font-weight="700" fill="#111" font-family="Arial, 'Malgun Gothic', sans-serif">오늘은 아니라고 했잖아.</text><text x="36" y="1556" font-size="14" text-anchor="start" fill="#6b7280" font-family="Arial, 'Malgun Gothic', sans-serif">밝은 데이터 누출</text>
  <circle cx="610" cy="110" r="46" fill="#ffd166" opacity=".65"/><path d="M80 160 C260 80 470 80 680 150" stroke="#ffd166" stroke-width="18" opacity=".25" fill="none"/><ellipse cx="360" cy="745" rx="74" ry="90" fill="#d1d5db"/><rect x="290" y="820" width="140" height="220" rx="42" fill="#cbd5e1"/><rect x="270" y="620" width="8" height="8" fill="#fbbf24" opacity=".55"/><rect x="307" y="673" width="13" height="8" fill="#38bdf8" opacity=".55"/><rect x="344" y="726" width="18" height="8" fill="#38bdf8" opacity=".55"/><rect x="381" y="779" width="23" height="8" fill="#fbbf24" opacity=".55"/><rect x="418" y="832" width="8" height="8" fill="#38bdf8" opacity=".55"/><rect x="455" y="885" width="13" height="8" fill="#38bdf8" opacity=".55"/><rect x="302" y="938" width="18" height="8" fill="#fbbf24" opacity=".55"/><rect x="339" y="671" width="23" height="8" fill="#38bdf8" opacity=".55"/><rect x="376" y="724" width="8" height="8" fill="#38bdf8" opacity=".55"/><rect x="413" y="777" width="13" height="8" fill="#fbbf24" opacity=".55"/><rect x="450" y="830" width="18" height="8" fill="#38bdf8" opacity=".55"/><rect x="297" y="883" width="23" height="8" fill="#38bdf8" opacity=".55"/><rect x="334" y="936" width="8" height="8" fill="#fbbf24" opacity=".55"/><rect x="371" y="669" width="13" height="8" fill="#38bdf8" opacity=".55"/><rect x="408" y="722" width="18" height="8" fill="#38bdf8" opacity=".55"/><rect x="445" y="775" width="23" height="8" fill="#fbbf24" opacity=".55"/><rect x="292" y="828" width="8" height="8" fill="#38bdf8" opacity=".55"/><rect x="329" y="881" width="13" height="8" fill="#38bdf8" opacity=".55"/><rect x="366" y="934" width="18" height="8" fill="#fbbf24" opacity=".55"/><rect x="403" y="667" width="23" height="8" fill="#38bdf8" opacity=".55"/><rect x="440" y="720" width="8" height="8" fill="#38bdf8" opacity=".55"/><rect x="287" y="773" width="13" height="8" fill="#fbbf24" opacity=".55"/><rect x="324" y="826" width="18" height="8" fill="#38bdf8" opacity=".55"/><rect x="361" y="879" width="23" height="8" fill="#38bdf8" opacity=".55"/><rect x="398" y="932" width="8" height="8" fill="#fbbf24" opacity=".55"/><rect x="435" y="665" width="13" height="8" fill="#38bdf8" opacity=".55"/><rect x="282" y="718" width="18" height="8" fill="#38bdf8" opacity=".55"/><rect x="319" y="771" width="23" height="8" fill="#fbbf24" opacity=".55"/><rect x="356" y="824" width="8" height="8" fill="#38bdf8" opacity=".55"/><rect x="393" y="877" width="13" height="8" fill="#38bdf8" opacity=".55"/><rect x="430" y="930" width="18" height="8" fill="#fbbf24" opacity=".55"/><rect x="277" y="663" width="23" height="8" fill="#38bdf8" opacity=".55"/><rect x="314" y="716" width="8" height="8" fill="#38bdf8" opacity=".55"/><rect x="351" y="769" width="13" height="8" fill="#fbbf24" opacity=".55"/><path d="M250 620 C380 720 470 930 610 990" stroke="#fff" stroke-width="22" opacity=".65" fill="none"/>
</g>
<g transform="translate(0 8600)">
  <title>10 손목 픽셀 무늬</title>
  <rect x="0" y="0" width="720" height="650" fill="#fbfbf7"/><rect x="18" y="18" width="684" height="614" fill="none" stroke="#222" stroke-width="4"/><text x="34" y="56" font-size="19" font-weight="700" fill="#111" font-family="Arial, 'Malgun Gothic', sans-serif">10 / 얇은 확인 / 650px</text><text x="360" y="558" font-size="22" text-anchor="middle" fill="#1f2933" font-family="Arial, 'Malgun Gothic', sans-serif" font-weight="700">손목 픽셀 무늬</text><text x="360" y="606" font-size="16" text-anchor="middle" fill="#667085" font-family="Arial, 'Malgun Gothic', sans-serif">손목 클로즈업</text><text x="686" y="58" font-size="22" text-anchor="end" font-weight="700" fill="#111" font-family="Arial, 'Malgun Gothic', sans-serif">삐----</text><text x="36" y="606" font-size="14" text-anchor="start" fill="#6b7280" font-family="Arial, 'Malgun Gothic', sans-serif">이명 텍스트 여백 침범</text>
  <circle cx="610" cy="110" r="46" fill="#ffd166" opacity=".65"/><path d="M80 160 C260 80 470 80 680 150" stroke="#ffd166" stroke-width="18" opacity=".25" fill="none"/><circle cx="360" cy="225" r="76" fill="#d6b28d"/><rect x="300" y="305" width="120" height="230" rx="38" fill="#374151"/><rect x="430" y="355" width="120" height="36" rx="18" fill="#d6b28d"/><text x="492" y="383" font-size="16" text-anchor="middle" fill="#ef4444" font-family="Arial, sans-serif">PIXEL</text>
</g>
<g transform="translate(0 9250)">
  <title>11 카메라에는 정상 거리</title>
  <rect x="0" y="0" width="720" height="850" fill="#fbfbf7"/><rect x="18" y="18" width="684" height="814" fill="none" stroke="#222" stroke-width="4"/><text x="34" y="56" font-size="19" font-weight="700" fill="#111" font-family="Arial, 'Malgun Gothic', sans-serif">11 / 정박 / 850px</text><text x="360" y="758" font-size="22" text-anchor="middle" fill="#1f2933" font-family="Arial, 'Malgun Gothic', sans-serif" font-weight="700">카메라에는 정상 거리</text><text x="360" y="806" font-size="16" text-anchor="middle" fill="#667085" font-family="Arial, 'Malgun Gothic', sans-serif">휴대폰 오버숄더</text><text x="686" y="58" font-size="22" text-anchor="end" font-weight="700" fill="#111" font-family="Arial, 'Malgun Gothic', sans-serif">또 안 찍혔네.</text><text x="36" y="806" font-size="14" text-anchor="start" fill="#6b7280" font-family="Arial, 'Malgun Gothic', sans-serif">반복 기록 실패</text>
  <rect x="250" y="215" width="220" height="420" rx="28" fill="#111"/><rect x="270" y="250" width="180" height="350" rx="8" fill="#f8fafc"/><rect x="292" y="303" width="136" height="84" fill="#e5e7eb"/><text x="360" y="345" font-size="18" text-anchor="middle" fill="#111" font-family="Arial, 'Malgun Gothic', sans-serif">카메라에는 정상 거리</text><text x="360" y="480" font-size="28" text-anchor="middle" fill="#ef4444" font-family="Arial, sans-serif" font-weight="700">02:17</text>
</g>
<g transform="translate(0 10100)">
  <title>12 폐역_제보영상_1999.mp4</title>
  <rect x="0" y="0" width="720" height="950" fill="#fbfbf7"/><rect x="18" y="18" width="684" height="914" fill="none" stroke="#222" stroke-width="4"/><text x="34" y="56" font-size="19" font-weight="700" fill="#111" font-family="Arial, 'Malgun Gothic', sans-serif">12 / 단서 / 950px</text><text x="360" y="858" font-size="22" text-anchor="middle" fill="#1f2933" font-family="Arial, 'Malgun Gothic', sans-serif" font-weight="700">폐역_제보영상_1999.mp4</text><text x="360" y="906" font-size="16" text-anchor="middle" fill="#667085" font-family="Arial, 'Malgun Gothic', sans-serif">휴대폰 클로즈업</text><text x="686" y="58" font-size="22" text-anchor="end" font-weight="700" fill="#111" font-family="Arial, 'Malgun Gothic', sans-serif">02:17 점멸</text><text x="36" y="906" font-size="14" text-anchor="start" fill="#6b7280" font-family="Arial, 'Malgun Gothic', sans-serif">본편 연결 단서</text>
  <rect x="250" y="265" width="220" height="420" rx="28" fill="#111"/><rect x="270" y="300" width="180" height="350" rx="8" fill="#f8fafc"/><rect x="292" y="353" width="136" height="84" fill="#e5e7eb"/><text x="360" y="395" font-size="18" text-anchor="middle" fill="#111" font-family="Arial, 'Malgun Gothic', sans-serif">폐역_제보영상_1999.mp4</text><text x="360" y="530" font-size="28" text-anchor="middle" fill="#ef4444" font-family="Arial, sans-serif" font-weight="700">02:17</text>
</g>
<g transform="translate(0 11050)">
  <title>13 아무 일 없는 사거리</title>
  <rect x="0" y="0" width="720" height="1200" fill="#fbfbf7"/><rect x="18" y="18" width="684" height="1164" fill="none" stroke="#222" stroke-width="4"/><text x="34" y="56" font-size="19" font-weight="700" fill="#111" font-family="Arial, 'Malgun Gothic', sans-serif">13 / 정박 / 1200px</text><text x="360" y="1108" font-size="22" text-anchor="middle" fill="#1f2933" font-family="Arial, 'Malgun Gothic', sans-serif" font-weight="700">아무 일 없는 사거리</text><text x="360" y="1156" font-size="16" text-anchor="middle" fill="#667085" font-family="Arial, 'Malgun Gothic', sans-serif">뒤쪽 와이드</text><text x="686" y="58" font-size="22" text-anchor="end" font-weight="700" fill="#111" font-family="Arial, 'Malgun Gothic', sans-serif">샜어.</text><text x="36" y="1156" font-size="14" text-anchor="start" fill="#6b7280" font-family="Arial, 'Malgun Gothic', sans-serif">서윤만 현상 명명</text>
  <circle cx="610" cy="110" r="46" fill="#ffd166" opacity=".65"/><path d="M80 160 C260 80 470 80 680 150" stroke="#ffd166" stroke-width="18" opacity=".25" fill="none"/><rect x="90" y="450" width="540" height="260" rx="14" fill="#f3f4f6" stroke="#cbd5e1"/><text x="360" y="600" font-size="28" text-anchor="middle" fill="#111" font-family="Arial, 'Malgun Gothic', sans-serif">아무 일 없는 사거리</text>
</g>
<g transform="translate(0 12250)">
  <title>14 횡단보도 아래 ...역</title>
  <rect x="0" y="0" width="720" height="700" fill="#fbfbf7"/><rect x="18" y="18" width="684" height="664" fill="none" stroke="#222" stroke-width="4"/><text x="34" y="56" font-size="19" font-weight="700" fill="#111" font-family="Arial, 'Malgun Gothic', sans-serif">14 / 잔상 / 700px</text><text x="360" y="608" font-size="22" text-anchor="middle" fill="#1f2933" font-family="Arial, 'Malgun Gothic', sans-serif" font-weight="700">횡단보도 아래 ...역</text><text x="360" y="656" font-size="16" text-anchor="middle" fill="#667085" font-family="Arial, 'Malgun Gothic', sans-serif">횡단보도 클로즈업</text><text x="686" y="58" font-size="22" text-anchor="end" font-weight="700" fill="#111" font-family="Arial, 'Malgun Gothic', sans-serif">...역</text><text x="36" y="656" font-size="14" text-anchor="start" fill="#6b7280" font-family="Arial, 'Malgun Gothic', sans-serif">폐역명 비공개</text>
  <rect x="0" y="0" width="720" height="700" fill="#f6f3ee"/><path d="M120 430 C260 375 390 390 600 320" stroke="#e5e7eb" stroke-width="80"/><rect x="245" y="260" width="230" height="126" rx="8" fill="#f8fafc" stroke="#6b7280" stroke-dasharray="12 8"/><text x="360" y="315" font-size="38" text-anchor="middle" fill="#111" font-family="Arial, sans-serif" font-weight="700">1999</text><text x="360" y="362" font-size="30" text-anchor="middle" fill="#ef4444" font-family="Arial, sans-serif">02:17</text>
</g>
<g transform="translate(0 12950)">
  <title>15 숫자 0, 완전 정상화</title>
  <rect x="0" y="0" width="720" height="500" fill="#fbfbf7"/><rect x="18" y="18" width="684" height="464" fill="none" stroke="#222" stroke-width="4"/><text x="34" y="56" font-size="19" font-weight="700" fill="#111" font-family="Arial, 'Malgun Gothic', sans-serif">15 / 정지 / 500px</text><text x="360" y="408" font-size="22" text-anchor="middle" fill="#1f2933" font-family="Arial, 'Malgun Gothic', sans-serif" font-weight="700">숫자 0, 완전 정상화</text><text x="360" y="456" font-size="16" text-anchor="middle" fill="#667085" font-family="Arial, 'Malgun Gothic', sans-serif">신호등/횡단보도</text><text x="686" y="58" font-size="22" text-anchor="end" font-weight="700" fill="#111" font-family="Arial, 'Malgun Gothic', sans-serif">프롤로그 끝</text><text x="36" y="456" font-size="14" text-anchor="start" fill="#6b7280" font-family="Arial, 'Malgun Gothic', sans-serif">짧게 종료</text>
  <circle cx="610" cy="110" r="46" fill="#ffd166" opacity=".65"/><path d="M80 160 C260 80 470 80 680 150" stroke="#ffd166" stroke-width="18" opacity=".25" fill="none"/><rect x="90" y="100" width="540" height="260" rx="14" fill="#f3f4f6" stroke="#cbd5e1"/><text x="360" y="250" font-size="28" text-anchor="middle" fill="#111" font-family="Arial, 'Malgun Gothic', sans-serif">숫자 0, 완전 정상화</text>
</g>
</svg>
