<?xml version="1.0" encoding="UTF-8"?>
<svg xmlns="http://www.w3.org/2000/svg" width="720" height="1000" viewBox="0 0 720 1000">
  <title>EP01 12 바닥의 픽셀 가루</title>
  <rect width="720" height="1000" fill="#fff"/><rect x="10" y="10" width="700" height="980" fill="none" stroke="#111" stroke-width="4"/>
  <g opacity="0.92">
    <rect x="18" y="18" width="260" height="64" fill="#fff" stroke="#111" stroke-width="2"/>
    <text x="34" y="44" font-size="20" font-weight="700" font-family="Arial, 'Malgun Gothic', sans-serif">CUT 12</text>
    <text x="34" y="68" font-size="15" font-family="Arial, 'Malgun Gothic', sans-serif">불안정 정박 / 1000px</text>
  </g><rect x="40" y="110" width="640" height="790" fill="#f9f9f9" stroke="#111" stroke-width="4"/>
<path d="M290 210 q40 -35 95 0 l-25 58 h-70 z" fill="#fff" stroke="#111" stroke-width="5"/><path d="M405 210 q40 -35 95 0 l-25 58 h-70 z" fill="#fff" stroke="#111" stroke-width="5"/>
<rect x="175" y="410" width="4" height="4" fill="#111" opacity="0.25"/>
<rect x="222" y="441" width="7" height="7" fill="#111" opacity="0.35"/>
<rect x="269" y="472" width="10" height="10" fill="#111" opacity="0.45"/>
<rect x="316" y="503" width="13" height="13" fill="#111" opacity="0.55"/>
<rect x="363" y="534" width="16" height="4" fill="#111" opacity="0.65"/>
<rect x="410" y="565" width="4" height="7" fill="#111" opacity="0.75"/>
<rect x="457" y="596" width="7" height="10" fill="#111" opacity="0.25"/>
<rect x="504" y="627" width="10" height="13" fill="#111" opacity="0.35"/>
<rect x="191" y="658" width="13" height="4" fill="#111" opacity="0.45"/>
<rect x="238" y="689" width="16" height="7" fill="#111" opacity="0.55"/>
<rect x="285" y="410" width="4" height="10" fill="#111" opacity="0.65"/>
<rect x="332" y="441" width="7" height="13" fill="#111" opacity="0.75"/>
<rect x="379" y="472" width="10" height="4" fill="#111" opacity="0.25"/>
<rect x="426" y="503" width="13" height="7" fill="#111" opacity="0.35"/>
<rect x="473" y="534" width="16" height="10" fill="#111" opacity="0.45"/>
<rect x="520" y="565" width="4" height="13" fill="#111" opacity="0.55"/>
<rect x="207" y="596" width="7" height="4" fill="#111" opacity="0.65"/>
<rect x="254" y="627" width="10" height="7" fill="#111" opacity="0.75"/>
<rect x="301" y="658" width="13" height="10" fill="#111" opacity="0.25"/>
<rect x="348" y="689" width="16" height="13" fill="#111" opacity="0.35"/>
<rect x="395" y="410" width="4" height="4" fill="#111" opacity="0.45"/>
<rect x="442" y="441" width="7" height="7" fill="#111" opacity="0.55"/>
<rect x="489" y="472" width="10" height="10" fill="#111" opacity="0.65"/>
<rect x="176" y="503" width="13" height="13" fill="#111" opacity="0.75"/>
<rect x="223" y="534" width="16" height="4" fill="#111" opacity="0.25"/>
<rect x="270" y="565" width="4" height="7" fill="#111" opacity="0.35"/>
<rect x="317" y="596" width="7" height="10" fill="#111" opacity="0.45"/>
<rect x="364" y="627" width="10" height="13" fill="#111" opacity="0.55"/>
<rect x="411" y="658" width="13" height="4" fill="#111" opacity="0.65"/>
<rect x="458" y="689" width="16" height="7" fill="#111" opacity="0.75"/>
<rect x="505" y="410" width="4" height="10" fill="#111" opacity="0.25"/>
<rect x="192" y="441" width="7" height="13" fill="#111" opacity="0.35"/>
<rect x="239" y="472" width="10" height="4" fill="#111" opacity="0.45"/>
<rect x="286" y="503" width="13" height="7" fill="#111" opacity="0.55"/>
<rect x="333" y="534" width="16" height="10" fill="#111" opacity="0.65"/>
<rect x="380" y="565" width="4" height="13" fill="#111" opacity="0.75"/>
<rect x="427" y="596" width="7" height="4" fill="#111" opacity="0.25"/>
<rect x="474" y="627" width="10" height="7" fill="#111" opacity="0.35"/>
<rect x="521" y="658" width="13" height="10" fill="#111" opacity="0.45"/>
<rect x="208" y="689" width="16" height="13" fill="#111" opacity="0.55"/>
<rect x="255" y="410" width="4" height="4" fill="#111" opacity="0.65"/>
<rect x="302" y="441" width="7" height="7" fill="#111" opacity="0.75"/>
<rect x="349" y="472" width="10" height="10" fill="#111" opacity="0.25"/>
<rect x="396" y="503" width="13" height="13" fill="#111" opacity="0.35"/>
<rect x="443" y="534" width="16" height="4" fill="#111" opacity="0.45"/>
<rect x="490" y="565" width="4" height="7" fill="#111" opacity="0.55"/>
<rect x="177" y="596" width="7" height="10" fill="#111" opacity="0.65"/>
<rect x="224" y="627" width="10" height="13" fill="#111" opacity="0.75"/>
<rect x="271" y="658" width="13" height="4" fill="#111" opacity="0.25"/>
<rect x="318" y="689" width="16" height="7" fill="#111" opacity="0.35"/>
<rect x="365" y="410" width="4" height="10" fill="#111" opacity="0.45"/>
<rect x="412" y="441" width="7" height="13" fill="#111" opacity="0.55"/>
<rect x="459" y="472" width="10" height="4" fill="#111" opacity="0.65"/>
<rect x="506" y="503" width="13" height="7" fill="#111" opacity="0.75"/>
<rect x="193" y="534" width="16" height="10" fill="#111" opacity="0.25"/>
<rect x="240" y="565" width="4" height="13" fill="#111" opacity="0.35"/>
<rect x="287" y="596" width="7" height="4" fill="#111" opacity="0.45"/>
<rect x="334" y="627" width="10" height="7" fill="#111" opacity="0.55"/>
<rect x="381" y="658" width="13" height="10" fill="#111" opacity="0.65"/>
<rect x="428" y="689" width="16" height="13" fill="#111" opacity="0.75"/>
<rect x="475" y="410" width="4" height="4" fill="#111" opacity="0.25"/>
<rect x="522" y="441" width="7" height="7" fill="#111" opacity="0.35"/>
<rect x="209" y="472" width="10" height="10" fill="#111" opacity="0.45"/>
<rect x="256" y="503" width="13" height="13" fill="#111" opacity="0.55"/>
<rect x="303" y="534" width="16" height="4" fill="#111" opacity="0.65"/>
<rect x="350" y="565" width="4" height="7" fill="#111" opacity="0.75"/>
<rect x="397" y="596" width="7" height="10" fill="#111" opacity="0.25"/>
<rect x="444" y="627" width="10" height="13" fill="#111" opacity="0.35"/>
<rect x="491" y="658" width="13" height="4" fill="#111" opacity="0.45"/>
<rect x="178" y="689" width="16" height="7" fill="#111" opacity="0.55"/>
<rect x="225" y="410" width="4" height="10" fill="#111" opacity="0.65"/>
<rect x="272" y="441" width="7" height="13" fill="#111" opacity="0.75"/>
<rect x="319" y="472" width="10" height="4" fill="#111" opacity="0.25"/>
<rect x="366" y="503" width="13" height="7" fill="#111" opacity="0.35"/>
<rect x="413" y="534" width="16" height="10" fill="#111" opacity="0.45"/>
<rect x="460" y="565" width="4" height="13" fill="#111" opacity="0.55"/>
<rect x="507" y="596" width="7" height="4" fill="#111" opacity="0.65"/>
<rect x="194" y="627" width="10" height="7" fill="#111" opacity="0.75"/>
<rect x="241" y="658" width="13" height="10" fill="#111" opacity="0.25"/>
<rect x="288" y="689" width="16" height="13" fill="#111" opacity="0.35"/>

  <g>
    <rect x="70" y="810" width="410" height="188" rx="18" fill="#fff" stroke="#111" stroke-width="3"/>
    <text x="275" y="844" font-size="24" text-anchor="middle" fill="#111" font-family="Arial, 'Malgun Gothic', sans-serif">.</text>
<text x="275" y="876" font-size="24" text-anchor="middle" fill="#111" font-family="Arial, 'Malgun Gothic', sans-serif">.</text>
<text x="275" y="908" font-size="24" text-anchor="middle" fill="#111" font-family="Arial, 'Malgun Gothic', sans-serif">.</text>
<text x="275" y="940" font-size="24" text-anchor="middle" fill="#111" font-family="Arial, 'Malgun Gothic', sans-serif">또</text>
<text x="275" y="972" font-size="24" text-anchor="middle" fill="#111" font-family="Arial, 'Malgun Gothic', sans-serif">샜어.</text>
  </g><text x="360" y="958" font-size="20" text-anchor="middle" fill="#111" font-family="Arial, 'Malgun Gothic', sans-serif">바닥의</text>
<text x="360" y="986" font-size="20" text-anchor="middle" fill="#111" font-family="Arial, 'Malgun Gothic', sans-serif">픽셀</text>
<text x="360" y="1014" font-size="20" text-anchor="middle" fill="#111" font-family="Arial, 'Malgun Gothic', sans-serif">가루</text>
</svg>
