<?xml version="1.0" encoding="UTF-8"?>
<svg xmlns="http://www.w3.org/2000/svg" width="720" height="200" viewBox="0 0 720 200">
  <title>EP01 05 형광등 깜빡임</title>
  <rect width="720" height="200" fill="#fff"/><rect x="10" y="10" width="700" height="180" fill="none" stroke="#111" stroke-width="4"/>
  <g opacity="0.92">
    <rect x="18" y="18" width="260" height="64" fill="#fff" stroke="#111" stroke-width="2"/>
    <text x="34" y="44" font-size="20" font-weight="700" font-family="Arial, 'Malgun Gothic', sans-serif">CUT 05</text>
    <text x="34" y="68" font-size="15" font-family="Arial, 'Malgun Gothic', sans-serif">엇박 / 200px</text>
  </g><rect x="60" y="70" width="600" height="54" fill="#eee" stroke="#111" stroke-width="4"/>
<circle cx="20" cy="35" r="1" fill="#111" opacity="0.25"/>
<circle cx="57" cy="58" r="2" fill="#111" opacity="0.25"/>
<circle cx="94" cy="81" r="3" fill="#111" opacity="0.25"/>
<circle cx="131" cy="104" r="1" fill="#111" opacity="0.25"/>
<circle cx="168" cy="127" r="2" fill="#111" opacity="0.25"/>
<circle cx="205" cy="150" r="3" fill="#111" opacity="0.25"/>
<circle cx="242" cy="173" r="1" fill="#111" opacity="0.25"/>
<circle cx="279" cy="51" r="2" fill="#111" opacity="0.25"/>
<circle cx="316" cy="74" r="3" fill="#111" opacity="0.25"/>
<circle cx="353" cy="97" r="1" fill="#111" opacity="0.25"/>
<circle cx="390" cy="120" r="2" fill="#111" opacity="0.25"/>
<circle cx="427" cy="143" r="3" fill="#111" opacity="0.25"/>
<circle cx="464" cy="166" r="1" fill="#111" opacity="0.25"/>
<circle cx="501" cy="44" r="2" fill="#111" opacity="0.25"/>
<circle cx="538" cy="67" r="3" fill="#111" opacity="0.25"/>
<circle cx="575" cy="90" r="1" fill="#111" opacity="0.25"/>
<circle cx="612" cy="113" r="2" fill="#111" opacity="0.25"/>
<circle cx="649" cy="136" r="3" fill="#111" opacity="0.25"/>
<circle cx="686" cy="159" r="1" fill="#111" opacity="0.25"/>
<circle cx="43" cy="37" r="2" fill="#111" opacity="0.25"/>
<circle cx="80" cy="60" r="3" fill="#111" opacity="0.25"/>
<circle cx="117" cy="83" r="1" fill="#111" opacity="0.25"/>
<circle cx="154" cy="106" r="2" fill="#111" opacity="0.25"/>
<circle cx="191" cy="129" r="3" fill="#111" opacity="0.25"/>
<circle cx="228" cy="152" r="1" fill="#111" opacity="0.25"/>
<circle cx="265" cy="175" r="2" fill="#111" opacity="0.25"/>
<circle cx="302" cy="53" r="3" fill="#111" opacity="0.25"/>
<circle cx="339" cy="76" r="1" fill="#111" opacity="0.25"/>
<circle cx="376" cy="99" r="2" fill="#111" opacity="0.25"/>
<circle cx="413" cy="122" r="3" fill="#111" opacity="0.25"/>
<circle cx="450" cy="145" r="1" fill="#111" opacity="0.25"/>
<circle cx="487" cy="168" r="2" fill="#111" opacity="0.25"/>
<circle cx="524" cy="46" r="3" fill="#111" opacity="0.25"/>
<circle cx="561" cy="69" r="1" fill="#111" opacity="0.25"/>
<circle cx="598" cy="92" r="2" fill="#111" opacity="0.25"/>
<circle cx="635" cy="115" r="3" fill="#111" opacity="0.25"/>
<circle cx="672" cy="138" r="1" fill="#111" opacity="0.25"/>
<circle cx="29" cy="161" r="2" fill="#111" opacity="0.25"/>
<circle cx="66" cy="39" r="3" fill="#111" opacity="0.25"/>
<circle cx="103" cy="62" r="1" fill="#111" opacity="0.25"/>
<circle cx="140" cy="85" r="2" fill="#111" opacity="0.25"/>
<circle cx="177" cy="108" r="3" fill="#111" opacity="0.25"/>
<circle cx="214" cy="131" r="1" fill="#111" opacity="0.25"/>
<circle cx="251" cy="154" r="2" fill="#111" opacity="0.25"/>
<circle cx="288" cy="177" r="3" fill="#111" opacity="0.25"/>
<circle cx="325" cy="55" r="1" fill="#111" opacity="0.25"/>
<circle cx="362" cy="78" r="2" fill="#111" opacity="0.25"/>
<circle cx="399" cy="101" r="3" fill="#111" opacity="0.25"/>
<circle cx="436" cy="124" r="1" fill="#111" opacity="0.25"/>
<circle cx="473" cy="147" r="2" fill="#111" opacity="0.25"/>
<circle cx="510" cy="170" r="3" fill="#111" opacity="0.25"/>
<circle cx="547" cy="48" r="1" fill="#111" opacity="0.25"/>
<circle cx="584" cy="71" r="2" fill="#111" opacity="0.25"/>
<circle cx="621" cy="94" r="3" fill="#111" opacity="0.25"/>
<circle cx="658" cy="117" r="1" fill="#111" opacity="0.25"/>
<circle cx="695" cy="140" r="2" fill="#111" opacity="0.25"/>
<circle cx="52" cy="163" r="3" fill="#111" opacity="0.25"/>
<circle cx="89" cy="41" r="1" fill="#111" opacity="0.25"/>
<circle cx="126" cy="64" r="2" fill="#111" opacity="0.25"/>
<circle cx="163" cy="87" r="3" fill="#111" opacity="0.25"/>
<circle cx="200" cy="110" r="1" fill="#111" opacity="0.25"/>
<circle cx="237" cy="133" r="2" fill="#111" opacity="0.25"/>
<circle cx="274" cy="156" r="3" fill="#111" opacity="0.25"/>
<circle cx="311" cy="179" r="1" fill="#111" opacity="0.25"/>
<circle cx="348" cy="57" r="2" fill="#111" opacity="0.25"/>
<circle cx="385" cy="80" r="3" fill="#111" opacity="0.25"/>
<circle cx="422" cy="103" r="1" fill="#111" opacity="0.25"/>
<circle cx="459" cy="126" r="2" fill="#111" opacity="0.25"/>
<circle cx="496" cy="149" r="3" fill="#111" opacity="0.25"/>
<circle cx="533" cy="172" r="1" fill="#111" opacity="0.25"/>
<circle cx="570" cy="50" r="2" fill="#111" opacity="0.25"/>
<circle cx="607" cy="73" r="3" fill="#111" opacity="0.25"/>
<circle cx="644" cy="96" r="1" fill="#111" opacity="0.25"/>
<circle cx="681" cy="119" r="2" fill="#111" opacity="0.25"/>
<circle cx="38" cy="142" r="3" fill="#111" opacity="0.25"/>
<circle cx="75" cy="165" r="1" fill="#111" opacity="0.25"/>
<circle cx="112" cy="43" r="2" fill="#111" opacity="0.25"/>
<circle cx="149" cy="66" r="3" fill="#111" opacity="0.25"/>
<circle cx="186" cy="89" r="1" fill="#111" opacity="0.25"/>
<circle cx="223" cy="112" r="2" fill="#111" opacity="0.25"/>
<circle cx="260" cy="135" r="3" fill="#111" opacity="0.25"/>
<circle cx="297" cy="158" r="1" fill="#111" opacity="0.25"/>
<circle cx="334" cy="36" r="2" fill="#111" opacity="0.25"/>
<circle cx="371" cy="59" r="3" fill="#111" opacity="0.25"/>
<circle cx="408" cy="82" r="1" fill="#111" opacity="0.25"/>
<circle cx="445" cy="105" r="2" fill="#111" opacity="0.25"/>
<circle cx="482" cy="128" r="3" fill="#111" opacity="0.25"/>
<circle cx="519" cy="151" r="1" fill="#111" opacity="0.25"/>
<circle cx="556" cy="174" r="2" fill="#111" opacity="0.25"/>
<circle cx="593" cy="52" r="3" fill="#111" opacity="0.25"/><text x="360" y="158" font-size="20" text-anchor="middle" fill="#111" font-family="Arial, 'Malgun Gothic', sans-serif">형광등</text>
<text x="360" y="186" font-size="20" text-anchor="middle" fill="#111" font-family="Arial, 'Malgun Gothic', sans-serif">깜빡임</text>
</svg>
