<svg xmlns="http://www.w3.org/2000/svg" width="720" height="900" viewBox="0 0 720 900">
  <title>17 폐역/교복 자락/승차권/아이 손/횡단보도</title>
  <rect x="0" y="0" width="720" height="900" fill="#fbfbf7"/><rect x="18" y="18" width="684" height="864" fill="none" stroke="#ec6f35" stroke-width="4"/><text x="34" y="56" font-size="19" font-weight="700" fill="#111" font-family="Arial, 'Malgun Gothic', sans-serif">17 / 폴리리듬 / 900px</text><text x="360" y="808" font-size="22" text-anchor="middle" fill="#1f2933" font-family="Arial, 'Malgun Gothic', sans-serif" font-weight="700">폐역/교복 자락/승차권/아이 손/횡단보도</text><text x="360" y="856" font-size="16" text-anchor="middle" fill="#667085" font-family="Arial, 'Malgun Gothic', sans-serif">반투명 정보 중첩</text><text x="686" y="58" font-size="22" text-anchor="end" font-weight="700" fill="#111" font-family="Arial, 'Malgun Gothic', sans-serif">도...착... / 2:17 / 기억하지...</text><text x="36" y="856" font-size="14" text-anchor="start" fill="#6b7280" font-family="Arial, 'Malgun Gothic', sans-serif">창문 반사처럼 얇게</text>
  <circle cx="610" cy="110" r="46" fill="#ffd166" opacity=".65"/><path d="M80 160 C260 80 470 80 680 150" stroke="#ffd166" stroke-width="18" opacity=".25" fill="none"/><ellipse cx="360" cy="395" rx="74" ry="90" fill="#d1d5db"/><rect x="290" y="470" width="140" height="220" rx="42" fill="#cbd5e1"/><rect x="270" y="270" width="8" height="8" fill="#fbbf24" opacity=".55"/><rect x="307" y="323" width="13" height="8" fill="#38bdf8" opacity=".55"/><rect x="344" y="376" width="18" height="8" fill="#38bdf8" opacity=".55"/><rect x="381" y="429" width="23" height="8" fill="#fbbf24" opacity=".55"/><rect x="418" y="482" width="8" height="8" fill="#38bdf8" opacity=".55"/><rect x="455" y="535" width="13" height="8" fill="#38bdf8" opacity=".55"/><rect x="302" y="588" width="18" height="8" fill="#fbbf24" opacity=".55"/><rect x="339" y="321" width="23" height="8" fill="#38bdf8" opacity=".55"/><rect x="376" y="374" width="8" height="8" fill="#38bdf8" opacity=".55"/><rect x="413" y="427" width="13" height="8" fill="#fbbf24" opacity=".55"/><rect x="450" y="480" width="18" height="8" fill="#38bdf8" opacity=".55"/><rect x="297" y="533" width="23" height="8" fill="#38bdf8" opacity=".55"/><rect x="334" y="586" width="8" height="8" fill="#fbbf24" opacity=".55"/><rect x="371" y="319" width="13" height="8" fill="#38bdf8" opacity=".55"/><rect x="408" y="372" width="18" height="8" fill="#38bdf8" opacity=".55"/><rect x="445" y="425" width="23" height="8" fill="#fbbf24" opacity=".55"/><rect x="292" y="478" width="8" height="8" fill="#38bdf8" opacity=".55"/><rect x="329" y="531" width="13" height="8" fill="#38bdf8" opacity=".55"/><rect x="366" y="584" width="18" height="8" fill="#fbbf24" opacity=".55"/><rect x="403" y="317" width="23" height="8" fill="#38bdf8" opacity=".55"/><rect x="440" y="370" width="8" height="8" fill="#38bdf8" opacity=".55"/><rect x="287" y="423" width="13" height="8" fill="#fbbf24" opacity=".55"/><rect x="324" y="476" width="18" height="8" fill="#38bdf8" opacity=".55"/><rect x="361" y="529" width="23" height="8" fill="#38bdf8" opacity=".55"/><rect x="398" y="582" width="8" height="8" fill="#fbbf24" opacity=".55"/><rect x="435" y="315" width="13" height="8" fill="#38bdf8" opacity=".55"/><rect x="282" y="368" width="18" height="8" fill="#38bdf8" opacity=".55"/><rect x="319" y="421" width="23" height="8" fill="#fbbf24" opacity=".55"/><rect x="356" y="474" width="8" height="8" fill="#38bdf8" opacity=".55"/><rect x="393" y="527" width="13" height="8" fill="#38bdf8" opacity=".55"/><rect x="430" y="580" width="18" height="8" fill="#fbbf24" opacity=".55"/><rect x="277" y="313" width="23" height="8" fill="#38bdf8" opacity=".55"/><rect x="314" y="366" width="8" height="8" fill="#38bdf8" opacity=".55"/><rect x="351" y="419" width="13" height="8" fill="#fbbf24" opacity=".55"/><path d="M250 270 C380 370 470 580 610 640" stroke="#fff" stroke-width="22" opacity=".65" fill="none"/>
</svg>
