<?xml version="1.0" encoding="UTF-8"?>
<svg xmlns="http://www.w3.org/2000/svg" width="720" height="300" viewBox="0 0 720 300">
  <title>EP01 10 손목 픽셀 무늬</title>
  <rect width="720" height="300" fill="#fff"/><rect x="10" y="10" width="700" height="280" fill="none" stroke="#111" stroke-width="4"/>
  <g opacity="0.92">
    <rect x="18" y="18" width="260" height="64" fill="#fff" stroke="#111" stroke-width="2"/>
    <text x="34" y="44" font-size="20" font-weight="700" font-family="Arial, 'Malgun Gothic', sans-serif">CUT 10</text>
    <text x="34" y="68" font-size="15" font-family="Arial, 'Malgun Gothic', sans-serif">엇박 / 300px</text>
  </g><path d="M125 150 C250 110 390 120 585 150" fill="none" stroke="#111" stroke-width="46" stroke-linecap="round"/>
<rect x="285" y="126" width="15" height="15" fill="#fff" stroke="#111" stroke-width="2"/>
<rect x="305" y="126" width="15" height="15" fill="#fff" stroke="#111" stroke-width="2"/>
<rect x="325" y="126" width="15" height="15" fill="#fff" stroke="#111" stroke-width="2"/>
<rect x="345" y="126" width="15" height="15" fill="#fff" stroke="#111" stroke-width="2"/>
<rect x="365" y="126" width="15" height="15" fill="#fff" stroke="#111" stroke-width="2"/>
<rect x="385" y="126" width="15" height="15" fill="#fff" stroke="#111" stroke-width="2"/>
<rect x="405" y="126" width="15" height="15" fill="#fff" stroke="#111" stroke-width="2"/>
<rect x="285" y="150" width="15" height="15" fill="#fff" stroke="#111" stroke-width="2"/>
<rect x="305" y="150" width="15" height="15" fill="#fff" stroke="#111" stroke-width="2"/>
<rect x="325" y="150" width="15" height="15" fill="#fff" stroke="#111" stroke-width="2"/>
<rect x="345" y="150" width="15" height="15" fill="#fff" stroke="#111" stroke-width="2"/>
<rect x="365" y="150" width="15" height="15" fill="#fff" stroke="#111" stroke-width="2"/>
<rect x="385" y="150" width="15" height="15" fill="#fff" stroke="#111" stroke-width="2"/>
<rect x="405" y="150" width="15" height="15" fill="#fff" stroke="#111" stroke-width="2"/>

  <g>
    <rect x="70" y="110" width="410" height="156" rx="18" fill="#fff" stroke="#111" stroke-width="3"/>
    <text x="275" y="144" font-size="24" text-anchor="middle" fill="#111" font-family="Arial, 'Malgun Gothic', sans-serif">아니야.</text>
<text x="275" y="176" font-size="24" text-anchor="middle" fill="#111" font-family="Arial, 'Malgun Gothic', sans-serif"></text>
<text x="275" y="208" font-size="24" text-anchor="middle" fill="#111" font-family="Arial, 'Malgun Gothic', sans-serif">오늘은</text>
<text x="275" y="240" font-size="24" text-anchor="middle" fill="#111" font-family="Arial, 'Malgun Gothic', sans-serif">아니야.</text>
  </g><text x="360" y="258" font-size="20" text-anchor="middle" fill="#111" font-family="Arial, 'Malgun Gothic', sans-serif">손목</text>
<text x="360" y="286" font-size="20" text-anchor="middle" fill="#111" font-family="Arial, 'Malgun Gothic', sans-serif">픽셀</text>
<text x="360" y="314" font-size="20" text-anchor="middle" fill="#111" font-family="Arial, 'Malgun Gothic', sans-serif">무늬</text>
</svg>
