<svg xmlns="http://www.w3.org/2000/svg" width="720" height="2400" viewBox="0 0 720 2400">
  <title>16 밝은 가장자리부터 풀리는 바코드/하얀 픽셀</title>
  <rect x="0" y="0" width="720" height="2400" fill="#fbfbf7"/><rect x="18" y="18" width="684" height="2364" fill="none" stroke="#ec6f35" stroke-width="4"/><text x="34" y="56" font-size="19" font-weight="700" fill="#111" font-family="Arial, 'Malgun Gothic', sans-serif">16 / 누출 / 2400px</text><text x="360" y="2308" font-size="22" text-anchor="middle" fill="#1f2933" font-family="Arial, 'Malgun Gothic', sans-serif" font-weight="700">밝은 가장자리부터 풀리는 바코드/하얀 픽셀</text><text x="360" y="2356" font-size="16" text-anchor="middle" fill="#667085" font-family="Arial, 'Malgun Gothic', sans-serif">승객 정면</text><text x="686" y="58" font-size="22" text-anchor="end" font-weight="700" fill="#111" font-family="Arial, 'Malgun Gothic', sans-serif">삐----</text><text x="36" y="2356" font-size="14" text-anchor="start" fill="#6b7280" font-family="Arial, 'Malgun Gothic', sans-serif">괴물화 금지, 반사처럼</text>
  <circle cx="610" cy="110" r="46" fill="#ffd166" opacity=".65"/><path d="M80 160 C260 80 470 80 680 150" stroke="#ffd166" stroke-width="18" opacity=".25" fill="none"/><ellipse cx="360" cy="1145" rx="74" ry="90" fill="#d1d5db"/><rect x="290" y="1220" width="140" height="220" rx="42" fill="#cbd5e1"/><rect x="270" y="1020" width="8" height="8" fill="#fbbf24" opacity=".55"/><rect x="307" y="1073" width="13" height="8" fill="#38bdf8" opacity=".55"/><rect x="344" y="1126" width="18" height="8" fill="#38bdf8" opacity=".55"/><rect x="381" y="1179" width="23" height="8" fill="#fbbf24" opacity=".55"/><rect x="418" y="1232" width="8" height="8" fill="#38bdf8" opacity=".55"/><rect x="455" y="1285" width="13" height="8" fill="#38bdf8" opacity=".55"/><rect x="302" y="1338" width="18" height="8" fill="#fbbf24" opacity=".55"/><rect x="339" y="1071" width="23" height="8" fill="#38bdf8" opacity=".55"/><rect x="376" y="1124" width="8" height="8" fill="#38bdf8" opacity=".55"/><rect x="413" y="1177" width="13" height="8" fill="#fbbf24" opacity=".55"/><rect x="450" y="1230" width="18" height="8" fill="#38bdf8" opacity=".55"/><rect x="297" y="1283" width="23" height="8" fill="#38bdf8" opacity=".55"/><rect x="334" y="1336" width="8" height="8" fill="#fbbf24" opacity=".55"/><rect x="371" y="1069" width="13" height="8" fill="#38bdf8" opacity=".55"/><rect x="408" y="1122" width="18" height="8" fill="#38bdf8" opacity=".55"/><rect x="445" y="1175" width="23" height="8" fill="#fbbf24" opacity=".55"/><rect x="292" y="1228" width="8" height="8" fill="#38bdf8" opacity=".55"/><rect x="329" y="1281" width="13" height="8" fill="#38bdf8" opacity=".55"/><rect x="366" y="1334" width="18" height="8" fill="#fbbf24" opacity=".55"/><rect x="403" y="1067" width="23" height="8" fill="#38bdf8" opacity=".55"/><rect x="440" y="1120" width="8" height="8" fill="#38bdf8" opacity=".55"/><rect x="287" y="1173" width="13" height="8" fill="#fbbf24" opacity=".55"/><rect x="324" y="1226" width="18" height="8" fill="#38bdf8" opacity=".55"/><rect x="361" y="1279" width="23" height="8" fill="#38bdf8" opacity=".55"/><rect x="398" y="1332" width="8" height="8" fill="#fbbf24" opacity=".55"/><rect x="435" y="1065" width="13" height="8" fill="#38bdf8" opacity=".55"/><rect x="282" y="1118" width="18" height="8" fill="#38bdf8" opacity=".55"/><rect x="319" y="1171" width="23" height="8" fill="#fbbf24" opacity=".55"/><rect x="356" y="1224" width="8" height="8" fill="#38bdf8" opacity=".55"/><rect x="393" y="1277" width="13" height="8" fill="#38bdf8" opacity=".55"/><rect x="430" y="1330" width="18" height="8" fill="#fbbf24" opacity=".55"/><rect x="277" y="1063" width="23" height="8" fill="#38bdf8" opacity=".55"/><rect x="314" y="1116" width="8" height="8" fill="#38bdf8" opacity=".55"/><rect x="351" y="1169" width="13" height="8" fill="#fbbf24" opacity=".55"/><path d="M250 1020 C380 1120 470 1330 610 1390" stroke="#fff" stroke-width="22" opacity=".65" fill="none"/>
</svg>
