<?xml version="1.0" encoding="UTF-8"?>
<svg xmlns="http://www.w3.org/2000/svg" width="720" height="600" viewBox="0 0 720 600">
  <title>EP01 08 노이즈 내부 단서</title>
  <rect width="720" height="600" fill="#fff"/><rect x="10" y="10" width="700" height="580" fill="none" stroke="#111" stroke-width="4"/>
  <g opacity="0.92">
    <rect x="18" y="18" width="260" height="64" fill="#fff" stroke="#111" stroke-width="2"/>
    <text x="34" y="44" font-size="20" font-weight="700" font-family="Arial, 'Malgun Gothic', sans-serif">CUT 08</text>
    <text x="34" y="68" font-size="15" font-family="Arial, 'Malgun Gothic', sans-serif">폴리리듬 / 600px</text>
  </g><rect x="88" y="110" width="544" height="390" fill="#f5f5f5" stroke="#111" stroke-width="5" stroke-dasharray="18 12"/>
<rect x="130" y="170" width="170" height="120" fill="#ddd" stroke="#111" stroke-width="3"/><path d="M390 170 l-40 170 h80 z" fill="none" stroke="#111" stroke-width="5"/><rect x="430" y="330" width="135" height="70" fill="#fff" stroke="#111" stroke-width="4" transform="rotate(-8 500 365)"/><path d="M210 420 q40 -65 80 0" fill="none" stroke="#111" stroke-width="12" stroke-linecap="round"/>

  <g>
    <rect x="70" y="410" width="410" height="220" rx="18" fill="#fff" stroke="#111" stroke-width="3"/>
    <text x="275" y="444" font-size="24" text-anchor="middle" fill="#111" font-family="Arial, 'Malgun Gothic', sans-serif">도.</text>
<text x="275" y="476" font-size="24" text-anchor="middle" fill="#111" font-family="Arial, 'Malgun Gothic', sans-serif">.</text>
<text x="275" y="508" font-size="24" text-anchor="middle" fill="#111" font-family="Arial, 'Malgun Gothic', sans-serif">.</text>
<text x="275" y="540" font-size="24" text-anchor="middle" fill="#111" font-family="Arial, 'Malgun Gothic', sans-serif">착.</text>
<text x="275" y="572" font-size="24" text-anchor="middle" fill="#111" font-family="Arial, 'Malgun Gothic', sans-serif">.</text>
<text x="275" y="604" font-size="24" text-anchor="middle" fill="#111" font-family="Arial, 'Malgun Gothic', sans-serif">.</text>
  </g><text x="360" y="558" font-size="20" text-anchor="middle" fill="#111" font-family="Arial, 'Malgun Gothic', sans-serif">노이즈</text>
<text x="360" y="586" font-size="20" text-anchor="middle" fill="#111" font-family="Arial, 'Malgun Gothic', sans-serif">내부</text>
<text x="360" y="614" font-size="20" text-anchor="middle" fill="#111" font-family="Arial, 'Malgun Gothic', sans-serif">단서</text>
</svg>
