<?xml version="1.0" encoding="UTF-8"?>
<svg xmlns="http://www.w3.org/2000/svg" width="720" height="800" viewBox="0 0 720 800">
  <title>EP01 03 폐역 CCTV 제보 사진</title>
  <rect width="720" height="800" fill="#fff"/><rect x="10" y="10" width="700" height="780" fill="none" stroke="#111" stroke-width="4"/>
  <g opacity="0.92">
    <rect x="18" y="18" width="260" height="64" fill="#fff" stroke="#111" stroke-width="2"/>
    <text x="34" y="44" font-size="20" font-weight="700" font-family="Arial, 'Malgun Gothic', sans-serif">CUT 03</text>
    <text x="34" y="68" font-size="15" font-family="Arial, 'Malgun Gothic', sans-serif">정박 / 800px</text>
  </g><rect x="92" y="180" width="536" height="360" fill="#f7f7f7" stroke="#111" stroke-width="5" transform="rotate(-4 360 360)"/>
<rect x="194" y="245" width="332" height="210" fill="#ddd" stroke="#111" stroke-width="3"/><line x1="194" y1="370" x2="526" y2="370" stroke="#111" stroke-width="2"/><path d="M360 315 l-22 82 h44 z" fill="#111"/>
<path d="M100 505 C180 430 240 470 300 540" fill="none" stroke="#111" stroke-width="15" stroke-linecap="round"/>

  <g>
    <rect x="70" y="610" width="410" height="92" rx="18" fill="#fff" stroke="#111" stroke-width="3"/>
    <text x="275" y="644" font-size="24" text-anchor="middle" fill="#111" font-family="Arial, 'Malgun Gothic', sans-serif">귀신이면</text>
<text x="275" y="676" font-size="24" text-anchor="middle" fill="#111" font-family="Arial, 'Malgun Gothic', sans-serif">움직여야지.</text>
  </g><text x="360" y="758" font-size="20" text-anchor="middle" fill="#111" font-family="Arial, 'Malgun Gothic', sans-serif">폐역</text>
<text x="360" y="786" font-size="20" text-anchor="middle" fill="#111" font-family="Arial, 'Malgun Gothic', sans-serif">CCTV</text>
<text x="360" y="814" font-size="20" text-anchor="middle" fill="#111" font-family="Arial, 'Malgun Gothic', sans-serif">제보</text>
<text x="360" y="842" font-size="20" text-anchor="middle" fill="#111" font-family="Arial, 'Malgun Gothic', sans-serif">사진</text>
</svg>
