<?xml version="1.0" encoding="UTF-8"?>
<svg xmlns="http://www.w3.org/2000/svg" width="720" height="800" viewBox="0 0 720 800">
  <title>EP01 11 문 열림, 정상 안내방송</title>
  <rect width="720" height="800" fill="#fff"/><rect x="10" y="10" width="700" height="780" fill="none" stroke="#111" stroke-width="4"/>
  <g opacity="0.92">
    <rect x="18" y="18" width="260" height="64" fill="#fff" stroke="#111" stroke-width="2"/>
    <text x="34" y="44" font-size="20" font-weight="700" font-family="Arial, 'Malgun Gothic', sans-serif">CUT 11</text>
    <text x="34" y="68" font-size="15" font-family="Arial, 'Malgun Gothic', sans-serif">정박 복귀 / 800px</text>
  </g><rect x="90" y="120" width="240" height="520" fill="#fff" stroke="#111" stroke-width="5"/><rect x="390" y="120" width="240" height="520" fill="#f5f5f5" stroke="#111" stroke-width="5"/><path d="M360 120 V640" stroke="#111" stroke-width="8"/>

  <g transform="translate(235 520) scale(0.82)" stroke="#111" stroke-width="4" fill="none">
    <circle cx="0" cy="-90" r="36" fill="#fff"/>
    <path d="M-22 -125 Q0 -155 25 -122" />
    <line x1="0" y1="-54" x2="-10" y2="70"/>
    <line x1="-10" y1="-10" x2="-62" y2="34"/>
    <line x1="-6" y1="-2" x2="42" y2="30"/>
    <line x1="-10" y1="70" x2="-48" y2="160"/>
    <line x1="-10" y1="70" x2="28" y2="160"/>
    <rect x="46" y="4" width="52" height="72" fill="#fff"/>
  </g>
<text x="580" y="118" font-size="28" font-weight="700" font-family="Arial, 'Malgun Gothic', sans-serif">&quot;이번 역은...&quot;</text><text x="360" y="758" font-size="20" text-anchor="middle" fill="#111" font-family="Arial, 'Malgun Gothic', sans-serif">문</text>
<text x="360" y="786" font-size="20" text-anchor="middle" fill="#111" font-family="Arial, 'Malgun Gothic', sans-serif">열림,</text>
<text x="360" y="814" font-size="20" text-anchor="middle" fill="#111" font-family="Arial, 'Malgun Gothic', sans-serif">정상</text>
<text x="360" y="842" font-size="20" text-anchor="middle" fill="#111" font-family="Arial, 'Malgun Gothic', sans-serif">안내방송</text>
</svg>
