<svg xmlns="http://www.w3.org/2000/svg" width="720" height="300" viewBox="0 0 720 300">
  <title>05 화이트아웃</title>
  <rect x="0" y="0" width="720" height="300" fill="#fffdf5"/><rect x="18" y="18" width="684" height="264" fill="none" stroke="#ec6f35" stroke-width="4"/><text x="34" y="56" font-size="19" font-weight="700" fill="#111" font-family="Arial, 'Malgun Gothic', sans-serif">05 / 강한 엇박 / 300px</text><text x="360" y="208" font-size="22" text-anchor="middle" fill="#1f2933" font-family="Arial, 'Malgun Gothic', sans-serif" font-weight="700">화이트아웃</text><text x="360" y="256" font-size="16" text-anchor="middle" fill="#667085" font-family="Arial, 'Malgun Gothic', sans-serif">모니터 전체</text><text x="686" y="58" font-size="22" text-anchor="end" font-weight="700" fill="#111" font-family="Arial, 'Malgun Gothic', sans-serif">무음</text><text x="36" y="256" font-size="14" text-anchor="start" fill="#6b7280" font-family="Arial, 'Malgun Gothic', sans-serif">블랙아웃 금지</text>
  <rect x="0" y="0" width="720" height="300" fill="#fffdf3"/><rect x="70" y="100" width="5" height="5" fill="#f2c94c" opacity=".35"/><rect x="167" y="129" width="5" height="5" fill="#f2c94c" opacity=".35"/><rect x="264" y="158" width="5" height="5" fill="#f2c94c" opacity=".35"/><rect x="361" y="187" width="5" height="5" fill="#f2c94c" opacity=".35"/><rect x="458" y="216" width="5" height="5" fill="#f2c94c" opacity=".35"/><rect x="555" y="125" width="5" height="5" fill="#f2c94c" opacity=".35"/><rect x="82" y="154" width="5" height="5" fill="#f2c94c" opacity=".35"/><rect x="179" y="183" width="5" height="5" fill="#f2c94c" opacity=".35"/><rect x="276" y="212" width="5" height="5" fill="#f2c94c" opacity=".35"/><rect x="373" y="121" width="5" height="5" fill="#f2c94c" opacity=".35"/><rect x="470" y="150" width="5" height="5" fill="#f2c94c" opacity=".35"/><rect x="567" y="179" width="5" height="5" fill="#f2c94c" opacity=".35"/><rect x="94" y="208" width="5" height="5" fill="#f2c94c" opacity=".35"/><rect x="191" y="117" width="5" height="5" fill="#f2c94c" opacity=".35"/><rect x="288" y="146" width="5" height="5" fill="#f2c94c" opacity=".35"/><rect x="385" y="175" width="5" height="5" fill="#f2c94c" opacity=".35"/><rect x="482" y="204" width="5" height="5" fill="#f2c94c" opacity=".35"/><rect x="579" y="113" width="5" height="5" fill="#f2c94c" opacity=".35"/><rect x="106" y="142" width="5" height="5" fill="#f2c94c" opacity=".35"/><rect x="203" y="171" width="5" height="5" fill="#f2c94c" opacity=".35"/><rect x="300" y="200" width="5" height="5" fill="#f2c94c" opacity=".35"/><rect x="397" y="109" width="5" height="5" fill="#f2c94c" opacity=".35"/><text x="360" y="150" font-size="32" text-anchor="middle" fill="#1f2933" font-family="Arial, 'Malgun Gothic', sans-serif" font-weight="700">화이트아웃</text>
</svg>
