<svg xmlns="http://www.w3.org/2000/svg" width="720" height="1200" viewBox="0 0 720 1200">
  <title>white_01 햇빛 먼지 같은 픽셀 입자</title>
  <rect x="0" y="0" width="720" height="1200" fill="#fffdf5"/><rect x="18" y="18" width="684" height="1164" fill="none" stroke="#222" stroke-width="4"/><text x="34" y="56" font-size="19" font-weight="700" fill="#111" font-family="Arial, 'Malgun Gothic', sans-serif">white_01 / 침묵 / 1200px</text><text x="360" y="1108" font-size="22" text-anchor="middle" fill="#1f2933" font-family="Arial, 'Malgun Gothic', sans-serif" font-weight="700">햇빛 먼지 같은 픽셀 입자</text><text x="360" y="1156" font-size="16" text-anchor="middle" fill="#667085" font-family="Arial, 'Malgun Gothic', sans-serif">따뜻한 흰 공백</text><text x="36" y="1156" font-size="14" text-anchor="start" fill="#6b7280" font-family="Arial, 'Malgun Gothic', sans-serif">어둡게 가라앉히지 않기</text>
  <rect x="0" y="0" width="720" height="1200" fill="#fffdf3"/><rect x="70" y="100" width="5" height="5" fill="#f2c94c" opacity=".35"/><rect x="167" y="249" width="5" height="5" fill="#f2c94c" opacity=".35"/><rect x="264" y="398" width="5" height="5" fill="#f2c94c" opacity=".35"/><rect x="361" y="547" width="5" height="5" fill="#f2c94c" opacity=".35"/><rect x="458" y="696" width="5" height="5" fill="#f2c94c" opacity=".35"/><rect x="555" y="845" width="5" height="5" fill="#f2c94c" opacity=".35"/><rect x="82" y="994" width="5" height="5" fill="#f2c94c" opacity=".35"/><rect x="179" y="123" width="5" height="5" fill="#f2c94c" opacity=".35"/><rect x="276" y="272" width="5" height="5" fill="#f2c94c" opacity=".35"/><rect x="373" y="421" width="5" height="5" fill="#f2c94c" opacity=".35"/><rect x="470" y="570" width="5" height="5" fill="#f2c94c" opacity=".35"/><rect x="567" y="719" width="5" height="5" fill="#f2c94c" opacity=".35"/><rect x="94" y="868" width="5" height="5" fill="#f2c94c" opacity=".35"/><rect x="191" y="1017" width="5" height="5" fill="#f2c94c" opacity=".35"/><rect x="288" y="146" width="5" height="5" fill="#f2c94c" opacity=".35"/><rect x="385" y="295" width="5" height="5" fill="#f2c94c" opacity=".35"/><rect x="482" y="444" width="5" height="5" fill="#f2c94c" opacity=".35"/><rect x="579" y="593" width="5" height="5" fill="#f2c94c" opacity=".35"/><rect x="106" y="742" width="5" height="5" fill="#f2c94c" opacity=".35"/><rect x="203" y="891" width="5" height="5" fill="#f2c94c" opacity=".35"/><rect x="300" y="1040" width="5" height="5" fill="#f2c94c" opacity=".35"/><rect x="397" y="169" width="5" height="5" fill="#f2c94c" opacity=".35"/><text x="360" y="600" font-size="32" text-anchor="middle" fill="#1f2933" font-family="Arial, 'Malgun Gothic', sans-serif" font-weight="700">햇빛 먼지 같은 픽셀 입자</text>
</svg>
