<svg xmlns="http://www.w3.org/2000/svg" width="720" height="20000" viewBox="0 0 720 20000">
  <title>EP01 구성도 초안 v2: 필터의 누출</title>
  <g transform="translate(0 0)">
  <title>01 폐역_제보영상_1999.mp4 재생 준비</title>
  <rect x="0" y="0" width="720" height="900" fill="#fbfbf7"/><rect x="18" y="18" width="684" height="864" fill="none" stroke="#222" stroke-width="4"/><text x="34" y="56" font-size="19" font-weight="700" fill="#111" font-family="Arial, 'Malgun Gothic', sans-serif">01 / 정박 / 900px</text><text x="360" y="808" font-size="22" text-anchor="middle" fill="#1f2933" font-family="Arial, 'Malgun Gothic', sans-serif" font-weight="700">폐역_제보영상_1999.mp4 재생 준비</text><text x="360" y="856" font-size="16" text-anchor="middle" fill="#667085" font-family="Arial, 'Malgun Gothic', sans-serif">회의실 와이드</text><text x="686" y="58" font-size="22" text-anchor="end" font-weight="700" fill="#111" font-family="Arial, 'Malgun Gothic', sans-serif">제보 영상부터 볼게요.</text><text x="36" y="856" font-size="14" text-anchor="start" fill="#6b7280" font-family="Arial, 'Malgun Gothic', sans-serif">프롤로그 파일 알림 연결</text>
  <circle cx="610" cy="110" r="46" fill="#ffd166" opacity=".65"/><path d="M80 160 C260 80 470 80 680 150" stroke="#ffd166" stroke-width="18" opacity=".25" fill="none"/><rect x="100" y="380" width="520" height="170" rx="10" fill="#f2f4f7" stroke="#cbd5e1"/><rect x="185" y="205" width="350" height="190" fill="#111"/><rect x="207" y="230" width="306" height="140" fill="#f8fafc"/><text x="360" y="310" font-size="24" text-anchor="middle" fill="#111" font-family="Arial, 'Malgun Gothic', sans-serif">폐역_제보영상_1999.mp4 재생 준비</text><circle cx="210" cy="510" r="28" fill="#6b7280"/><circle cx="500" cy="505" r="28" fill="#9ca3af"/>
</g>
<g transform="translate(0 900)">
  <title>02 동료들은 무관심, 서윤만 집중</title>
  <rect x="0" y="0" width="720" height="750" fill="#fbfbf7"/><rect x="18" y="18" width="684" height="714" fill="none" stroke="#222" stroke-width="4"/><text x="34" y="56" font-size="19" font-weight="700" fill="#111" font-family="Arial, 'Malgun Gothic', sans-serif">02 / 정박 / 750px</text><text x="360" y="658" font-size="22" text-anchor="middle" fill="#1f2933" font-family="Arial, 'Malgun Gothic', sans-serif" font-weight="700">동료들은 무관심, 서윤만 집중</text><text x="360" y="706" font-size="16" text-anchor="middle" fill="#667085" font-family="Arial, 'Malgun Gothic', sans-serif">회의실 측면</text><text x="36" y="706" font-size="14" text-anchor="start" fill="#6b7280" font-family="Arial, 'Malgun Gothic', sans-serif">정상 업무 UI</text>
  <circle cx="610" cy="110" r="46" fill="#ffd166" opacity=".65"/><path d="M80 160 C260 80 470 80 680 150" stroke="#ffd166" stroke-width="18" opacity=".25" fill="none"/><rect x="100" y="305" width="520" height="170" rx="10" fill="#f2f4f7" stroke="#cbd5e1"/><rect x="185" y="130" width="350" height="190" fill="#111"/><rect x="207" y="155" width="306" height="140" fill="#f8fafc"/><text x="360" y="235" font-size="24" text-anchor="middle" fill="#111" font-family="Arial, 'Malgun Gothic', sans-serif">동료들은 무관심, 서윤만 집중</text><circle cx="210" cy="435" r="28" fill="#6b7280"/><circle cx="500" cy="430" r="28" fill="#9ca3af"/>
</g>
<g transform="translate(0 1650)">
  <title>03 폐역 CCTV, 작은 여자 형체</title>
  <rect x="0" y="0" width="720" height="900" fill="#fbfbf7"/><rect x="18" y="18" width="684" height="864" fill="none" stroke="#222" stroke-width="4"/><text x="34" y="56" font-size="19" font-weight="700" fill="#111" font-family="Arial, 'Malgun Gothic', sans-serif">03 / 정박 / 900px</text><text x="360" y="808" font-size="22" text-anchor="middle" fill="#1f2933" font-family="Arial, 'Malgun Gothic', sans-serif" font-weight="700">폐역 CCTV, 작은 여자 형체</text><text x="360" y="856" font-size="16" text-anchor="middle" fill="#667085" font-family="Arial, 'Malgun Gothic', sans-serif">모니터 클로즈업</text><text x="686" y="58" font-size="22" text-anchor="end" font-weight="700" fill="#111" font-family="Arial, 'Malgun Gothic', sans-serif">귀신이면 움직여야지.</text><text x="36" y="856" font-size="14" text-anchor="start" fill="#6b7280" font-family="Arial, 'Malgun Gothic', sans-serif">02:16:58</text>
  <rect x="86" y="240" width="548" height="350" fill="#1f2933"/><rect x="130" y="280" width="460" height="250" fill="#d1d5db"/><text x="360" y="330" font-size="24" text-anchor="middle" fill="#111" font-family="Arial, sans-serif">1999.07.18</text><text x="360" y="366" font-size="34" text-anchor="middle" fill="#ef4444" font-family="Arial, sans-serif" font-weight="700">02:16:58</text><path d="M360 420 l28 90 h-56 z" fill="#111" opacity=".55"/><path d="M390 424 l28 90 h-56 z" fill="#ef4444" opacity=".25"/>
</g>
<g transform="translate(0 2550)">
  <title>04 02:17:00, 윤곽 한 박자 지연</title>
  <rect x="0" y="0" width="720" height="650" fill="#fbfbf7"/><rect x="18" y="18" width="684" height="614" fill="none" stroke="#ec6f35" stroke-width="4"/><text x="34" y="56" font-size="19" font-weight="700" fill="#111" font-family="Arial, 'Malgun Gothic', sans-serif">04 / 미세 엇박 / 650px</text><text x="360" y="558" font-size="22" text-anchor="middle" fill="#1f2933" font-family="Arial, 'Malgun Gothic', sans-serif" font-weight="700">02:17:00, 윤곽 한 박자 지연</text><text x="360" y="606" font-size="16" text-anchor="middle" fill="#667085" font-family="Arial, 'Malgun Gothic', sans-serif">CCTV 타임코드</text><text x="686" y="58" font-size="22" text-anchor="end" font-weight="700" fill="#111" font-family="Arial, 'Malgun Gothic', sans-serif">지직</text><text x="36" y="606" font-size="14" text-anchor="start" fill="#6b7280" font-family="Arial, 'Malgun Gothic', sans-serif">프롤로그 현상 반복</text>
  <rect x="86" y="115" width="548" height="350" fill="#1f2933"/><rect x="130" y="155" width="460" height="250" fill="#d1d5db"/><text x="360" y="205" font-size="24" text-anchor="middle" fill="#111" font-family="Arial, sans-serif">1999.07.18</text><text x="360" y="241" font-size="34" text-anchor="middle" fill="#ef4444" font-family="Arial, sans-serif" font-weight="700">02:17:00</text><path d="M360 295 l28 90 h-56 z" fill="#111" opacity=".55"/><path d="M390 299 l28 90 h-56 z" fill="#ef4444" opacity=".25"/>
</g>
<g transform="translate(0 3200)">
  <title>05 화이트아웃</title>
  <rect x="0" y="0" width="720" height="300" fill="#fffdf5"/><rect x="18" y="18" width="684" height="264" fill="none" stroke="#ec6f35" stroke-width="4"/><text x="34" y="56" font-size="19" font-weight="700" fill="#111" font-family="Arial, 'Malgun Gothic', sans-serif">05 / 강한 엇박 / 300px</text><text x="360" y="208" font-size="22" text-anchor="middle" fill="#1f2933" font-family="Arial, 'Malgun Gothic', sans-serif" font-weight="700">화이트아웃</text><text x="360" y="256" font-size="16" text-anchor="middle" fill="#667085" font-family="Arial, 'Malgun Gothic', sans-serif">모니터 전체</text><text x="686" y="58" font-size="22" text-anchor="end" font-weight="700" fill="#111" font-family="Arial, 'Malgun Gothic', sans-serif">무음</text><text x="36" y="256" font-size="14" text-anchor="start" fill="#6b7280" font-family="Arial, 'Malgun Gothic', sans-serif">블랙아웃 금지</text>
  <rect x="0" y="0" width="720" height="300" fill="#fffdf3"/><rect x="70" y="100" width="5" height="5" fill="#f2c94c" opacity=".35"/><rect x="167" y="129" width="5" height="5" fill="#f2c94c" opacity=".35"/><rect x="264" y="158" width="5" height="5" fill="#f2c94c" opacity=".35"/><rect x="361" y="187" width="5" height="5" fill="#f2c94c" opacity=".35"/><rect x="458" y="216" width="5" height="5" fill="#f2c94c" opacity=".35"/><rect x="555" y="125" width="5" height="5" fill="#f2c94c" opacity=".35"/><rect x="82" y="154" width="5" height="5" fill="#f2c94c" opacity=".35"/><rect x="179" y="183" width="5" height="5" fill="#f2c94c" opacity=".35"/><rect x="276" y="212" width="5" height="5" fill="#f2c94c" opacity=".35"/><rect x="373" y="121" width="5" height="5" fill="#f2c94c" opacity=".35"/><rect x="470" y="150" width="5" height="5" fill="#f2c94c" opacity=".35"/><rect x="567" y="179" width="5" height="5" fill="#f2c94c" opacity=".35"/><rect x="94" y="208" width="5" height="5" fill="#f2c94c" opacity=".35"/><rect x="191" y="117" width="5" height="5" fill="#f2c94c" opacity=".35"/><rect x="288" y="146" width="5" height="5" fill="#f2c94c" opacity=".35"/><rect x="385" y="175" width="5" height="5" fill="#f2c94c" opacity=".35"/><rect x="482" y="204" width="5" height="5" fill="#f2c94c" opacity=".35"/><rect x="579" y="113" width="5" height="5" fill="#f2c94c" opacity=".35"/><rect x="106" y="142" width="5" height="5" fill="#f2c94c" opacity=".35"/><rect x="203" y="171" width="5" height="5" fill="#f2c94c" opacity=".35"/><rect x="300" y="200" width="5" height="5" fill="#f2c94c" opacity=".35"/><rect x="397" y="109" width="5" height="5" fill="#f2c94c" opacity=".35"/><text x="360" y="150" font-size="32" text-anchor="middle" fill="#1f2933" font-family="Arial, 'Malgun Gothic', sans-serif" font-weight="700">화이트아웃</text>
</g>
<g transform="translate(0 3500)">
  <title>06 02:17, 폐역, 횡단보도, 교복</title>
  <rect x="0" y="0" width="720" height="1300" fill="#fffdf5"/><rect x="18" y="18" width="684" height="1264" fill="none" stroke="#ec6f35" stroke-width="4"/><text x="34" y="56" font-size="19" font-weight="700" fill="#111" font-family="Arial, 'Malgun Gothic', sans-serif">06 / 누출 / 1300px</text><text x="360" y="1208" font-size="22" text-anchor="middle" fill="#1f2933" font-family="Arial, 'Malgun Gothic', sans-serif" font-weight="700">02:17, 폐역, 횡단보도, 교복</text><text x="360" y="1256" font-size="16" text-anchor="middle" fill="#667085" font-family="Arial, 'Malgun Gothic', sans-serif">흰 화면 중첩</text><text x="686" y="58" font-size="22" text-anchor="end" font-weight="700" fill="#111" font-family="Arial, 'Malgun Gothic', sans-serif">도...착...</text><text x="36" y="1256" font-size="14" text-anchor="start" fill="#6b7280" font-family="Arial, 'Malgun Gothic', sans-serif">설명 없이 겹침</text>
  <circle cx="610" cy="110" r="46" fill="#ffd166" opacity=".65"/><path d="M80 160 C260 80 470 80 680 150" stroke="#ffd166" stroke-width="18" opacity=".25" fill="none"/><rect x="90" y="500" width="540" height="260" rx="14" fill="#f3f4f6" stroke="#cbd5e1"/><text x="360" y="650" font-size="28" text-anchor="middle" fill="#111" font-family="Arial, 'Malgun Gothic', sans-serif">02:17, 폐역, 횡단보도, 교복</text>
</g>
<g transform="translate(0 4800)">
  <title>07 팀장은 재생 오류로 인식</title>
  <rect x="0" y="0" width="720" height="800" fill="#fbfbf7"/><rect x="18" y="18" width="684" height="764" fill="none" stroke="#222" stroke-width="4"/><text x="34" y="56" font-size="19" font-weight="700" fill="#111" font-family="Arial, 'Malgun Gothic', sans-serif">07 / 정박 복귀 / 800px</text><text x="360" y="708" font-size="22" text-anchor="middle" fill="#1f2933" font-family="Arial, 'Malgun Gothic', sans-serif" font-weight="700">팀장은 재생 오류로 인식</text><text x="360" y="756" font-size="16" text-anchor="middle" fill="#667085" font-family="Arial, 'Malgun Gothic', sans-serif">회의실</text><text x="686" y="58" font-size="22" text-anchor="end" font-weight="700" fill="#111" font-family="Arial, 'Malgun Gothic', sans-serif">계속 틀어보세요.</text><text x="36" y="756" font-size="14" text-anchor="start" fill="#6b7280" font-family="Arial, 'Malgun Gothic', sans-serif">서윤은 확인 요구</text>
  <circle cx="610" cy="110" r="46" fill="#ffd166" opacity=".65"/><path d="M80 160 C260 80 470 80 680 150" stroke="#ffd166" stroke-width="18" opacity=".25" fill="none"/><rect x="100" y="330" width="520" height="170" rx="10" fill="#f2f4f7" stroke="#cbd5e1"/><rect x="185" y="155" width="350" height="190" fill="#111"/><rect x="207" y="180" width="306" height="140" fill="#f8fafc"/><text x="360" y="260" font-size="24" text-anchor="middle" fill="#111" font-family="Arial, 'Malgun Gothic', sans-serif">팀장은 재생 오류로 인식</text><circle cx="210" cy="460" r="28" fill="#6b7280"/><circle cx="500" cy="455" r="28" fill="#9ca3af"/>
</g>
<g transform="translate(0 5600)">
  <title>08 손목 픽셀 무늬</title>
  <rect x="0" y="0" width="720" height="700" fill="#fbfbf7"/><rect x="18" y="18" width="684" height="664" fill="none" stroke="#222" stroke-width="4"/><text x="34" y="56" font-size="19" font-weight="700" fill="#111" font-family="Arial, 'Malgun Gothic', sans-serif">08 / 얇은 확인 / 700px</text><text x="360" y="608" font-size="22" text-anchor="middle" fill="#1f2933" font-family="Arial, 'Malgun Gothic', sans-serif" font-weight="700">손목 픽셀 무늬</text><text x="360" y="656" font-size="16" text-anchor="middle" fill="#667085" font-family="Arial, 'Malgun Gothic', sans-serif">손목 클로즈업</text><text x="686" y="58" font-size="22" text-anchor="end" font-weight="700" fill="#111" font-family="Arial, 'Malgun Gothic', sans-serif">횡단보도랑 같은 패턴.</text><text x="36" y="656" font-size="14" text-anchor="start" fill="#6b7280" font-family="Arial, 'Malgun Gothic', sans-serif">프롤로그 연결</text>
  <circle cx="610" cy="110" r="46" fill="#ffd166" opacity=".65"/><path d="M80 160 C260 80 470 80 680 150" stroke="#ffd166" stroke-width="18" opacity=".25" fill="none"/><circle cx="360" cy="250" r="76" fill="#d6b28d"/><rect x="300" y="330" width="120" height="230" rx="38" fill="#374151"/><rect x="430" y="380" width="120" height="36" rx="18" fill="#d6b28d"/><text x="492" y="408" font-size="16" text-anchor="middle" fill="#ef4444" font-family="Arial, sans-serif">PIXEL</text>
</g>
<g transform="translate(0 6300)">
  <title>09 사건 단어 정리</title>
  <rect x="0" y="0" width="720" height="850" fill="#fbfbf7"/><rect x="18" y="18" width="684" height="814" fill="none" stroke="#222" stroke-width="4"/><text x="34" y="56" font-size="19" font-weight="700" fill="#111" font-family="Arial, 'Malgun Gothic', sans-serif">09 / 정박 / 850px</text><text x="360" y="758" font-size="22" text-anchor="middle" fill="#1f2933" font-family="Arial, 'Malgun Gothic', sans-serif" font-weight="700">사건 단어 정리</text><text x="360" y="806" font-size="16" text-anchor="middle" fill="#667085" font-family="Arial, 'Malgun Gothic', sans-serif">회의 자료</text><text x="686" y="58" font-size="22" text-anchor="end" font-weight="700" fill="#111" font-family="Arial, 'Malgun Gothic', sans-serif">오늘 원본 먼저 확인하고요.</text><text x="36" y="806" font-size="14" text-anchor="start" fill="#6b7280" font-family="Arial, 'Malgun Gothic', sans-serif">다음 행동 목표</text>
  <circle cx="610" cy="110" r="46" fill="#ffd166" opacity=".65"/><path d="M80 160 C260 80 470 80 680 150" stroke="#ffd166" stroke-width="18" opacity=".25" fill="none"/><rect x="100" y="355" width="520" height="170" rx="10" fill="#f2f4f7" stroke="#cbd5e1"/><rect x="185" y="180" width="350" height="190" fill="#111"/><rect x="207" y="205" width="306" height="140" fill="#f8fafc"/><text x="360" y="285" font-size="24" text-anchor="middle" fill="#111" font-family="Arial, 'Malgun Gothic', sans-serif">사건 단어 정리</text><circle cx="210" cy="485" r="28" fill="#6b7280"/><circle cx="500" cy="480" r="28" fill="#9ca3af"/>
</g>
<g transform="translate(0 7150)">
  <title>10 업로더 없음, 02:17 고정</title>
  <rect x="0" y="0" width="720" height="900" fill="#fbfbf7"/><rect x="18" y="18" width="684" height="864" fill="none" stroke="#222" stroke-width="4"/><text x="34" y="56" font-size="19" font-weight="700" fill="#111" font-family="Arial, 'Malgun Gothic', sans-serif">10 / 단서 / 900px</text><text x="360" y="808" font-size="22" text-anchor="middle" fill="#1f2933" font-family="Arial, 'Malgun Gothic', sans-serif" font-weight="700">업로더 없음, 02:17 고정</text><text x="360" y="856" font-size="16" text-anchor="middle" fill="#667085" font-family="Arial, 'Malgun Gothic', sans-serif">파일 정보 창</text><text x="686" y="58" font-size="22" text-anchor="end" font-weight="700" fill="#111" font-family="Arial, 'Malgun Gothic', sans-serif">업로더가 없어요.</text><text x="36" y="856" font-size="14" text-anchor="start" fill="#6b7280" font-family="Arial, 'Malgun Gothic', sans-serif">파일 자체 이상</text>
  <rect x="250" y="240" width="220" height="420" rx="28" fill="#111"/><rect x="270" y="275" width="180" height="350" rx="8" fill="#f8fafc"/><rect x="292" y="328" width="136" height="84" fill="#e5e7eb"/><text x="360" y="370" font-size="18" text-anchor="middle" fill="#111" font-family="Arial, 'Malgun Gothic', sans-serif">업로더 없음, 02:17 고정</text><text x="360" y="505" font-size="28" text-anchor="middle" fill="#ef4444" font-family="Arial, sans-serif" font-weight="700">02:17</text>
</g>
<g transform="translate(0 8050)">
  <title>11 직원 그림자 프레임 지연</title>
  <rect x="0" y="0" width="720" height="800" fill="#fbfbf7"/><rect x="18" y="18" width="684" height="764" fill="none" stroke="#ec6f35" stroke-width="4"/><text x="34" y="56" font-size="19" font-weight="700" fill="#111" font-family="Arial, 'Malgun Gothic', sans-serif">11 / 짧은 엇박 / 800px</text><text x="360" y="708" font-size="22" text-anchor="middle" fill="#1f2933" font-family="Arial, 'Malgun Gothic', sans-serif" font-weight="700">직원 그림자 프레임 지연</text><text x="360" y="756" font-size="16" text-anchor="middle" fill="#667085" font-family="Arial, 'Malgun Gothic', sans-serif">유리벽 너머</text><text x="686" y="58" font-size="22" text-anchor="end" font-weight="700" fill="#111" font-family="Arial, 'Malgun Gothic', sans-serif">사무실까지.</text><text x="36" y="756" font-size="14" text-anchor="start" fill="#6b7280" font-family="Arial, 'Malgun Gothic', sans-serif">현상 확산</text>
  <circle cx="610" cy="110" r="46" fill="#ffd166" opacity=".65"/><path d="M80 160 C260 80 470 80 680 150" stroke="#ffd166" stroke-width="18" opacity=".25" fill="none"/><rect x="90" y="250" width="540" height="260" rx="14" fill="#f3f4f6" stroke="#cbd5e1"/><text x="360" y="400" font-size="28" text-anchor="middle" fill="#111" font-family="Arial, 'Malgun Gothic', sans-serif">직원 그림자 프레임 지연</text>
</g>
<g transform="translate(0 8850)">
  <title>12 골든아워 지상 구간, 생활감 있는 승객들</title>
  <rect x="0" y="0" width="720" height="1000" fill="#fbfbf7"/><rect x="18" y="18" width="684" height="964" fill="none" stroke="#222" stroke-width="4"/><text x="34" y="56" font-size="19" font-weight="700" fill="#111" font-family="Arial, 'Malgun Gothic', sans-serif">12 / 정박 / 1000px</text><text x="360" y="908" font-size="22" text-anchor="middle" fill="#1f2933" font-family="Arial, 'Malgun Gothic', sans-serif" font-weight="700">골든아워 지상 구간, 생활감 있는 승객들</text><text x="360" y="956" font-size="16" text-anchor="middle" fill="#667085" font-family="Arial, 'Malgun Gothic', sans-serif">밝은 지상철 와이드</text><text x="686" y="58" font-size="22" text-anchor="end" font-weight="700" fill="#111" font-family="Arial, 'Malgun Gothic', sans-serif">덜컹. 덜컹. / 작은 대화</text><text x="36" y="956" font-size="14" text-anchor="start" fill="#6b7280" font-family="Arial, 'Malgun Gothic', sans-serif">어두운 지하철 톤 회피</text>
  <circle cx="610" cy="110" r="46" fill="#ffd166" opacity=".65"/><path d="M80 160 C260 80 470 80 680 150" stroke="#ffd166" stroke-width="18" opacity=".25" fill="none"/><rect x="40" y="280" width="640" height="360" rx="18" fill="#f8fafc" stroke="#94a3b8" stroke-width="3"/><rect x="80" y="330" width="180" height="120" fill="#dbeafe"/><rect x="460" y="330" width="180" height="120" fill="#dbeafe"/><path d="M70 620 L650 400" stroke="#ffd166" stroke-width="24" opacity=".35"/><circle cx="230" cy="528" r="32" fill="#6b7280"/><circle cx="490" cy="528" r="32" fill="#9ca3af"/>
</g>
<g transform="translate(0 9850)">
  <title>13 폐역 / 02:17 / 1999 / 원본 확인</title>
  <rect x="0" y="0" width="720" height="750" fill="#fbfbf7"/><rect x="18" y="18" width="684" height="714" fill="none" stroke="#222" stroke-width="4"/><text x="34" y="56" font-size="19" font-weight="700" fill="#111" font-family="Arial, 'Malgun Gothic', sans-serif">13 / 정박 / 750px</text><text x="360" y="658" font-size="22" text-anchor="middle" fill="#1f2933" font-family="Arial, 'Malgun Gothic', sans-serif" font-weight="700">폐역 / 02:17 / 1999 / 원본</text><text x="360" y="688" font-size="22" text-anchor="middle" fill="#1f2933" font-family="Arial, 'Malgun Gothic', sans-serif" font-weight="700">확인</text><text x="360" y="706" font-size="16" text-anchor="middle" fill="#667085" font-family="Arial, 'Malgun Gothic', sans-serif">봉투 클로즈업</text><text x="686" y="58" font-size="22" text-anchor="end" font-weight="700" fill="#111" font-family="Arial, 'Malgun Gothic', sans-serif">움직인 게 아니라, 밀렸어.</text><text x="36" y="706" font-size="14" text-anchor="start" fill="#6b7280" font-family="Arial, 'Malgun Gothic', sans-serif">패턴 분석</text>
  <circle cx="610" cy="110" r="46" fill="#ffd166" opacity=".65"/><path d="M80 160 C260 80 470 80 680 150" stroke="#ffd166" stroke-width="18" opacity=".25" fill="none"/><rect x="90" y="225" width="540" height="260" rx="14" fill="#f3f4f6" stroke="#cbd5e1"/><text x="360" y="375" font-size="28" text-anchor="middle" fill="#111" font-family="Arial, 'Malgun Gothic', sans-serif">폐역 / 02:17 / 1999 / 원본 확</text>
</g>
<g transform="translate(0 10600)">
  <title>14 운동화, 햇빛, 창문 프레임 그림자</title>
  <rect x="0" y="0" width="720" height="800" fill="#fbfbf7"/><rect x="18" y="18" width="684" height="764" fill="none" stroke="#222" stroke-width="4"/><text x="34" y="56" font-size="19" font-weight="700" fill="#111" font-family="Arial, 'Malgun Gothic', sans-serif">14 / 정박 / 800px</text><text x="360" y="708" font-size="22" text-anchor="middle" fill="#1f2933" font-family="Arial, 'Malgun Gothic', sans-serif" font-weight="700">운동화, 햇빛, 창문 프레임 그림자</text><text x="360" y="756" font-size="16" text-anchor="middle" fill="#667085" font-family="Arial, 'Malgun Gothic', sans-serif">밝은 바닥 앵글</text><text x="36" y="756" font-size="14" text-anchor="start" fill="#6b7280" font-family="Arial, 'Malgun Gothic', sans-serif">평범한 오후 이동감</text>
  <circle cx="610" cy="110" r="46" fill="#ffd166" opacity=".65"/><path d="M80 160 C260 80 470 80 680 150" stroke="#ffd166" stroke-width="18" opacity=".25" fill="none"/><rect x="40" y="180" width="640" height="360" rx="18" fill="#f8fafc" stroke="#94a3b8" stroke-width="3"/><rect x="80" y="230" width="180" height="120" fill="#dbeafe"/><rect x="460" y="230" width="180" height="120" fill="#dbeafe"/><path d="M70 520 L650 300" stroke="#ffd166" stroke-width="24" opacity=".35"/><circle cx="230" cy="428" r="32" fill="#6b7280"/><circle cx="490" cy="428" r="32" fill="#9ca3af"/>
</g>
<g transform="translate(0 11400)">
  <title>15 햇빛 플레어 속 02:17 겹침</title>
  <rect x="0" y="0" width="720" height="200" fill="#fbfbf7"/><rect x="18" y="18" width="684" height="164" fill="none" stroke="#ec6f35" stroke-width="4"/><text x="34" y="56" font-size="19" font-weight="700" fill="#111" font-family="Arial, 'Malgun Gothic', sans-serif">15 / 강한 엇박 / 200px</text><text x="360" y="108" font-size="22" text-anchor="middle" fill="#1f2933" font-family="Arial, 'Malgun Gothic', sans-serif" font-weight="700">햇빛 플레어 속 02:17 겹침</text><text x="360" y="156" font-size="16" text-anchor="middle" fill="#667085" font-family="Arial, 'Malgun Gothic', sans-serif">안내 모니터+창 반사</text><text x="686" y="58" font-size="22" text-anchor="end" font-weight="700" fill="#111" font-family="Arial, 'Malgun Gothic', sans-serif">무음</text><text x="36" y="156" font-size="14" text-anchor="start" fill="#6b7280" font-family="Arial, 'Malgun Gothic', sans-serif">눈부심처럼 시작</text>
  <circle cx="610" cy="110" r="46" fill="#ffd166" opacity=".65"/><path d="M80 160 C260 80 470 80 680 150" stroke="#ffd166" stroke-width="18" opacity=".25" fill="none"/><rect x="40" y="-120" width="640" height="360" rx="18" fill="#f8fafc" stroke="#94a3b8" stroke-width="3"/><rect x="80" y="-70" width="180" height="120" fill="#dbeafe"/><rect x="460" y="-70" width="180" height="120" fill="#dbeafe"/><path d="M70 220 L650 0" stroke="#ffd166" stroke-width="24" opacity=".35"/><circle cx="230" cy="128" r="32" fill="#6b7280"/><circle cx="490" cy="128" r="32" fill="#9ca3af"/><text x="360" y="100" font-size="62" text-anchor="middle" fill="#ef4444" font-family="Arial, sans-serif" font-weight="700" opacity=".75">02:17</text>
</g>
<g transform="translate(0 11600)">
  <title>white_01 햇빛 먼지 같은 픽셀 입자</title>
  <rect x="0" y="0" width="720" height="1200" fill="#fffdf5"/><rect x="18" y="18" width="684" height="1164" fill="none" stroke="#222" stroke-width="4"/><text x="34" y="56" font-size="19" font-weight="700" fill="#111" font-family="Arial, 'Malgun Gothic', sans-serif">white_01 / 침묵 / 1200px</text><text x="360" y="1108" font-size="22" text-anchor="middle" fill="#1f2933" font-family="Arial, 'Malgun Gothic', sans-serif" font-weight="700">햇빛 먼지 같은 픽셀 입자</text><text x="360" y="1156" font-size="16" text-anchor="middle" fill="#667085" font-family="Arial, 'Malgun Gothic', sans-serif">따뜻한 흰 공백</text><text x="36" y="1156" font-size="14" text-anchor="start" fill="#6b7280" font-family="Arial, 'Malgun Gothic', sans-serif">어둡게 가라앉히지 않기</text>
  <rect x="0" y="0" width="720" height="1200" fill="#fffdf3"/><rect x="70" y="100" width="5" height="5" fill="#f2c94c" opacity=".35"/><rect x="167" y="249" width="5" height="5" fill="#f2c94c" opacity=".35"/><rect x="264" y="398" width="5" height="5" fill="#f2c94c" opacity=".35"/><rect x="361" y="547" width="5" height="5" fill="#f2c94c" opacity=".35"/><rect x="458" y="696" width="5" height="5" fill="#f2c94c" opacity=".35"/><rect x="555" y="845" width="5" height="5" fill="#f2c94c" opacity=".35"/><rect x="82" y="994" width="5" height="5" fill="#f2c94c" opacity=".35"/><rect x="179" y="123" width="5" height="5" fill="#f2c94c" opacity=".35"/><rect x="276" y="272" width="5" height="5" fill="#f2c94c" opacity=".35"/><rect x="373" y="421" width="5" height="5" fill="#f2c94c" opacity=".35"/><rect x="470" y="570" width="5" height="5" fill="#f2c94c" opacity=".35"/><rect x="567" y="719" width="5" height="5" fill="#f2c94c" opacity=".35"/><rect x="94" y="868" width="5" height="5" fill="#f2c94c" opacity=".35"/><rect x="191" y="1017" width="5" height="5" fill="#f2c94c" opacity=".35"/><rect x="288" y="146" width="5" height="5" fill="#f2c94c" opacity=".35"/><rect x="385" y="295" width="5" height="5" fill="#f2c94c" opacity=".35"/><rect x="482" y="444" width="5" height="5" fill="#f2c94c" opacity=".35"/><rect x="579" y="593" width="5" height="5" fill="#f2c94c" opacity=".35"/><rect x="106" y="742" width="5" height="5" fill="#f2c94c" opacity=".35"/><rect x="203" y="891" width="5" height="5" fill="#f2c94c" opacity=".35"/><rect x="300" y="1040" width="5" height="5" fill="#f2c94c" opacity=".35"/><rect x="397" y="169" width="5" height="5" fill="#f2c94c" opacity=".35"/><text x="360" y="600" font-size="32" text-anchor="middle" fill="#1f2933" font-family="Arial, 'Malgun Gothic', sans-serif" font-weight="700">햇빛 먼지 같은 픽셀 입자</text>
</g>
<g transform="translate(0 12800)">
  <title>16 밝은 가장자리부터 풀리는 바코드/하얀 픽셀</title>
  <rect x="0" y="0" width="720" height="2400" fill="#fbfbf7"/><rect x="18" y="18" width="684" height="2364" fill="none" stroke="#ec6f35" stroke-width="4"/><text x="34" y="56" font-size="19" font-weight="700" fill="#111" font-family="Arial, 'Malgun Gothic', sans-serif">16 / 누출 / 2400px</text><text x="360" y="2308" font-size="22" text-anchor="middle" fill="#1f2933" font-family="Arial, 'Malgun Gothic', sans-serif" font-weight="700">밝은 가장자리부터 풀리는 바코드/하얀 픽셀</text><text x="360" y="2356" font-size="16" text-anchor="middle" fill="#667085" font-family="Arial, 'Malgun Gothic', sans-serif">승객 정면</text><text x="686" y="58" font-size="22" text-anchor="end" font-weight="700" fill="#111" font-family="Arial, 'Malgun Gothic', sans-serif">삐----</text><text x="36" y="2356" font-size="14" text-anchor="start" fill="#6b7280" font-family="Arial, 'Malgun Gothic', sans-serif">괴물화 금지, 반사처럼</text>
  <circle cx="610" cy="110" r="46" fill="#ffd166" opacity=".65"/><path d="M80 160 C260 80 470 80 680 150" stroke="#ffd166" stroke-width="18" opacity=".25" fill="none"/><ellipse cx="360" cy="1145" rx="74" ry="90" fill="#d1d5db"/><rect x="290" y="1220" width="140" height="220" rx="42" fill="#cbd5e1"/><rect x="270" y="1020" width="8" height="8" fill="#fbbf24" opacity=".55"/><rect x="307" y="1073" width="13" height="8" fill="#38bdf8" opacity=".55"/><rect x="344" y="1126" width="18" height="8" fill="#38bdf8" opacity=".55"/><rect x="381" y="1179" width="23" height="8" fill="#fbbf24" opacity=".55"/><rect x="418" y="1232" width="8" height="8" fill="#38bdf8" opacity=".55"/><rect x="455" y="1285" width="13" height="8" fill="#38bdf8" opacity=".55"/><rect x="302" y="1338" width="18" height="8" fill="#fbbf24" opacity=".55"/><rect x="339" y="1071" width="23" height="8" fill="#38bdf8" opacity=".55"/><rect x="376" y="1124" width="8" height="8" fill="#38bdf8" opacity=".55"/><rect x="413" y="1177" width="13" height="8" fill="#fbbf24" opacity=".55"/><rect x="450" y="1230" width="18" height="8" fill="#38bdf8" opacity=".55"/><rect x="297" y="1283" width="23" height="8" fill="#38bdf8" opacity=".55"/><rect x="334" y="1336" width="8" height="8" fill="#fbbf24" opacity=".55"/><rect x="371" y="1069" width="13" height="8" fill="#38bdf8" opacity=".55"/><rect x="408" y="1122" width="18" height="8" fill="#38bdf8" opacity=".55"/><rect x="445" y="1175" width="23" height="8" fill="#fbbf24" opacity=".55"/><rect x="292" y="1228" width="8" height="8" fill="#38bdf8" opacity=".55"/><rect x="329" y="1281" width="13" height="8" fill="#38bdf8" opacity=".55"/><rect x="366" y="1334" width="18" height="8" fill="#fbbf24" opacity=".55"/><rect x="403" y="1067" width="23" height="8" fill="#38bdf8" opacity=".55"/><rect x="440" y="1120" width="8" height="8" fill="#38bdf8" opacity=".55"/><rect x="287" y="1173" width="13" height="8" fill="#fbbf24" opacity=".55"/><rect x="324" y="1226" width="18" height="8" fill="#38bdf8" opacity=".55"/><rect x="361" y="1279" width="23" height="8" fill="#38bdf8" opacity=".55"/><rect x="398" y="1332" width="8" height="8" fill="#fbbf24" opacity=".55"/><rect x="435" y="1065" width="13" height="8" fill="#38bdf8" opacity=".55"/><rect x="282" y="1118" width="18" height="8" fill="#38bdf8" opacity=".55"/><rect x="319" y="1171" width="23" height="8" fill="#fbbf24" opacity=".55"/><rect x="356" y="1224" width="8" height="8" fill="#38bdf8" opacity=".55"/><rect x="393" y="1277" width="13" height="8" fill="#38bdf8" opacity=".55"/><rect x="430" y="1330" width="18" height="8" fill="#fbbf24" opacity=".55"/><rect x="277" y="1063" width="23" height="8" fill="#38bdf8" opacity=".55"/><rect x="314" y="1116" width="8" height="8" fill="#38bdf8" opacity=".55"/><rect x="351" y="1169" width="13" height="8" fill="#fbbf24" opacity=".55"/><path d="M250 1020 C380 1120 470 1330 610 1390" stroke="#fff" stroke-width="22" opacity=".65" fill="none"/>
</g>
<g transform="translate(0 15200)">
  <title>17 폐역/교복 자락/승차권/아이 손/횡단보도</title>
  <rect x="0" y="0" width="720" height="900" fill="#fbfbf7"/><rect x="18" y="18" width="684" height="864" fill="none" stroke="#ec6f35" stroke-width="4"/><text x="34" y="56" font-size="19" font-weight="700" fill="#111" font-family="Arial, 'Malgun Gothic', sans-serif">17 / 폴리리듬 / 900px</text><text x="360" y="808" font-size="22" text-anchor="middle" fill="#1f2933" font-family="Arial, 'Malgun Gothic', sans-serif" font-weight="700">폐역/교복 자락/승차권/아이 손/횡단보도</text><text x="360" y="856" font-size="16" text-anchor="middle" fill="#667085" font-family="Arial, 'Malgun Gothic', sans-serif">반투명 정보 중첩</text><text x="686" y="58" font-size="22" text-anchor="end" font-weight="700" fill="#111" font-family="Arial, 'Malgun Gothic', sans-serif">도...착... / 2:17 / 기억하지...</text><text x="36" y="856" font-size="14" text-anchor="start" fill="#6b7280" font-family="Arial, 'Malgun Gothic', sans-serif">창문 반사처럼 얇게</text>
  <circle cx="610" cy="110" r="46" fill="#ffd166" opacity=".65"/><path d="M80 160 C260 80 470 80 680 150" stroke="#ffd166" stroke-width="18" opacity=".25" fill="none"/><ellipse cx="360" cy="395" rx="74" ry="90" fill="#d1d5db"/><rect x="290" y="470" width="140" height="220" rx="42" fill="#cbd5e1"/><rect x="270" y="270" width="8" height="8" fill="#fbbf24" opacity=".55"/><rect x="307" y="323" width="13" height="8" fill="#38bdf8" opacity=".55"/><rect x="344" y="376" width="18" height="8" fill="#38bdf8" opacity=".55"/><rect x="381" y="429" width="23" height="8" fill="#fbbf24" opacity=".55"/><rect x="418" y="482" width="8" height="8" fill="#38bdf8" opacity=".55"/><rect x="455" y="535" width="13" height="8" fill="#38bdf8" opacity=".55"/><rect x="302" y="588" width="18" height="8" fill="#fbbf24" opacity=".55"/><rect x="339" y="321" width="23" height="8" fill="#38bdf8" opacity=".55"/><rect x="376" y="374" width="8" height="8" fill="#38bdf8" opacity=".55"/><rect x="413" y="427" width="13" height="8" fill="#fbbf24" opacity=".55"/><rect x="450" y="480" width="18" height="8" fill="#38bdf8" opacity=".55"/><rect x="297" y="533" width="23" height="8" fill="#38bdf8" opacity=".55"/><rect x="334" y="586" width="8" height="8" fill="#fbbf24" opacity=".55"/><rect x="371" y="319" width="13" height="8" fill="#38bdf8" opacity=".55"/><rect x="408" y="372" width="18" height="8" fill="#38bdf8" opacity=".55"/><rect x="445" y="425" width="23" height="8" fill="#fbbf24" opacity=".55"/><rect x="292" y="478" width="8" height="8" fill="#38bdf8" opacity=".55"/><rect x="329" y="531" width="13" height="8" fill="#38bdf8" opacity=".55"/><rect x="366" y="584" width="18" height="8" fill="#fbbf24" opacity=".55"/><rect x="403" y="317" width="23" height="8" fill="#38bdf8" opacity=".55"/><rect x="440" y="370" width="8" height="8" fill="#38bdf8" opacity=".55"/><rect x="287" y="423" width="13" height="8" fill="#fbbf24" opacity=".55"/><rect x="324" y="476" width="18" height="8" fill="#38bdf8" opacity=".55"/><rect x="361" y="529" width="23" height="8" fill="#38bdf8" opacity=".55"/><rect x="398" y="582" width="8" height="8" fill="#fbbf24" opacity=".55"/><rect x="435" y="315" width="13" height="8" fill="#38bdf8" opacity=".55"/><rect x="282" y="368" width="18" height="8" fill="#38bdf8" opacity=".55"/><rect x="319" y="421" width="23" height="8" fill="#fbbf24" opacity=".55"/><rect x="356" y="474" width="8" height="8" fill="#38bdf8" opacity=".55"/><rect x="393" y="527" width="13" height="8" fill="#38bdf8" opacity=".55"/><rect x="430" y="580" width="18" height="8" fill="#fbbf24" opacity=".55"/><rect x="277" y="313" width="23" height="8" fill="#38bdf8" opacity=".55"/><rect x="314" y="366" width="8" height="8" fill="#38bdf8" opacity=".55"/><rect x="351" y="419" width="13" height="8" fill="#fbbf24" opacity=".55"/><path d="M250 270 C380 370 470 580 610 640" stroke="#fff" stroke-width="22" opacity=".65" fill="none"/>
</g>
<g transform="translate(0 16100)">
  <title>18 휴대폰 녹화 시도</title>
  <rect x="0" y="0" width="720" height="500" fill="#fbfbf7"/><rect x="18" y="18" width="684" height="464" fill="none" stroke="#222" stroke-width="4"/><text x="34" y="56" font-size="19" font-weight="700" fill="#111" font-family="Arial, 'Malgun Gothic', sans-serif">18 / 얇은 확인 / 500px</text><text x="360" y="408" font-size="22" text-anchor="middle" fill="#1f2933" font-family="Arial, 'Malgun Gothic', sans-serif" font-weight="700">휴대폰 녹화 시도</text><text x="360" y="456" font-size="16" text-anchor="middle" fill="#667085" font-family="Arial, 'Malgun Gothic', sans-serif">서윤 얼굴</text><text x="686" y="58" font-size="22" text-anchor="end" font-weight="700" fill="#111" font-family="Arial, 'Malgun Gothic', sans-serif">이번엔 찍혀야지.</text><text x="36" y="456" font-size="14" text-anchor="start" fill="#6b7280" font-family="Arial, 'Malgun Gothic', sans-serif">기록자 성격</text>
  <circle cx="610" cy="110" r="46" fill="#ffd166" opacity=".65"/><path d="M80 160 C260 80 470 80 680 150" stroke="#ffd166" stroke-width="18" opacity=".25" fill="none"/><circle cx="360" cy="150" r="76" fill="#d6b28d"/><rect x="300" y="230" width="120" height="230" rx="38" fill="#374151"/><rect x="430" y="280" width="120" height="36" rx="18" fill="#d6b28d"/><text x="492" y="308" font-size="16" text-anchor="middle" fill="#ef4444" font-family="Arial, sans-serif">PIXEL</text>
</g>
<g transform="translate(0 16600)">
  <title>19 정상 안내방송, 녹화 실패</title>
  <rect x="0" y="0" width="720" height="850" fill="#fbfbf7"/><rect x="18" y="18" width="684" height="814" fill="none" stroke="#222" stroke-width="4"/><text x="34" y="56" font-size="19" font-weight="700" fill="#111" font-family="Arial, 'Malgun Gothic', sans-serif">19 / 정박 복귀 / 850px</text><text x="360" y="758" font-size="22" text-anchor="middle" fill="#1f2933" font-family="Arial, 'Malgun Gothic', sans-serif" font-weight="700">정상 안내방송, 녹화 실패</text><text x="360" y="806" font-size="16" text-anchor="middle" fill="#667085" font-family="Arial, 'Malgun Gothic', sans-serif">열린 문</text><text x="686" y="58" font-size="22" text-anchor="end" font-weight="700" fill="#111" font-family="Arial, 'Malgun Gothic', sans-serif">이번 역은...</text><text x="36" y="806" font-size="14" text-anchor="start" fill="#6b7280" font-family="Arial, 'Malgun Gothic', sans-serif">과노출 흰 썸네일</text>
  <circle cx="610" cy="110" r="46" fill="#ffd166" opacity=".65"/><path d="M80 160 C260 80 470 80 680 150" stroke="#ffd166" stroke-width="18" opacity=".25" fill="none"/><rect x="40" y="205" width="640" height="360" rx="18" fill="#f8fafc" stroke="#94a3b8" stroke-width="3"/><rect x="80" y="255" width="180" height="120" fill="#dbeafe"/><rect x="460" y="255" width="180" height="120" fill="#dbeafe"/><path d="M70 545 L650 325" stroke="#ffd166" stroke-width="24" opacity=".35"/><circle cx="230" cy="453" r="32" fill="#6b7280"/><circle cx="490" cy="453" r="32" fill="#9ca3af"/>
</g>
<g transform="translate(0 17450)">
  <title>20 픽셀 가루가 스며듦</title>
  <rect x="0" y="0" width="720" height="1000" fill="#fbfbf7"/><rect x="18" y="18" width="684" height="964" fill="none" stroke="#222" stroke-width="4"/><text x="34" y="56" font-size="19" font-weight="700" fill="#111" font-family="Arial, 'Malgun Gothic', sans-serif">20 / 불안정 정박 / 1000px</text><text x="360" y="908" font-size="22" text-anchor="middle" fill="#1f2933" font-family="Arial, 'Malgun Gothic', sans-serif" font-weight="700">픽셀 가루가 스며듦</text><text x="360" y="956" font-size="16" text-anchor="middle" fill="#667085" font-family="Arial, 'Malgun Gothic', sans-serif">발밑</text><text x="686" y="58" font-size="22" text-anchor="end" font-weight="700" fill="#111" font-family="Arial, 'Malgun Gothic', sans-serif">...또 샜어.</text><text x="36" y="956" font-size="14" text-anchor="start" fill="#6b7280" font-family="Arial, 'Malgun Gothic', sans-serif">물리 흔적 전 단계</text>
  <rect x="0" y="0" width="720" height="1000" fill="#f6f3ee"/><path d="M120 580 C260 525 390 540 600 470" stroke="#e5e7eb" stroke-width="80"/><rect x="245" y="410" width="230" height="126" rx="8" fill="#f8fafc" stroke="#6b7280" stroke-dasharray="12 8"/><text x="360" y="465" font-size="38" text-anchor="middle" fill="#111" font-family="Arial, sans-serif" font-weight="700">1999</text><text x="360" y="512" font-size="30" text-anchor="middle" fill="#ef4444" font-family="Arial, sans-serif">02:17</text>
</g>
<g transform="translate(0 18450)">
  <title>21 오래된 승차권 조각</title>
  <rect x="0" y="0" width="720" height="850" fill="#fbfbf7"/><rect x="18" y="18" width="684" height="814" fill="none" stroke="#222" stroke-width="4"/><text x="34" y="56" font-size="19" font-weight="700" fill="#111" font-family="Arial, 'Malgun Gothic', sans-serif">21 / 물증 / 850px</text><text x="360" y="758" font-size="22" text-anchor="middle" fill="#1f2933" font-family="Arial, 'Malgun Gothic', sans-serif" font-weight="700">오래된 승차권 조각</text><text x="360" y="806" font-size="16" text-anchor="middle" fill="#667085" font-family="Arial, 'Malgun Gothic', sans-serif">바닥 클로즈업</text><text x="686" y="58" font-size="22" text-anchor="end" font-weight="700" fill="#111" font-family="Arial, 'Malgun Gothic', sans-serif">1999 / 02:17</text><text x="36" y="806" font-size="14" text-anchor="start" fill="#6b7280" font-family="Arial, 'Malgun Gothic', sans-serif">폐역명 일부</text>
  <rect x="0" y="0" width="720" height="850" fill="#f6f3ee"/><path d="M120 505 C260 450 390 465 600 395" stroke="#e5e7eb" stroke-width="80"/><rect x="245" y="335" width="230" height="126" rx="8" fill="#f8fafc" stroke="#6b7280" stroke-dasharray="12 8"/><text x="360" y="390" font-size="38" text-anchor="middle" fill="#111" font-family="Arial, sans-serif" font-weight="700">1999</text><text x="360" y="437" font-size="30" text-anchor="middle" fill="#ef4444" font-family="Arial, sans-serif">02:17</text>
</g>
<g transform="translate(0 19300)">
  <title>22 저장명 없는 번호 경고 문자</title>
  <rect x="0" y="0" width="720" height="700" fill="#fbfbf7"/><rect x="18" y="18" width="684" height="664" fill="none" stroke="#222" stroke-width="4"/><text x="34" y="56" font-size="19" font-weight="700" fill="#111" font-family="Arial, 'Malgun Gothic', sans-serif">22 / 훅 / 700px</text><text x="360" y="608" font-size="22" text-anchor="middle" fill="#1f2933" font-family="Arial, 'Malgun Gothic', sans-serif" font-weight="700">저장명 없는 번호 경고 문자</text><text x="360" y="656" font-size="16" text-anchor="middle" fill="#667085" font-family="Arial, 'Malgun Gothic', sans-serif">휴대폰 화면</text><text x="686" y="58" font-size="22" text-anchor="end" font-weight="700" fill="#111" font-family="Arial, 'Malgun Gothic', sans-serif">그쪽도 기록됩니다.</text><text x="36" y="656" font-size="14" text-anchor="start" fill="#6b7280" font-family="Arial, 'Malgun Gothic', sans-serif">발신자 정체 미공개</text>
  <rect x="250" y="140" width="220" height="420" rx="28" fill="#111"/><rect x="270" y="175" width="180" height="350" rx="8" fill="#f8fafc"/><rect x="292" y="228" width="136" height="84" fill="#e5e7eb"/><text x="360" y="270" font-size="18" text-anchor="middle" fill="#111" font-family="Arial, 'Malgun Gothic', sans-serif">저장명 없는 번호 경고 문자</text><text x="360" y="405" font-size="28" text-anchor="middle" fill="#ef4444" font-family="Arial, sans-serif" font-weight="700">02:17</text>
</g>
</svg>
